<svg width="45" height="45" viewBox="0 0 45 45" fill="none" xmlns="http://www.w3.org/2000/svg">
<rect x="0.130737" y="0.539917" width="44.4487" height="44.4487" rx="9.26013" fill="#282C35"/>
<path d="M31.6146 18.6436C31.6146 19.2548 31.1146 19.7548 30.5034 19.7548H14.2056C13.5944 19.7548 13.0944 19.2548 13.0944 18.6436V18.6344C13.0944 16.5138 14.8075 14.8007 16.9281 14.8007H27.7717C29.8922 14.8007 31.6146 16.523 31.6146 18.6436Z" fill="#32FC12"/>
<path d="M13.0944 22.255V26.8943C13.0944 29.0149 14.8075 30.728 16.9281 30.728H27.7717C29.8922 30.728 31.6146 29.0056 31.6146 26.8851V22.255C31.6146 21.6438 31.1146 21.1438 30.5034 21.1438H14.2056C13.5944 21.1438 13.0944 21.6438 13.0944 22.255ZM18.6504 27.6259H16.7984C16.4187 27.6259 16.1039 27.311 16.1039 26.9314C16.1039 26.5517 16.4187 26.2368 16.7984 26.2368H18.6504C19.0301 26.2368 19.345 26.5517 19.345 26.9314C19.345 27.311 19.0301 27.6259 18.6504 27.6259ZM24.6695 27.6259H20.9655C20.5858 27.6259 20.271 27.311 20.271 26.9314C20.271 26.5517 20.5858 26.2368 20.9655 26.2368H24.6695C25.0492 26.2368 25.364 26.5517 25.364 26.9314C25.364 27.311 25.0492 27.6259 24.6695 27.6259Z" fill="#32FC12"/>
</svg>
