<svg width="45" height="46" viewBox="0 0 45 46" fill="none" xmlns="http://www.w3.org/2000/svg">
<rect x="0.0185585" y="0.680756" width="44.4487" height="44.4487" rx="9.26013" fill="#282C35"/>
<path d="M22.1877 13.8393L19.956 19.0342H17.7244C17.3539 19.0342 16.9928 19.062 16.6409 19.1361L17.5669 16.9137L17.604 16.8303L17.6595 16.6822C17.6873 16.6173 17.7058 16.5618 17.7336 16.5155C18.8078 14.0245 20.0116 13.2467 22.1877 13.8393Z" fill="#F5FBFE"/>
<path d="M28.4752 19.2843L28.4567 19.2751C27.9011 19.1176 27.3362 19.0343 26.7621 19.0343H20.9652L23.0488 14.1913L23.0766 14.1264C23.2062 14.1727 23.3451 14.2376 23.484 14.2839L25.5305 15.145C26.6695 15.6173 27.4659 16.1081 27.9566 16.7008C28.04 16.8119 28.1141 16.9137 28.1882 17.0341C28.2715 17.1638 28.3363 17.2934 28.3734 17.4323C28.4104 17.5156 28.4382 17.5897 28.4567 17.6731C28.5956 18.1453 28.6049 18.6824 28.4752 19.2843Z" fill="#F5FBFE"/>
<path d="M22.7246 28.1462H22.9561C23.2339 28.1462 23.4654 27.8962 23.4654 27.5906C23.4654 27.2016 23.3542 27.1461 23.1135 27.0535L22.7246 26.9146V28.1462Z" fill="#F5FBFE"/>
<path d="M28.068 20.6085C27.6513 20.4881 27.2161 20.4233 26.7623 20.4233H17.7244C17.0947 20.4233 16.5021 20.5437 15.9465 20.7845C14.3352 21.479 13.2055 23.081 13.2055 24.9423V26.748C13.2055 26.9702 13.224 27.1832 13.2518 27.4055C13.4555 30.3502 15.0297 31.9244 17.9744 32.1189C18.1874 32.1466 18.4004 32.1652 18.6319 32.1652H25.8548C29.2811 32.1652 31.0868 30.5354 31.2627 27.2943C31.272 27.1184 31.2813 26.9332 31.2813 26.748V24.9423C31.2813 22.8958 29.92 21.1734 28.068 20.6085ZM23.4287 26.1461C23.8546 26.2942 24.4288 26.6091 24.4288 27.5907C24.4288 28.4333 23.7713 29.1093 22.9564 29.1093H22.7249V29.313C22.7249 29.5816 22.5119 29.7946 22.2434 29.7946C21.9748 29.7946 21.7618 29.5816 21.7618 29.313V29.1093H21.6785C20.7895 29.1093 20.058 28.3592 20.058 27.4332C20.058 27.1647 20.271 26.9517 20.5395 26.9517C20.808 26.9517 21.021 27.1647 21.021 27.4332C21.021 27.8222 21.3174 28.1463 21.6785 28.1463H21.7618V26.5813L21.0581 26.3313C20.6321 26.1831 20.058 25.8683 20.058 24.8867C20.058 24.044 20.7154 23.368 21.5303 23.368H21.7618V23.1643C21.7618 22.8958 21.9748 22.6828 22.2434 22.6828C22.5119 22.6828 22.7249 22.8958 22.7249 23.1643V23.368H22.8082C23.6972 23.368 24.4288 24.1181 24.4288 25.0441C24.4288 25.3127 24.2158 25.5256 23.9472 25.5256C23.6787 25.5256 23.4657 25.3127 23.4657 25.0441C23.4657 24.6552 23.1694 24.3311 22.8082 24.3311H22.7249V25.896L23.4287 26.1461Z" fill="#F5FBFE"/>
<path d="M21.021 24.8868C21.021 25.2757 21.1322 25.3312 21.3729 25.4238L21.7618 25.5627V24.3311H21.5303C21.2433 24.3311 21.021 24.5812 21.021 24.8868Z" fill="#F5FBFE"/>
</svg>
