<svg width="19" height="18" viewBox="0 0 19 18" fill="none" xmlns="http://www.w3.org/2000/svg">
<path d="M9.17363 16.2187C5.10574 16.2187 1.79382 12.9068 1.79382 8.83893C1.79382 4.77103 5.10574 1.45912 9.17363 1.45912C13.2415 1.45912 16.5534 4.77103 16.5534 8.83893C16.5534 12.9068 13.2415 16.2187 9.17363 16.2187ZM9.17363 2.53909C5.69612 2.53909 2.87379 5.36862 2.87379 8.83893C2.87379 12.3092 5.69612 15.1388 9.17363 15.1388C12.6511 15.1388 15.4735 12.3092 15.4735 8.83893C15.4735 5.36862 12.6511 2.53909 9.17363 2.53909Z" fill="#9E9E9E"/>
<path d="M16.7338 16.9387C16.597 16.9387 16.4602 16.8883 16.3522 16.7803L14.9122 15.3403C14.7034 15.1315 14.7034 14.7859 14.9122 14.5771C15.121 14.3683 15.4666 14.3683 15.6754 14.5771L17.1154 16.0171C17.3241 16.2259 17.3241 16.5715 17.1154 16.7803C17.0074 16.8883 16.8706 16.9387 16.7338 16.9387Z" fill="#9E9E9E"/>
</svg>
