<svg width="23" height="23" viewBox="0 0 23 23" fill="none" xmlns="http://www.w3.org/2000/svg">
<path d="M11.3641 11.8888C8.42869 11.8888 6.03957 9.5 6.03957 6.56494C6.03957 3.62988 8.42869 1.24109 11.3641 1.24109C14.2996 1.24109 16.6887 3.62988 16.6887 6.56494C16.6887 9.5 14.2996 11.8888 11.3641 11.8888ZM11.3641 2.62992C9.19728 2.62992 7.42859 4.39836 7.42859 6.56494C7.42859 8.73151 9.19728 10.5 11.3641 10.5C13.531 10.5 15.2997 8.73151 15.2997 6.56494C15.2997 4.39836 13.531 2.62992 11.3641 2.62992Z" fill="#A9A9A9"/>
<path d="M19.3188 21.1477C18.9391 21.1477 18.6242 20.8329 18.6242 20.4533C18.6242 17.259 15.3647 14.6665 11.3643 14.6665C7.36392 14.6665 4.10436 17.259 4.10436 20.4533C4.10436 20.8329 3.78951 21.1477 3.40985 21.1477C3.03018 21.1477 2.71534 20.8329 2.71534 20.4533C2.71534 16.4998 6.59533 13.2777 11.3643 13.2777C16.1333 13.2777 20.0133 16.4998 20.0133 20.4533C20.0133 20.8329 19.6984 21.1477 19.3188 21.1477Z" fill="#A9A9A9"/>
</svg>
