<svg width="27" height="26" viewBox="0 0 27 26" fill="none" xmlns="http://www.w3.org/2000/svg">
<path d="M24.0283 9.16136V4.36863C24.0283 2.88014 23.3527 2.27841 21.6741 2.27841H17.4092C15.7307 2.27841 15.0551 2.88014 15.0551 4.36863V9.1508C15.0551 10.6499 15.7307 11.241 17.4092 11.241H21.6741C23.3527 11.2516 24.0283 10.6499 24.0283 9.16136Z" fill="white"/>
<path d="M24.0283 21.0377V16.7728C24.0283 15.0943 23.3527 14.4186 21.6741 14.4186H17.4092C15.7307 14.4186 15.0551 15.0943 15.0551 16.7728V21.0377C15.0551 22.7162 15.7307 23.3918 17.4092 23.3918H21.6741C23.3527 23.3918 24.0283 22.7162 24.0283 21.0377Z" fill="white"/>
<path d="M11.8882 9.16136V4.36863C11.8882 2.88014 11.2125 2.27841 9.53402 2.27841H5.26912C3.59061 2.27841 2.91498 2.88014 2.91498 4.36863V9.1508C2.91498 10.6499 3.59061 11.241 5.26912 11.241H9.53402C11.2125 11.2516 11.8882 10.6499 11.8882 9.16136Z" fill="white"/>
<path d="M11.8882 21.0377V16.7728C11.8882 15.0943 11.2125 14.4186 9.53402 14.4186H5.26912C3.59061 14.4186 2.91498 15.0943 2.91498 16.7728V21.0377C2.91498 22.7162 3.59061 23.3918 5.26912 23.3918H9.53402C11.2125 23.3918 11.8882 22.7162 11.8882 21.0377Z" fill="white"/>
</svg>
