<svg width="24" height="24" viewBox="0 0 24 24" fill="none" xmlns="http://www.w3.org/2000/svg">
<path d="M11.9702 20.3875C9.73342 20.3875 7.49668 20.0324 5.37513 19.322C4.56876 19.0436 3.95437 18.4772 3.68558 17.738C3.40719 16.9988 3.50318 16.1829 3.94477 15.4533L5.04874 13.6197C5.27914 13.2357 5.49033 12.4678 5.49033 12.0166V9.24224C5.49033 5.67113 8.39906 2.76241 11.9702 2.76241C15.5413 2.76241 18.45 5.67113 18.45 9.24224V12.0166C18.45 12.4582 18.6612 13.2357 18.8916 13.6293L19.986 15.4533C20.3987 16.1445 20.4755 16.9796 20.1971 17.738C19.9188 18.4964 19.314 19.0724 18.5556 19.322C16.4436 20.0324 14.2069 20.3875 11.9702 20.3875ZM11.9702 4.20237C9.19583 4.20237 6.93029 6.45831 6.93029 9.24224V12.0166C6.93029 12.7173 6.6423 13.7541 6.28711 14.3589L5.18314 16.1925C4.97194 16.5476 4.91435 16.922 5.03914 17.2388C5.15434 17.5652 5.44233 17.8148 5.83592 17.9492C9.84862 19.2932 14.1013 19.2932 18.114 17.9492C18.4596 17.834 18.7284 17.5748 18.8532 17.2292C18.978 16.8836 18.9492 16.5092 18.7572 16.1925L17.6532 14.3589C17.2884 13.7349 17.01 12.7077 17.01 12.007V9.24224C17.01 6.45831 14.7541 4.20237 11.9702 4.20237Z" fill="#9E9E9E"/>
<path d="M13.756 4.46151C13.6888 4.46151 13.6216 4.45191 13.5544 4.43271C13.276 4.35591 13.0072 4.29832 12.748 4.25992C11.9321 4.15432 11.1449 4.21192 10.4057 4.43271C10.1369 4.51911 9.84891 4.43271 9.66652 4.23112C9.48412 4.02952 9.42652 3.74153 9.53212 3.48234C9.92571 2.47436 10.8857 1.81198 11.9801 1.81198C13.0744 1.81198 14.0344 2.46476 14.428 3.48234C14.524 3.74153 14.476 4.02952 14.2936 4.23112C14.1496 4.38471 13.948 4.46151 13.756 4.46151Z" fill="#9E9E9E"/>
<path d="M11.9705 22.5762C11.0201 22.5762 10.0986 22.1922 9.42658 21.5203C8.75459 20.8483 8.37061 19.9267 8.37061 18.9763H9.81057C9.81057 19.5427 10.041 20.0995 10.4442 20.5027C10.8473 20.9059 11.4041 21.1363 11.9705 21.1363C13.1609 21.1363 14.1305 20.1667 14.1305 18.9763H15.5704C15.5704 20.9635 13.9577 22.5762 11.9705 22.5762Z" fill="#9E9E9E"/>
<circle cx="16.7513" cy="5.47908" r="2.39994" fill="#1FCB4F" stroke="#1A1C22" stroke-width="0.959975"/>
</svg>
