<svg width="45" height="45" viewBox="0 0 45 45" fill="none" xmlns="http://www.w3.org/2000/svg">
<rect x="0.130737" y="0.539917" width="44.4487" height="44.4487" rx="9.26013" fill="#282C35"/>
<path d="M31.6145 18.6436C31.6145 19.2547 31.1145 19.7548 30.5033 19.7548H14.2055C13.5943 19.7548 13.0942 19.2547 13.0942 18.6436V18.6343C13.0942 16.5137 14.8074 14.8006 16.9279 14.8006H27.7716C29.8921 14.8006 31.6145 16.523 31.6145 18.6436Z" fill="white"/>
<path d="M13.0942 22.255V26.8943C13.0942 29.0149 14.8074 30.728 16.9279 30.728H27.7716C29.8921 30.728 31.6145 29.0056 31.6145 26.885V22.255C31.6145 21.6438 31.1145 21.1437 30.5033 21.1437H14.2055C13.5943 21.1437 13.0942 21.6438 13.0942 22.255ZM18.6503 27.6258H16.7983C16.4186 27.6258 16.1038 27.311 16.1038 26.9313C16.1038 26.5517 16.4186 26.2368 16.7983 26.2368H18.6503C19.03 26.2368 19.3448 26.5517 19.3448 26.9313C19.3448 27.311 19.03 27.6258 18.6503 27.6258ZM24.6694 27.6258H20.9654C20.5857 27.6258 20.2708 27.311 20.2708 26.9313C20.2708 26.5517 20.5857 26.2368 20.9654 26.2368H24.6694C25.0491 26.2368 25.3639 26.5517 25.3639 26.9313C25.3639 27.311 25.0491 27.6258 24.6694 27.6258Z" fill="white"/>
</svg>
