<svg width="38" height="36" viewBox="0 0 38 36" fill="none" xmlns="http://www.w3.org/2000/svg">
<rect width="37.0405" height="35.9067" rx="9.26013" fill="#282C35"/>
<path d="M22.2246 18.1715V23.162C22.2246 25.3286 20.78 26.7637 18.6224 26.7637H12.8626C10.705 26.7637 9.26041 25.3286 9.26041 23.162V15.9679C9.26041 13.8013 10.705 12.3662 12.8626 12.3662H16.4092C17.363 12.3662 18.2798 12.7458 18.9558 13.4217L21.1689 15.6253C21.8449 16.3012 22.2246 17.2178 22.2246 18.1715Z" fill="#52FF43"/>
<path d="M27.7808 14.0605V19.051C27.7808 21.2083 26.3362 22.6527 24.1786 22.6527H23.1507V18.1714C23.1507 16.977 22.6692 15.8104 21.8265 14.9678L19.6134 12.7642C18.7707 11.9217 17.6039 11.4402 16.4094 11.4402H14.8351C15.0018 9.51438 16.4001 8.24591 18.4188 8.24591H21.9654C22.9192 8.24591 23.836 8.62552 24.512 9.30142L26.7252 11.5143C27.4011 12.1902 27.7808 13.1068 27.7808 14.0605Z" fill="#52FF43"/>
</svg>
