<svg width="45" height="46" viewBox="0 0 45 46" fill="none" xmlns="http://www.w3.org/2000/svg">
<rect x="0.0185547" y="0.680756" width="44.4487" height="44.4487" rx="9.26013" fill="#282C35"/>
<path d="M22.1878 13.8393L19.9561 19.0342H17.7244C17.354 19.0342 16.9929 19.062 16.641 19.1361L17.567 16.9137L17.604 16.8303L17.6596 16.6822C17.6874 16.6173 17.7059 16.5618 17.7337 16.5155C18.8079 14.0245 20.0117 13.2467 22.1878 13.8393Z" fill="#F5FBFE"/>
<path d="M28.4753 19.2843L28.4568 19.2751C27.9012 19.1176 27.3363 19.0343 26.7622 19.0343H20.9653L23.0489 14.1913L23.0766 14.1264C23.2063 14.1727 23.3452 14.2376 23.4841 14.2839L25.5306 15.145C26.6696 15.6173 27.4659 16.1081 27.9567 16.7008C28.0401 16.8119 28.1142 16.9137 28.1882 17.0341C28.2716 17.1638 28.3364 17.2934 28.3734 17.4323C28.4105 17.5156 28.4383 17.5897 28.4568 17.6731C28.5957 18.1453 28.6049 18.6824 28.4753 19.2843Z" fill="#F5FBFE"/>
<path d="M22.7246 28.1462H22.9561C23.2339 28.1462 23.4654 27.8962 23.4654 27.5906C23.4654 27.2016 23.3543 27.1461 23.1135 27.0535L22.7246 26.9146V28.1462Z" fill="#F5FBFE"/>
<path d="M28.0681 20.6085C27.6514 20.4881 27.2161 20.4233 26.7624 20.4233H17.7245C17.0948 20.4233 16.5022 20.5437 15.9466 20.7845C14.3353 21.479 13.2056 23.081 13.2056 24.9423V26.748C13.2056 26.9702 13.2241 27.1832 13.2519 27.4055C13.4556 30.3502 15.0298 31.9244 17.9745 32.1189C18.1875 32.1466 18.4005 32.1652 18.632 32.1652H25.8549C29.2812 32.1652 31.0869 30.5354 31.2628 27.2943C31.2721 27.1184 31.2813 26.9332 31.2813 26.748V24.9423C31.2813 22.8958 29.9201 21.1734 28.0681 20.6085ZM23.4288 26.1461C23.8547 26.2942 24.4288 26.6091 24.4288 27.5907C24.4288 28.4333 23.7714 29.1093 22.9565 29.1093H22.725V29.313C22.725 29.5816 22.512 29.7946 22.2435 29.7946C21.9749 29.7946 21.7619 29.5816 21.7619 29.313V29.1093H21.6786C20.7896 29.1093 20.0581 28.3592 20.0581 27.4332C20.0581 27.1647 20.271 26.9517 20.5396 26.9517C20.8081 26.9517 21.0211 27.1647 21.0211 27.4332C21.0211 27.8222 21.3174 28.1463 21.6786 28.1463H21.7619V26.5813L21.0582 26.3313C20.6322 26.1831 20.0581 25.8683 20.0581 24.8867C20.0581 24.044 20.7155 23.368 21.5304 23.368H21.7619V23.1643C21.7619 22.8958 21.9749 22.6828 22.2435 22.6828C22.512 22.6828 22.725 22.8958 22.725 23.1643V23.368H22.8083C23.6973 23.368 24.4288 24.1181 24.4288 25.0441C24.4288 25.3127 24.2159 25.5256 23.9473 25.5256C23.6788 25.5256 23.4658 25.3127 23.4658 25.0441C23.4658 24.6552 23.1695 24.3311 22.8083 24.3311H22.725V25.896L23.4288 26.1461Z" fill="#F5FBFE"/>
<path d="M21.0211 24.8868C21.0211 25.2757 21.1322 25.3312 21.373 25.4238L21.7619 25.5627V24.3311H21.5304C21.2434 24.3311 21.0211 24.5812 21.0211 24.8868Z" fill="#F5FBFE"/>
</svg>
