<svg width="24" height="24" viewBox="0 0 24 24" fill="none" xmlns="http://www.w3.org/2000/svg">
<path d="M11.9701 20.3875C9.73339 20.3875 7.49665 20.0324 5.3751 19.322C4.56873 19.0436 3.95434 18.4772 3.68555 17.738C3.40716 16.9988 3.50315 16.1829 3.94474 15.4533L5.04871 13.6197C5.27911 13.2357 5.4903 12.4678 5.4903 12.0166V9.24224C5.4903 5.67113 8.39903 2.76241 11.9701 2.76241C15.5412 2.76241 18.45 5.67113 18.45 9.24224V12.0166C18.45 12.4582 18.6612 13.2357 18.8915 13.6293L19.9859 15.4533C20.3987 16.1445 20.4755 16.9796 20.1971 17.738C19.9187 18.4964 19.3139 19.0724 18.5556 19.322C16.4436 20.0324 14.2069 20.3875 11.9701 20.3875ZM11.9701 4.20237C9.1958 4.20237 6.93026 6.45831 6.93026 9.24224V12.0166C6.93026 12.7173 6.64227 13.7541 6.28708 14.3589L5.18311 16.1925C4.97191 16.5476 4.91432 16.922 5.03911 17.2388C5.15431 17.5652 5.4423 17.8148 5.83589 17.9492C9.84859 19.2932 14.1013 19.2932 18.114 17.9492C18.4596 17.834 18.7284 17.5748 18.8532 17.2292C18.9779 16.8836 18.9491 16.5092 18.7572 16.1925L17.6532 14.3589C17.2884 13.7349 17.01 12.7077 17.01 12.007V9.24224C17.01 6.45831 14.7541 4.20237 11.9701 4.20237Z" fill="#9E9E9E"/>
<path d="M13.7559 4.46151C13.6887 4.46151 13.6216 4.45191 13.5544 4.43271C13.276 4.35591 13.0072 4.29832 12.748 4.25992C11.932 4.15432 11.1448 4.21192 10.4056 4.43271C10.1368 4.51911 9.84885 4.43271 9.66645 4.23112C9.48406 4.02952 9.42646 3.74153 9.53206 3.48234C9.92565 2.47436 10.8856 1.81198 11.98 1.81198C13.0744 1.81198 14.0343 2.46476 14.4279 3.48234C14.5239 3.74153 14.4759 4.02952 14.2935 4.23112C14.1495 4.38471 13.9479 4.46151 13.7559 4.46151Z" fill="#9E9E9E"/>
<path d="M11.9705 22.5762C11.0201 22.5762 10.0985 22.1922 9.42655 21.5203C8.75456 20.8483 8.37057 19.9267 8.37057 18.9763H9.81054C9.81054 19.5427 10.0409 20.0995 10.4441 20.5027C10.8473 20.9059 11.4041 21.1363 11.9705 21.1363C13.1608 21.1363 14.1304 20.1667 14.1304 18.9763H15.5704C15.5704 20.9635 13.9576 22.5762 11.9705 22.5762Z" fill="#9E9E9E"/>
<circle cx="16.7512" cy="5.47908" r="2.39994" fill="#1FCB4F" stroke="#1A1C22" stroke-width="0.959975"/>
</svg>
