<svg width="23" height="24" viewBox="0 0 23 24" fill="none" xmlns="http://www.w3.org/2000/svg">
<path d="M11.2521 15.4877C9.33524 15.4877 7.77954 13.932 7.77954 12.0152C7.77954 10.0983 9.33524 8.5426 11.2521 8.5426C13.1689 8.5426 14.7246 10.0983 14.7246 12.0152C14.7246 13.932 13.1689 15.4877 11.2521 15.4877ZM11.2521 9.93162C10.1038 9.93162 9.16856 10.8669 9.16856 12.0152C9.16856 13.1634 10.1038 14.0987 11.2521 14.0987C12.4003 14.0987 13.3356 13.1634 13.3356 12.0152C13.3356 10.8669 12.4003 9.93162 11.2521 9.93162Z" fill="#A9A9A9"/>
<path d="M14.2244 21.4512C14.0299 21.4512 13.8355 21.4234 13.641 21.3771C13.0669 21.2197 12.5853 20.8586 12.2798 20.3493L12.1686 20.1641C11.6223 19.2195 10.8722 19.2195 10.3259 20.1641L10.224 20.34C9.91843 20.8586 9.4369 21.229 8.86277 21.3771C8.27938 21.5346 7.67747 21.4512 7.16817 21.1456L5.57542 20.2289C5.01056 19.9048 4.60311 19.377 4.42717 18.738C4.26048 18.0991 4.34383 17.4416 4.66793 16.8767C4.93647 16.4044 5.01056 15.9785 4.85313 15.7099C4.69571 15.4414 4.29752 15.284 3.75118 15.284C2.3992 15.284 1.29724 14.182 1.29724 12.83V11.2003C1.29724 9.84827 2.3992 8.74632 3.75118 8.74632C4.29752 8.74632 4.69571 8.58889 4.85313 8.32035C5.01056 8.05181 4.94573 7.62584 4.66793 7.15357C4.34383 6.5887 4.26048 5.92197 4.42717 5.29229C4.59385 4.65334 5.00129 4.12551 5.57542 3.8014L7.17743 2.88465C8.22382 2.26422 9.60358 2.62537 10.2333 3.69028L10.3444 3.87548C10.8907 4.82002 11.6408 4.82002 12.1872 3.87548L12.289 3.69954C12.9187 2.62537 14.2985 2.26422 15.3541 2.89391L16.9469 3.81066C17.5117 4.13477 17.9192 4.6626 18.0951 5.30155C18.2618 5.94049 18.1785 6.59796 17.8544 7.16283C17.5858 7.6351 17.5117 8.06107 17.6692 8.32961C17.8266 8.59815 18.2248 8.75558 18.7711 8.75558C20.1231 8.75558 21.2251 9.85753 21.2251 11.2095V12.8393C21.2251 14.1913 20.1231 15.2932 18.7711 15.2932C18.2248 15.2932 17.8266 15.4507 17.6692 15.7192C17.5117 15.9877 17.5766 16.4137 17.8544 16.886C18.1785 17.4508 18.2711 18.1176 18.0951 18.7473C17.9284 19.3862 17.521 19.914 16.9469 20.2381L15.3449 21.1549C14.993 21.3494 14.6133 21.4512 14.2244 21.4512ZM11.2519 18.025C12.076 18.025 12.8446 18.5435 13.3725 19.4603L13.4743 19.6362C13.5854 19.8307 13.7706 19.9696 13.9929 20.0252C14.2151 20.0807 14.4374 20.0529 14.6226 19.9418L16.2246 19.0158C16.4653 18.8769 16.6505 18.6454 16.7246 18.3676C16.7987 18.0898 16.7617 17.8027 16.6228 17.562C16.0949 16.6545 16.0301 15.7192 16.4376 15.0062C16.845 14.2931 17.6877 13.8857 18.7433 13.8857C19.336 13.8857 19.8083 13.4134 19.8083 12.8208V11.191C19.8083 10.6076 19.336 10.1261 18.7433 10.1261C17.6877 10.1261 16.845 9.71863 16.4376 9.0056C16.0301 8.29257 16.0949 7.3573 16.6228 6.4498C16.7617 6.20904 16.7987 5.92197 16.7246 5.64417C16.6505 5.36637 16.4746 5.14412 16.2338 4.99596L14.6318 4.07921C14.2336 3.83844 13.7058 3.97735 13.4651 4.38479L13.3632 4.56073C12.8354 5.47749 12.0668 5.99606 11.2426 5.99606C10.4185 5.99606 9.64988 5.47749 9.12205 4.56073L9.02019 4.37553C8.78869 3.98661 8.27012 3.8477 7.87194 4.07921L6.26993 5.00522C6.02917 5.14412 5.84397 5.37563 5.76989 5.65343C5.69581 5.93123 5.73285 6.2183 5.87175 6.45906C6.39958 7.36656 6.4644 8.30183 6.05695 9.01486C5.6495 9.72789 4.80683 10.1353 3.75118 10.1353C3.15853 10.1353 2.68626 10.6076 2.68626 11.2003V12.83C2.68626 13.4134 3.15853 13.895 3.75118 13.895C4.80683 13.895 5.6495 14.3024 6.05695 15.0154C6.4644 15.7285 6.39958 16.6637 5.87175 17.5712C5.73285 17.812 5.69581 18.0991 5.76989 18.3769C5.84397 18.6547 6.01991 18.8769 6.26067 19.0251L7.86268 19.9418C8.05714 20.0622 8.28864 20.09 8.50163 20.0344C8.72387 19.9789 8.90907 19.8307 9.02945 19.6362L9.13132 19.4603C9.65914 18.5528 10.4277 18.025 11.2519 18.025Z" fill="#A9A9A9"/>
</svg>
