<svg width="19" height="18" viewBox="0 0 19 18" fill="none" xmlns="http://www.w3.org/2000/svg">
<path d="M9.1736 16.2187C5.10571 16.2187 1.79379 12.9068 1.79379 8.83893C1.79379 4.77103 5.10571 1.45912 9.1736 1.45912C13.2415 1.45912 16.5534 4.77103 16.5534 8.83893C16.5534 12.9068 13.2415 16.2187 9.1736 16.2187ZM9.1736 2.53909C5.69609 2.53909 2.87376 5.36862 2.87376 8.83893C2.87376 12.3092 5.69609 15.1388 9.1736 15.1388C12.6511 15.1388 15.4734 12.3092 15.4734 8.83893C15.4734 5.36862 12.6511 2.53909 9.1736 2.53909Z" fill="#9E9E9E"/>
<path d="M16.7337 16.9387C16.5969 16.9387 16.4601 16.8883 16.3521 16.7803L14.9121 15.3403C14.7033 15.1315 14.7033 14.7859 14.9121 14.5771C15.1209 14.3683 15.4665 14.3683 15.6753 14.5771L17.1153 16.0171C17.3241 16.2259 17.3241 16.5715 17.1153 16.7803C17.0073 16.8883 16.8705 16.9387 16.7337 16.9387Z" fill="#9E9E9E"/>
</svg>
