<svg width="23" height="23" viewBox="0 0 23 23" fill="none" xmlns="http://www.w3.org/2000/svg">
<path d="M11.3643 11.8888C8.42879 11.8888 6.03967 9.5 6.03967 6.56494C6.03967 3.62988 8.42879 1.24109 11.3643 1.24109C14.2997 1.24109 16.6888 3.62988 16.6888 6.56494C16.6888 9.5 14.2997 11.8888 11.3643 11.8888ZM11.3643 2.62992C9.19738 2.62992 7.42869 4.39836 7.42869 6.56494C7.42869 8.73151 9.19738 10.5 11.3643 10.5C13.5311 10.5 15.2998 8.73151 15.2998 6.56494C15.2998 4.39836 13.5311 2.62992 11.3643 2.62992Z" fill="#A9A9A9"/>
<path d="M19.3187 21.1477C18.9391 21.1477 18.6242 20.8329 18.6242 20.4533C18.6242 17.259 15.3647 14.6665 11.3643 14.6665C7.36392 14.6665 4.10435 17.259 4.10435 20.4533C4.10435 20.8329 3.78951 21.1477 3.40984 21.1477C3.03018 21.1477 2.71533 20.8329 2.71533 20.4533C2.71533 16.4998 6.59533 13.2777 11.3643 13.2777C16.1333 13.2777 20.0133 16.4998 20.0133 20.4533C20.0133 20.8329 19.6984 21.1477 19.3187 21.1477Z" fill="#A9A9A9"/>
</svg>
