<svg width="41" height="41" viewBox="0 0 41 41" fill="none" xmlns="http://www.w3.org/2000/svg">
<rect x="0.652649" y="0.309692" width="39.9667" height="39.9667" rx="8.32639" fill="#282C35"/>
<path d="M30.3947 18.0309C30.3947 18.6105 29.9008 19.0848 29.2971 19.0848H13.1978C12.5941 19.0848 12.1002 18.6105 12.1002 18.0309V18.0221C12.1002 16.0109 13.7924 14.3861 15.8871 14.3861H26.5986C28.6933 14.3861 30.3947 16.0196 30.3947 18.0309Z" fill="#1FCB4F"/>
<path d="M12.1002 21.4561V25.8562C12.1002 27.8674 13.7924 29.4922 15.8871 29.4922H26.5986C28.6933 29.4922 30.3947 27.8586 30.3947 25.8474V21.4561C30.3947 20.8764 29.9008 20.4022 29.2971 20.4022H13.1978C12.5941 20.4022 12.1002 20.8764 12.1002 21.4561ZM17.5885 26.55H15.7591C15.384 26.55 15.073 26.2514 15.073 25.8913C15.073 25.5312 15.384 25.2326 15.7591 25.2326H17.5885C17.9636 25.2326 18.2746 25.5312 18.2746 25.8913C18.2746 26.2514 17.9636 26.55 17.5885 26.55ZM23.5343 26.55H19.8754C19.5003 26.55 19.1893 26.2514 19.1893 25.8913C19.1893 25.5312 19.5003 25.2326 19.8754 25.2326H23.5343C23.9093 25.2326 24.2203 25.5312 24.2203 25.8913C24.2203 26.2514 23.9093 26.55 23.5343 26.55Z" fill="#1FCB4F"/>
</svg>
