<svg width="41" height="41" viewBox="0 0 41 41" fill="none" xmlns="http://www.w3.org/2000/svg">
<rect x="0.65274" y="0.309692" width="39.9667" height="39.9667" rx="8.32639" fill="#282C35"/>
<path d="M31.3952 21.4836V23.2928C31.3952 23.7846 30.9745 24.1886 30.4531 24.1886H28.6877C27.6997 24.1886 26.7942 23.4948 26.7118 22.5463C26.657 21.993 26.8765 21.4748 27.2607 21.1147C27.5991 20.781 28.0656 20.5878 28.5779 20.5878H30.4531C30.9745 20.5878 31.3952 20.9918 31.3952 21.4836Z" fill="#1FCB4F"/>
<path d="M25.3396 22.6605C25.2572 21.7383 25.6048 20.8337 26.3 20.175C26.8855 19.6042 27.6996 19.2704 28.5777 19.2704H29.0991C29.3552 19.2704 29.5656 19.0684 29.529 18.8225C29.282 17.1187 27.7453 15.8013 25.9067 15.8013H16.7594C14.7379 15.8013 13.1005 17.3734 13.1005 19.3143V25.4622C13.1005 27.4031 14.7379 28.9752 16.7594 28.9752H25.9067C27.7544 28.9752 29.282 27.6578 29.529 25.954C29.5656 25.7081 29.3552 25.5061 29.0991 25.5061H28.6875C26.9495 25.5061 25.4859 24.259 25.3396 22.6605ZM23.1625 20.8513H17.6741C17.2991 20.8513 16.9881 20.5615 16.9881 20.1926C16.9881 19.8237 17.2991 19.5339 17.6741 19.5339H23.1625C23.5375 19.5339 23.8486 19.8325 23.8486 20.1926C23.8486 20.5527 23.5375 20.8513 23.1625 20.8513Z" fill="#1FCB4F"/>
<path d="M24.2695 13.8954C24.5073 14.1325 24.2969 14.4839 23.9493 14.4839H16.787C15.7899 14.4839 14.8569 14.7649 14.0794 15.2479C13.7227 15.4675 13.2378 15.2304 13.4116 14.8527C13.9239 13.7022 15.1222 12.903 16.5034 12.903H21.6442C22.7053 12.903 23.6475 13.2631 24.2695 13.8954Z" fill="#1FCB4F"/>
</svg>
