<svg width="41" height="41" viewBox="0 0 41 41" fill="none" xmlns="http://www.w3.org/2000/svg">
<rect x="0.155396" y="0.121155" width="39.9667" height="39.9667" rx="8.32639" fill="#282C35"/>
<path d="M20.0216 12.4708L17.8078 17.3978H15.5939C15.2265 17.3978 14.8682 17.4242 14.5192 17.4944L15.4378 15.3866L15.4745 15.3075L15.5296 15.167C15.5572 15.1055 15.5756 15.0529 15.6031 15.0089C16.6687 12.6464 17.8629 11.9087 20.0216 12.4708Z" fill="#D79B00"/>
<path d="M26.2588 17.635L26.2405 17.6262C25.6893 17.4769 25.129 17.3979 24.5594 17.3979H18.809L20.8758 12.8046L20.9034 12.7431C21.032 12.787 21.1698 12.8485 21.3076 12.8924L23.3377 13.7092C24.4676 14.1571 25.2576 14.6226 25.7444 15.1847C25.8271 15.2901 25.9006 15.3867 25.9741 15.5008C26.0568 15.6238 26.1211 15.7468 26.1578 15.8785C26.1945 15.9575 26.2221 16.0278 26.2405 16.1068C26.3783 16.5548 26.3874 17.0641 26.2588 17.635Z" fill="#D79B00"/>
<path d="M20.5543 26.0399H20.7839C21.0595 26.0399 21.2891 25.8028 21.2891 25.513C21.2891 25.1441 21.1789 25.0914 20.9401 25.0036L20.5543 24.8718V26.0399Z" fill="#D79B00"/>
<path d="M25.8548 18.8909C25.4414 18.7767 25.0097 18.7152 24.5596 18.7152H15.594C14.9693 18.7152 14.3814 18.8294 13.8303 19.0577C12.2319 19.7164 11.1112 21.2358 11.1112 23.0011V24.7137C11.1112 24.9245 11.1296 25.1265 11.1571 25.3373C11.3592 28.1302 12.9209 29.6232 15.842 29.8076C16.0533 29.834 16.2646 29.8516 16.4942 29.8516H23.6593C27.0582 29.8516 28.8495 28.3058 29.024 25.2319C29.0332 25.065 29.0424 24.8894 29.0424 24.7137V23.0011C29.0424 21.0602 27.692 19.4266 25.8548 18.8909ZM21.2526 24.1429C21.6752 24.2834 22.2447 24.582 22.2447 25.5129C22.2447 26.3122 21.5925 26.9533 20.7841 26.9533H20.5545V27.1465C20.5545 27.4012 20.3432 27.6032 20.0768 27.6032C19.8104 27.6032 19.5991 27.4012 19.5991 27.1465V26.9533H19.5164C18.6346 26.9533 17.9089 26.2419 17.9089 25.3636C17.9089 25.1089 18.1202 24.907 18.3866 24.907C18.653 24.907 18.8642 25.1089 18.8642 25.3636C18.8642 25.7325 19.1582 26.0399 19.5164 26.0399H19.5991V24.5556L18.901 24.3185C18.4784 24.178 17.9089 23.8794 17.9089 22.9484C17.9089 22.1492 18.5611 21.5081 19.3695 21.5081H19.5991V21.3149C19.5991 21.0602 19.8104 20.8582 20.0768 20.8582C20.3432 20.8582 20.5545 21.0602 20.5545 21.3149V21.5081H20.6371C21.519 21.5081 22.2447 22.2195 22.2447 23.0977C22.2447 23.3524 22.0334 23.5544 21.767 23.5544C21.5006 23.5544 21.2893 23.3524 21.2893 23.0977C21.2893 22.7289 20.9954 22.4215 20.6371 22.4215H20.5545V23.9057L21.2526 24.1429Z" fill="#D79B00"/>
<path d="M18.8641 22.9485C18.8641 23.3174 18.9744 23.3701 19.2132 23.4579L19.599 23.5896V22.4215H19.3694C19.0846 22.4215 18.8641 22.6587 18.8641 22.9485Z" fill="#D79B00"/>
</svg>
