<svg width="42" height="43" viewBox="0 0 42 43" fill="none" xmlns="http://www.w3.org/2000/svg">
<g id="Group 138">
<rect id="Rectangle 501" x="0.611797" y="0.783386" width="41.3251" height="41.3251" rx="8.60939" fill="#282C35"/>
<g id="Icon/wallet">
<path id="Vector" d="M21.223 13.0173L19.1482 17.8472H17.0733C16.7289 17.8472 16.3932 17.873 16.066 17.9419L16.9269 15.8756L16.9614 15.7981L17.013 15.6604C17.0389 15.6001 17.0561 15.5484 17.0819 15.5054C18.0806 13.1895 19.1998 12.4663 21.223 13.0173Z" fill="#FFE6E1"/>
<path id="Vector_2" d="M27.0687 18.0797L27.0515 18.0711C26.5349 17.9248 26.0098 17.8473 25.476 17.8473H20.0865L22.0236 13.3446L22.0495 13.2843C22.17 13.3273 22.2991 13.3876 22.4283 13.4307L24.3309 14.2313C25.3899 14.6704 26.1303 15.1267 26.5866 15.6777C26.6641 15.781 26.733 15.8757 26.8018 15.9877C26.8793 16.1082 26.9396 16.2287 26.974 16.3579C27.0085 16.4353 27.0343 16.5042 27.0515 16.5817C27.1807 17.0208 27.1893 17.5201 27.0687 18.0797Z" fill="#FFE6E1"/>
<path id="Vector_3" d="M21.7222 26.3188H21.9374C22.1957 26.3188 22.411 26.0864 22.411 25.8023C22.411 25.4407 22.3077 25.389 22.0838 25.3029L21.7222 25.1738V26.3188Z" fill="#FFE6E1"/>
<path id="Vector_4" d="M26.69 19.3108C26.3026 19.1989 25.898 19.1386 25.4761 19.1386H17.0733C16.4879 19.1386 15.9369 19.2505 15.4203 19.4744C13.9223 20.1201 12.8719 21.6095 12.8719 23.34V25.0188C12.8719 25.2255 12.8892 25.4235 12.915 25.6301C13.1044 28.3679 14.568 29.8315 17.3058 30.0123C17.5038 30.0381 17.7018 30.0553 17.917 30.0553H24.6324C27.8178 30.0553 29.4967 28.5401 29.6603 25.5268C29.6689 25.3632 29.6775 25.191 29.6775 25.0188V23.34C29.6775 21.4373 28.4119 19.836 26.69 19.3108ZM22.3767 24.4592C22.7727 24.597 23.3065 24.8897 23.3065 25.8023C23.3065 26.5857 22.6953 27.2142 21.9376 27.2142H21.7224V27.4036C21.7224 27.6533 21.5244 27.8513 21.2747 27.8513C21.025 27.8513 20.827 27.6533 20.827 27.4036V27.2142H20.7495C19.923 27.2142 19.2429 26.5169 19.2429 25.6559C19.2429 25.4062 19.4409 25.2082 19.6906 25.2082C19.9403 25.2082 20.1383 25.4062 20.1383 25.6559C20.1383 26.0175 20.4138 26.3188 20.7495 26.3188H20.827V24.8639L20.1727 24.6314C19.7767 24.4937 19.2429 24.2009 19.2429 23.2883C19.2429 22.5049 19.8542 21.8764 20.6118 21.8764H20.827V21.687C20.827 21.4373 21.025 21.2393 21.2747 21.2393C21.5244 21.2393 21.7224 21.4373 21.7224 21.687V21.8764H21.7999C22.6264 21.8764 23.3065 22.5738 23.3065 23.4347C23.3065 23.6844 23.1085 23.8824 22.8588 23.8824C22.6092 23.8824 22.4111 23.6844 22.4111 23.4347C22.4111 23.0731 22.1356 22.7718 21.7999 22.7718H21.7224V24.2268L22.3767 24.4592Z" fill="#FFE6E1"/>
<path id="Vector_5" d="M20.1382 23.2884C20.1382 23.6499 20.2415 23.7016 20.4654 23.7877L20.827 23.9168V22.7718H20.6117C20.3448 22.7718 20.1382 23.0042 20.1382 23.2884Z" fill="#FFE6E1"/>
</g>
</g>
</svg>
