<svg width="35" height="34" viewBox="0 0 35 34" fill="none" xmlns="http://www.w3.org/2000/svg">
<rect width="34.4376" height="33.3834" rx="8.60939" fill="#282C35"/>
<path d="M22.7981 17.9841V23.1827C22.7981 25.4397 21.2832 26.9347 19.0205 26.9347H12.9804C10.7178 26.9347 9.20288 25.4397 9.20288 23.1827V15.6885C9.20288 13.4316 10.7178 11.9366 12.9804 11.9366H16.6997C17.6999 11.9366 18.6612 12.3321 19.3701 13.0362L21.691 15.3317C22.3999 16.0358 22.7981 16.9906 22.7981 17.9841Z" fill="#0FB700"/>
<path d="M28.6246 13.7016V18.9002C28.6246 21.1475 27.1097 22.6522 24.8471 22.6522H23.7692V17.984C23.7692 16.7397 23.2642 15.5245 22.3805 14.6468L20.0596 12.3513C19.1759 11.4736 17.9524 10.972 16.6997 10.972H15.0488C15.2236 8.96584 16.69 7.64447 18.8069 7.64447H22.5262C23.5264 7.64447 24.4878 8.03992 25.1967 8.74401L27.5176 11.0492C28.2265 11.7533 28.6246 12.7081 28.6246 13.7016Z" fill="#0FB700"/>
</svg>
