<svg width="36" height="34" viewBox="0 0 36 34" fill="none" xmlns="http://www.w3.org/2000/svg">
<rect x="0.781738" y="0.255615" width="34.4376" height="33.3834" rx="8.60939" fill="#282C35"/>
<path d="M25.1293 18.2397V23.4384C25.1293 25.6953 23.6847 27.1903 21.5271 27.1903H15.7673C13.6097 27.1903 12.1651 25.6953 12.1651 23.4384V15.9442C12.1651 13.6872 13.6097 12.1923 15.7673 12.1923H19.3139C20.2677 12.1923 21.1844 12.5877 21.8604 13.2918L24.0736 15.5873C24.7496 16.2914 25.1293 17.2463 25.1293 18.2397Z" fill="#FFF8E5"/>
<path d="M30.6854 13.9572V19.1559C30.6854 21.4032 29.2408 22.9078 27.0832 22.9078H26.0553V18.2396C26.0553 16.9954 25.5738 15.7801 24.7311 14.9024L22.5179 12.6069C21.6752 11.7292 20.5085 11.2276 19.3139 11.2276H17.7397C17.9064 9.22146 19.3046 7.90009 21.3234 7.90009H24.87C25.8238 7.90009 26.7405 8.29553 27.4165 8.99962L29.6297 11.3048C30.3057 12.0089 30.6854 12.9637 30.6854 13.9572Z" fill="#FFF8E5"/>
</svg>
