<svg width="42" height="42" viewBox="0 0 42 42" fill="none" xmlns="http://www.w3.org/2000/svg">
<g id="Group 137">
<rect id="Rectangle 501" x="0.645786" y="0.468506" width="41.3251" height="41.3251" rx="8.60939" fill="#282C35"/>
<g id="Icon/card">
<path id="Vector" d="M29.9173 17.2999C29.9173 17.8682 29.4524 18.3331 28.8842 18.3331H13.7316C13.1634 18.3331 12.6985 17.8682 12.6985 17.2999V17.2913C12.6985 15.3198 14.2912 13.7271 16.2628 13.7271H26.3444C28.3159 13.7271 29.9173 15.3284 29.9173 17.2999Z" fill="#FFE6E1"/>
<path id="Vector_2" d="M12.6985 20.6576V24.9709C12.6985 26.9424 14.2912 28.5352 16.2628 28.5352H26.3444C28.3159 28.5352 29.9173 26.9338 29.9173 24.9623V20.6576C29.9173 20.0894 29.4524 19.6245 28.8842 19.6245H13.7316C13.1634 19.6245 12.6985 20.0894 12.6985 20.6576ZM17.8641 25.651H16.1423C15.7893 25.651 15.4965 25.3583 15.4965 25.0053C15.4965 24.6523 15.7893 24.3596 16.1423 24.3596H17.8641C18.2171 24.3596 18.5098 24.6523 18.5098 25.0053C18.5098 25.3583 18.2171 25.651 17.8641 25.651ZM23.4602 25.651H20.0165C19.6635 25.651 19.3708 25.3583 19.3708 25.0053C19.3708 24.6523 19.6635 24.3596 20.0165 24.3596H23.4602C23.8132 24.3596 24.1059 24.6523 24.1059 25.0053C24.1059 25.3583 23.8132 25.651 23.4602 25.651Z" fill="#FFE6E1"/>
</g>
</g>
</svg>
