<svg width="22" height="22" viewBox="0 0 22 22" fill="none" xmlns="http://www.w3.org/2000/svg">
<path d="M10.971 18.7762C8.89139 18.7762 6.81184 18.446 4.83938 17.7855C4.08967 17.5267 3.51846 17.0001 3.26856 16.3129C3.00973 15.6256 3.09898 14.867 3.50953 14.1887L4.53593 12.484C4.75013 12.127 4.94648 11.413 4.94648 10.9935V8.41412C4.94648 5.09397 7.6508 2.38965 10.971 2.38965C14.2911 2.38965 16.9954 5.09397 16.9954 8.41412V10.9935C16.9954 11.404 17.1918 12.127 17.406 12.4929L18.4234 14.1887C18.8072 14.8313 18.8786 15.6078 18.6198 16.3129C18.361 17.018 17.7987 17.5535 17.0936 17.7855C15.1301 18.446 13.0505 18.7762 10.971 18.7762ZM10.971 3.72842C8.39159 3.72842 6.28525 5.82583 6.28525 8.41412V10.9935C6.28525 11.645 6.0175 12.6089 5.68727 13.1712L4.66088 14.8759C4.46452 15.2061 4.41097 15.5542 4.527 15.8488C4.6341 16.1522 4.90186 16.3843 5.26779 16.5092C8.9985 17.7587 12.9523 17.7587 16.683 16.5092C17.0043 16.4021 17.2542 16.1611 17.3703 15.8398C17.4863 15.5185 17.4595 15.1704 17.281 14.8759L16.2546 13.1712C15.9155 12.5911 15.6566 11.6361 15.6566 10.9846V8.41412C15.6566 5.82583 13.5592 3.72842 10.971 3.72842Z" fill="#9E9E9E"/>
<path d="M12.6311 3.96938C12.5687 3.96938 12.5062 3.96046 12.4437 3.94261C12.1849 3.8712 11.935 3.81765 11.694 3.78195C10.9354 3.68378 10.2035 3.73733 9.51627 3.94261C9.26636 4.02293 8.99861 3.94261 8.82903 3.75518C8.65945 3.56775 8.6059 3.3 8.70408 3.05902C9.07001 2.12188 9.96252 1.50604 10.98 1.50604C11.9975 1.50604 12.89 2.11295 13.2559 3.05902C13.3452 3.3 13.3005 3.56775 13.1309 3.75518C12.9971 3.89798 12.8096 3.96938 12.6311 3.96938Z" fill="#9E9E9E"/>
<path d="M10.9711 20.8112C10.0875 20.8112 9.23067 20.4542 8.60591 19.8294C7.98115 19.2046 7.62415 18.3478 7.62415 17.4642H8.96292C8.96292 17.9908 9.17712 18.5085 9.55198 18.8833C9.92683 19.2582 10.4445 19.4724 10.9711 19.4724C12.0778 19.4724 12.9792 18.571 12.9792 17.4642H14.318C14.318 19.3117 12.8186 20.8112 10.9711 20.8112Z" fill="#9E9E9E"/>
<circle cx="15.4158" cy="4.91546" r="2.23129" fill="#1FCB4F" stroke="#1A1C22" stroke-width="0.892514"/>
</svg>
