<svg width="22" height="22" viewBox="0 0 22 22" fill="none" xmlns="http://www.w3.org/2000/svg">
<path d="M11.2423 14.4548C9.46201 14.4548 8.01712 12.9653 8.01712 11.1301C8.01712 9.2948 9.46201 7.8053 11.2423 7.8053C13.0226 7.8053 14.4675 9.2948 14.4675 11.1301C14.4675 12.9653 13.0226 14.4548 11.2423 14.4548ZM11.2423 9.13521C10.1758 9.13521 9.3072 10.0307 9.3072 11.1301C9.3072 12.2295 10.1758 13.1249 11.2423 13.1249C12.3088 13.1249 13.1774 12.2295 13.1774 11.1301C13.1774 10.0307 12.3088 9.13521 11.2423 9.13521Z" fill="#A9A9A9"/>
<path d="M14.0031 20.1646C13.8225 20.1646 13.6419 20.138 13.4612 20.0937C12.928 19.943 12.4808 19.5972 12.197 19.1095L12.0938 18.9322C11.5863 18.0279 10.8897 18.0279 10.3823 18.9322L10.2877 19.1007C10.0038 19.5972 9.55661 19.9518 9.02338 20.0937C8.48155 20.2444 7.92252 20.1646 7.44949 19.872L5.9702 18.9943C5.44557 18.684 5.06715 18.1786 4.90374 17.5669C4.74893 16.9551 4.82633 16.3256 5.12735 15.7848C5.37676 15.3326 5.44557 14.9248 5.29936 14.6676C5.15315 14.4105 4.78333 14.2598 4.2759 14.2598C3.02023 14.2598 1.99677 13.2047 1.99677 11.9103V10.3499C1.99677 9.05543 3.02023 8.00037 4.2759 8.00037C4.78333 8.00037 5.15315 7.84965 5.29936 7.59253C5.44557 7.33542 5.38537 6.92758 5.12735 6.47541C4.82633 5.93458 4.74893 5.29622 4.90374 4.69333C5.05855 4.08157 5.43697 3.5762 5.9702 3.26589L7.45809 2.38815C8.42995 1.79413 9.71142 2.1399 10.2963 3.1595L10.3995 3.33682C10.9069 4.24116 11.6035 4.24116 12.111 3.33682L12.2056 3.16837C12.7904 2.1399 14.0719 1.79413 15.0523 2.39702L16.5316 3.27476C17.0563 3.58507 17.4347 4.09044 17.5981 4.70219C17.7529 5.31395 17.6755 5.94344 17.3745 6.48427C17.1251 6.93644 17.0563 7.34428 17.2025 7.6014C17.3487 7.85851 17.7185 8.00924 18.2259 8.00924C19.4816 8.00924 20.5051 9.0643 20.5051 10.3587V11.9192C20.5051 13.2136 19.4816 14.2687 18.2259 14.2687C17.7185 14.2687 17.3487 14.4194 17.2025 14.6765C17.0563 14.9336 17.1165 15.3415 17.3745 15.7936C17.6755 16.3345 17.7615 16.9728 17.5981 17.5757C17.4433 18.1875 17.0649 18.6928 16.5316 19.0032L15.0437 19.8809C14.7169 20.0671 14.3643 20.1646 14.0031 20.1646ZM11.2423 16.8842C12.0078 16.8842 12.7216 17.3807 13.2118 18.2584L13.3064 18.4269C13.4096 18.613 13.5816 18.746 13.7881 18.7992C13.9945 18.8524 14.2009 18.8258 14.3729 18.7194L15.8608 17.8328C16.0844 17.6998 16.2564 17.4782 16.3252 17.2122C16.394 16.9462 16.3596 16.6714 16.2306 16.4409C15.7404 15.572 15.6802 14.6765 16.0586 13.9938C16.437 13.3111 17.2197 12.921 18.2001 12.921C18.7506 12.921 19.1892 12.4689 19.1892 11.9014V10.341C19.1892 9.78245 18.7506 9.32141 18.2001 9.32141C17.2197 9.32141 16.437 8.93131 16.0586 8.24862C15.6802 7.56593 15.7404 6.67046 16.2306 5.80159C16.3596 5.57107 16.394 5.29622 16.3252 5.03024C16.2564 4.76426 16.093 4.55147 15.8694 4.40961L14.3815 3.53187C14.0117 3.30136 13.5214 3.43435 13.2978 3.82445L13.2032 3.99291C12.713 4.87065 11.9992 5.36715 11.2337 5.36715C10.4683 5.36715 9.75442 4.87065 9.26419 3.99291L9.16959 3.81559C8.95458 3.44321 8.47295 3.31022 8.10313 3.53187L6.61524 4.41848C6.39162 4.55147 6.21961 4.77312 6.15081 5.0391C6.08201 5.30509 6.11641 5.57993 6.24542 5.81045C6.73565 6.67933 6.79585 7.5748 6.41743 8.25749C6.039 8.94017 5.25636 9.33028 4.2759 9.33028C3.72547 9.33028 3.28684 9.78245 3.28684 10.3499V11.9103C3.28684 12.4689 3.72547 12.9299 4.2759 12.9299C5.25636 12.9299 6.039 13.32 6.41743 14.0027C6.79585 14.6854 6.73565 15.5809 6.24542 16.4497C6.11641 16.6802 6.08201 16.9551 6.15081 17.2211C6.21961 17.4871 6.38302 17.6998 6.60664 17.8417L8.09453 18.7194C8.27514 18.8347 8.49015 18.8613 8.68796 18.8081C8.89437 18.7549 9.06638 18.613 9.17819 18.4269L9.2728 18.2584C9.76302 17.3895 10.4769 16.8842 11.2423 16.8842Z" fill="#A9A9A9"/>
</svg>
