<svg width="23" height="24" viewBox="0 0 23 24" fill="none" xmlns="http://www.w3.org/2000/svg">
<path d="M11.4689 12.2974C8.5334 12.2974 6.14429 9.80901 6.14429 6.75153C6.14429 3.69405 8.5334 1.20563 11.4689 1.20563C14.4043 1.20563 16.7934 3.69405 16.7934 6.75153C16.7934 9.80901 14.4043 12.2974 11.4689 12.2974ZM11.4689 2.65238C9.30199 2.65238 7.53331 4.49459 7.53331 6.75153C7.53331 9.00847 9.30199 10.8507 11.4689 10.8507C13.6357 10.8507 15.4044 9.00847 15.4044 6.75153C15.4044 4.49459 13.6357 2.65238 11.4689 2.65238Z" fill="#A9A9A9"/>
<path d="M19.4235 21.9425C19.0438 21.9425 18.7289 21.6146 18.7289 21.2191C18.7289 17.8916 15.4694 15.191 11.469 15.191C7.46862 15.191 4.20906 17.8916 4.20906 21.2191C4.20906 21.6146 3.89421 21.9425 3.51455 21.9425C3.13488 21.9425 2.82004 21.6146 2.82004 21.2191C2.82004 17.1007 6.70003 13.7442 11.469 13.7442C16.238 13.7442 20.118 17.1007 20.118 21.2191C20.118 21.6146 19.8031 21.9425 19.4235 21.9425Z" fill="#A9A9A9"/>
</svg>
