<svg width="17" height="17" viewBox="0 0 17 17" fill="none" xmlns="http://www.w3.org/2000/svg">
<path d="M8.43829 14.6896C4.65626 14.6896 1.57709 11.6105 1.57709 7.82842C1.57709 4.0464 4.65626 0.967224 8.43829 0.967224C12.2203 0.967224 15.2995 4.0464 15.2995 7.82842C15.2995 11.6105 12.2203 14.6896 8.43829 14.6896ZM8.43829 1.9713C5.20516 1.9713 2.58117 4.60199 2.58117 7.82842C2.58117 11.0549 5.20516 13.6855 8.43829 13.6855C11.6714 13.6855 14.2954 11.0549 14.2954 7.82842C14.2954 4.60199 11.6714 1.9713 8.43829 1.9713Z" fill="#9E9E9E"/>
<path d="M15.4668 15.359C15.3396 15.359 15.2124 15.3121 15.112 15.2117L13.7732 13.873C13.5791 13.6788 13.5791 13.3575 13.7732 13.1634C13.9673 12.9693 14.2886 12.9693 14.4828 13.1634L15.8215 14.5022C16.0157 14.6963 16.0157 15.0176 15.8215 15.2117C15.7211 15.3121 15.5939 15.359 15.4668 15.359Z" fill="#9E9E9E"/>
</svg>
