<svg width="25" height="25" viewBox="0 0 25 25" fill="none" xmlns="http://www.w3.org/2000/svg">
<path d="M22.3934 8.82441V4.23564C22.3934 2.8105 21.7659 2.23438 20.2069 2.23438H16.2458C14.6869 2.23438 14.0594 2.8105 14.0594 4.23564V8.81431C14.0594 10.2496 14.6869 10.8156 16.2458 10.8156H20.2069C21.7659 10.8257 22.3934 10.2496 22.3934 8.82441Z" fill="#1FCB4F"/>
<path d="M22.3934 20.1953V16.1119C22.3934 14.5048 21.7659 13.858 20.2069 13.858H16.2458C14.6869 13.858 14.0594 14.5048 14.0594 16.1119V20.1953C14.0594 21.8024 14.6869 22.4493 16.2458 22.4493H20.2069C21.7659 22.4493 22.3934 21.8024 22.3934 20.1953Z" fill="#1FCB4F"/>
<path d="M11.118 8.82441V4.23564C11.118 2.8105 10.4905 2.23438 8.93152 2.23438H4.97043C3.41148 2.23438 2.78398 2.8105 2.78398 4.23564V8.81431C2.78398 10.2496 3.41148 10.8156 4.97043 10.8156H8.93152C10.4905 10.8257 11.118 10.2496 11.118 8.82441Z" fill="#1FCB4F"/>
<path d="M11.118 20.1953V16.1119C11.118 14.5048 10.4905 13.858 8.93152 13.858H4.97043C3.41148 13.858 2.78398 14.5048 2.78398 16.1119V20.1953C2.78398 21.8024 3.41148 22.4493 4.97043 22.4493H8.93152C10.4905 22.4493 11.118 21.8024 11.118 20.1953Z" fill="#1FCB4F"/>
</svg>
