<svg width="53" height="54" viewBox="0 0 53 54" fill="none" xmlns="http://www.w3.org/2000/svg">
<rect x="0.775879" y="0.9776" width="52.1509" height="52.1509" rx="10.8648" fill="#282C35"/>
<path d="M26.7866 16.4164L24.1682 22.5116H21.5497C21.1152 22.5116 20.6914 22.5442 20.2786 22.6311L21.365 20.0235L21.4085 19.9258L21.4737 19.7519C21.5063 19.6759 21.528 19.6107 21.5606 19.5564C22.8209 16.6337 24.2333 15.7211 26.7866 16.4164Z" fill="#1FCB4F"/>
<path d="M34.1636 22.805L34.1419 22.7942C33.49 22.6095 32.8273 22.5117 32.1536 22.5117H25.3523L27.7969 16.8294L27.8295 16.7534C27.9816 16.8077 28.1445 16.8837 28.3075 16.9381L30.7086 17.9485C32.045 18.5026 32.9794 19.0784 33.5552 19.7738C33.653 19.9041 33.7399 20.0237 33.8268 20.1649C33.9246 20.317 34.0007 20.4691 34.0441 20.6321C34.0876 20.7299 34.1202 20.8168 34.1419 20.9146C34.3049 21.4687 34.3157 22.0988 34.1636 22.805Z" fill="#1FCB4F"/>
<path d="M27.4167 33.2025H27.6884C28.0143 33.2025 28.2859 32.9092 28.2859 32.5506C28.2859 32.0943 28.1556 32.0291 27.8731 31.9205L27.4167 31.7575V33.2025Z" fill="#1FCB4F"/>
<path d="M33.6858 24.3586C33.1969 24.2174 32.6862 24.1413 32.1538 24.1413H21.5498C20.811 24.1413 20.1157 24.2825 19.4638 24.565C17.5733 25.3799 16.2478 27.2595 16.2478 29.4433V31.5619C16.2478 31.8227 16.2695 32.0726 16.3021 32.3333C16.5412 35.7883 18.3882 37.6353 21.8432 37.8635C22.0931 37.8961 22.3429 37.9178 22.6146 37.9178H31.0891C35.1091 37.9178 37.2277 36.0056 37.4341 32.203C37.445 31.9965 37.4558 31.7792 37.4558 31.5619V29.4433C37.4558 27.0422 35.8587 25.0213 33.6858 24.3586ZM28.2425 30.8557C28.7423 31.0296 29.4159 31.399 29.4159 32.5506C29.4159 33.5393 28.6445 34.3325 27.6884 34.3325H27.4168V34.5715C27.4168 34.8866 27.1669 35.1364 26.8518 35.1364C26.5367 35.1364 26.2869 34.8866 26.2869 34.5715V34.3325H26.1891C25.1461 34.3325 24.2877 33.4524 24.2877 32.3659C24.2877 32.0509 24.5376 31.801 24.8527 31.801C25.1678 31.801 25.4177 32.0509 25.4177 32.3659C25.4177 32.8223 25.7653 33.2025 26.1891 33.2025H26.2869V31.3664L25.4611 31.073C24.9614 30.8992 24.2877 30.5298 24.2877 29.3781C24.2877 28.3894 25.0591 27.5963 26.0152 27.5963H26.2869V27.3573C26.2869 27.0422 26.5367 26.7923 26.8518 26.7923C27.1669 26.7923 27.4168 27.0422 27.4168 27.3573V27.5963H27.5146C28.5576 27.5963 29.4159 28.4763 29.4159 29.5628C29.4159 29.8779 29.166 30.1278 28.8509 30.1278C28.5359 30.1278 28.286 29.8779 28.286 29.5628C28.286 29.1065 27.9383 28.7262 27.5146 28.7262H27.4168V30.5624L28.2425 30.8557Z" fill="#1FCB4F"/>
<path d="M25.4175 29.3782C25.4175 29.8345 25.5479 29.8997 25.8303 30.0084L26.2867 30.1713V28.7263H26.015C25.6782 28.7263 25.4175 29.0197 25.4175 29.3782Z" fill="#1FCB4F"/>
</svg>
