<svg width="45" height="45" viewBox="0 0 45 45" fill="none" xmlns="http://www.w3.org/2000/svg">
<rect x="0.130737" y="0.539978" width="44.4487" height="44.4487" rx="9.26013" fill="#282C35"/>
<path d="M31.6145 18.6436C31.6145 19.2548 31.1145 19.7548 30.5033 19.7548H14.2055C13.5943 19.7548 13.0942 19.2548 13.0942 18.6436V18.6344C13.0942 16.5138 14.8074 14.8007 16.9279 14.8007H27.7716C29.8921 14.8007 31.6145 16.523 31.6145 18.6436Z" fill="#FFE6E1"/>
<path d="M13.0942 22.255V26.8943C13.0942 29.0149 14.8074 30.728 16.9279 30.728H27.7716C29.8921 30.728 31.6145 29.0057 31.6145 26.8851V22.255C31.6145 21.6438 31.1145 21.1438 30.5033 21.1438H14.2055C13.5943 21.1438 13.0942 21.6438 13.0942 22.255ZM18.6503 27.6259H16.7983C16.4186 27.6259 16.1038 27.311 16.1038 26.9314C16.1038 26.5517 16.4186 26.2369 16.7983 26.2369H18.6503C19.03 26.2369 19.3448 26.5517 19.3448 26.9314C19.3448 27.311 19.03 27.6259 18.6503 27.6259ZM24.6694 27.6259H20.9654C20.5857 27.6259 20.2708 27.311 20.2708 26.9314C20.2708 26.5517 20.5857 26.2369 20.9654 26.2369H24.6694C25.0491 26.2369 25.3639 26.5517 25.3639 26.9314C25.3639 27.311 25.0491 27.6259 24.6694 27.6259Z" fill="#FFE6E1"/>
</svg>
