<svg width="38" height="37" viewBox="0 0 38 37" fill="none" xmlns="http://www.w3.org/2000/svg">
<rect x="0.579346" y="0.735779" width="37.0405" height="35.9067" rx="9.26013" fill="#282C35"/>
<path d="M22.8039 18.9073V23.8978C22.8039 26.0644 21.3593 27.4995 19.2017 27.4995H13.4419C11.2843 27.4995 9.83972 26.0644 9.83972 23.8978V16.7037C9.83972 14.5371 11.2843 13.102 13.4419 13.102H16.9885C17.9423 13.102 18.8591 13.4816 19.5351 14.1575L21.7483 16.3611C22.4242 17.037 22.8039 17.9536 22.8039 18.9073Z" fill="#FFF8E5"/>
<path d="M28.3601 14.7963V19.7869C28.3601 21.9442 26.9155 23.3886 24.7579 23.3886H23.73V18.9073C23.73 17.7129 23.2485 16.5462 22.4058 15.7037L20.1927 13.5001C19.35 12.6575 18.1832 12.1761 16.9887 12.1761H15.4144C15.5811 10.2502 16.9794 8.98175 18.9981 8.98175H22.5447C23.4985 8.98175 24.4153 9.36136 25.0913 10.0373L27.3044 12.2501C27.9804 12.926 28.3601 13.8427 28.3601 14.7963Z" fill="#FFF8E5"/>
</svg>
