<svg width="27" height="26" viewBox="0 0 27 26" fill="none" xmlns="http://www.w3.org/2000/svg">
<path d="M24.0282 9.16133V4.3686C24.0282 2.88011 23.3526 2.27838 21.6741 2.27838H17.4092C15.7307 2.27838 15.0551 2.88011 15.0551 4.3686V9.15077C15.0551 10.6498 15.7307 11.241 17.4092 11.241H21.6741C23.3526 11.2515 24.0282 10.6498 24.0282 9.16133Z" fill="white"/>
<path d="M24.0282 21.0377V16.7728C24.0282 15.0943 23.3526 14.4186 21.6741 14.4186H17.4092C15.7307 14.4186 15.0551 15.0943 15.0551 16.7728V21.0377C15.0551 22.7162 15.7307 23.3918 17.4092 23.3918H21.6741C23.3526 23.3918 24.0282 22.7162 24.0282 21.0377Z" fill="white"/>
<path d="M11.8881 9.16133V4.3686C11.8881 2.88011 11.2125 2.27838 9.53395 2.27838H5.26905C3.59054 2.27838 2.91492 2.88011 2.91492 4.3686V9.15077C2.91492 10.6498 3.59054 11.241 5.26905 11.241H9.53395C11.2125 11.2515 11.8881 10.6498 11.8881 9.16133Z" fill="white"/>
<path d="M11.8881 21.0377V16.7728C11.8881 15.0943 11.2125 14.4186 9.53395 14.4186H5.26905C3.59054 14.4186 2.91492 15.0943 2.91492 16.7728V21.0377C2.91492 22.7162 3.59054 23.3918 5.26905 23.3918H9.53395C11.2125 23.3918 11.8881 22.7162 11.8881 21.0377Z" fill="white"/>
</svg>
