<svg width="24" height="24" viewBox="0 0 24 24" fill="none" xmlns="http://www.w3.org/2000/svg">
<path d="M11.9699 20.3876C9.73318 20.3876 7.49643 20.0324 5.37489 19.322C4.56851 19.0436 3.95413 18.4772 3.68533 17.7381C3.40694 16.9989 3.50294 16.1829 3.94453 15.4533L5.0485 13.6198C5.27889 13.2358 5.49009 12.4678 5.49009 12.0166V9.24228C5.49009 5.67117 8.39881 2.76245 11.9699 2.76245C15.541 2.76245 18.4497 5.67117 18.4497 9.24228V12.0166C18.4497 12.4582 18.6609 13.2358 18.8913 13.6294L19.9857 15.4533C20.3985 16.1445 20.4753 16.9797 20.1969 17.7381C19.9185 18.4964 19.3137 19.0724 18.5553 19.322C16.4434 20.0324 14.2067 20.3876 11.9699 20.3876ZM11.9699 4.20241C9.19559 4.20241 6.93005 6.45835 6.93005 9.24228V12.0166C6.93005 12.7174 6.64206 13.7542 6.28687 14.3589L5.1829 16.1925C4.9717 16.5477 4.9141 16.9221 5.0389 17.2389C5.1541 17.5653 5.44209 17.8149 5.83568 17.9493C9.84837 19.2932 14.1011 19.2932 18.1138 17.9493C18.4593 17.8341 18.7281 17.5749 18.8529 17.2293C18.9777 16.8837 18.9489 16.5093 18.7569 16.1925L17.653 14.3589C17.2882 13.735 17.0098 12.7078 17.0098 12.007V9.24228C17.0098 6.45835 14.7538 4.20241 11.9699 4.20241Z" fill="#9E9E9E"/>
<path d="M13.7558 4.46154C13.6886 4.46154 13.6214 4.45194 13.5542 4.43274C13.2758 4.35595 13.007 4.29835 12.7478 4.25995C11.9318 4.15435 11.1446 4.21195 10.4055 4.43274C10.1367 4.51914 9.84867 4.43274 9.66627 4.23115C9.48388 4.02955 9.42628 3.74156 9.53187 3.48237C9.92546 2.47439 10.8854 1.81201 11.9798 1.81201C13.0742 1.81201 14.0342 2.46479 14.4277 3.48237C14.5237 3.74156 14.4757 4.02955 14.2933 4.23115C14.1494 4.38474 13.9478 4.46154 13.7558 4.46154Z" fill="#9E9E9E"/>
<path d="M11.9703 22.5762C11.0199 22.5762 10.0983 22.1922 9.42633 21.5203C8.75435 20.8483 8.37036 19.9267 8.37036 18.9763H9.81032C9.81032 19.5427 10.0407 20.0995 10.4439 20.5027C10.8471 20.9059 11.4039 21.1363 11.9703 21.1363C13.1606 21.1363 14.1302 20.1667 14.1302 18.9763H15.5702C15.5702 20.9635 13.9574 22.5762 11.9703 22.5762Z" fill="#9E9E9E"/>
<circle cx="16.751" cy="5.47911" r="2.39994" fill="#1FCB4F" stroke="#1A1C22" stroke-width="0.959975"/>
</svg>
