<svg width="19" height="18" viewBox="0 0 19 18" fill="none" xmlns="http://www.w3.org/2000/svg">
<path d="M9.17351 16.2187C5.10561 16.2187 1.7937 12.9068 1.7937 8.83891C1.7937 4.77102 5.10561 1.45911 9.17351 1.45911C13.2414 1.45911 16.5533 4.77102 16.5533 8.83891C16.5533 12.9068 13.2414 16.2187 9.17351 16.2187ZM9.17351 2.53908C5.696 2.53908 2.87367 5.3686 2.87367 8.83891C2.87367 12.3092 5.696 15.1387 9.17351 15.1387C12.651 15.1387 15.4733 12.3092 15.4733 8.83891C15.4733 5.3686 12.651 2.53908 9.17351 2.53908Z" fill="#9E9E9E"/>
<path d="M16.7335 16.9387C16.5967 16.9387 16.4599 16.8883 16.3519 16.7803L14.912 15.3403C14.7032 15.1315 14.7032 14.7859 14.912 14.5771C15.1208 14.3683 15.4664 14.3683 15.6751 14.5771L17.1151 16.0171C17.3239 16.2259 17.3239 16.5715 17.1151 16.7803C17.0071 16.8883 16.8703 16.9387 16.7335 16.9387Z" fill="#9E9E9E"/>
</svg>
