<svg width="27" height="27" viewBox="0 0 27 27" fill="none" xmlns="http://www.w3.org/2000/svg">
<path d="M23.9557 9.89251V5.1066C23.9557 3.62022 23.281 3.01935 21.6049 3.01935H17.346C15.6699 3.01935 14.9952 3.62022 14.9952 5.1066V9.88197C14.9952 11.3789 15.6699 11.9692 17.346 11.9692H21.6049C23.281 11.9798 23.9557 11.3789 23.9557 9.89251Z" fill="white"/>
<path d="M23.9557 21.752V17.4931C23.9557 15.817 23.281 15.1423 21.6049 15.1423H17.346C15.6699 15.1423 14.9952 15.817 14.9952 17.4931V21.752C14.9952 23.4281 15.6699 24.1027 17.346 24.1027H21.6049C23.281 24.1027 23.9557 23.4281 23.9557 21.752Z" fill="white"/>
<path d="M11.8329 9.89251V5.1066C11.8329 3.62022 11.1582 3.01935 9.48206 3.01935H5.22323C3.5471 3.01935 2.87244 3.62022 2.87244 5.1066V9.88197C2.87244 11.3789 3.5471 11.9692 5.22323 11.9692H9.48206C11.1582 11.9798 11.8329 11.3789 11.8329 9.89251Z" fill="white"/>
<path d="M11.8329 21.752V17.4931C11.8329 15.817 11.1582 15.1423 9.48206 15.1423H5.22323C3.5471 15.1423 2.87244 15.817 2.87244 17.4931V21.752C2.87244 23.4281 3.5471 24.1027 5.22323 24.1027H9.48206C11.1582 24.1027 11.8329 23.4281 11.8329 21.752Z" fill="white"/>
</svg>
