<svg width="45" height="45" viewBox="0 0 45 45" fill="none" xmlns="http://www.w3.org/2000/svg">
<rect x="0.100708" y="0.0531616" width="44.3855" height="44.3855" rx="9.24697" fill="#282C35"/>
<path d="M31.5398 18.131C31.5398 18.7413 31.0405 19.2406 30.4302 19.2406H14.1555C13.5452 19.2406 13.0459 18.7413 13.0459 18.131V18.1218C13.0459 16.0042 14.7566 14.2935 16.8741 14.2935H27.7024C29.8199 14.2935 31.5398 16.0135 31.5398 18.131Z" fill="white"/>
<path d="M13.0459 21.7373V26.3701C13.0459 28.4876 14.7566 30.1983 16.8741 30.1983H27.7024C29.8199 30.1983 31.5398 28.4784 31.5398 26.3608V21.7373C31.5398 21.127 31.0405 20.6277 30.4302 20.6277H14.1555C13.5452 20.6277 13.0459 21.127 13.0459 21.7373ZM18.5941 27.1006H16.7447C16.3656 27.1006 16.0512 26.7862 16.0512 26.407C16.0512 26.0279 16.3656 25.7135 16.7447 25.7135H18.5941C18.9732 25.7135 19.2876 26.0279 19.2876 26.407C19.2876 26.7862 18.9732 27.1006 18.5941 27.1006ZM24.6046 27.1006H20.9058C20.5267 27.1006 20.2123 26.7862 20.2123 26.407C20.2123 26.0279 20.5267 25.7135 20.9058 25.7135H24.6046C24.9837 25.7135 25.2981 26.0279 25.2981 26.407C25.2981 26.7862 24.9837 27.1006 24.6046 27.1006Z" fill="white"/>
</svg>
