<svg width="24" height="23" viewBox="0 0 24 23" fill="none" xmlns="http://www.w3.org/2000/svg">
<path d="M7.39648 16.2561H9.44092V9.61296H7.39648V16.2561Z" fill="#9197B5"/>
<path d="M7.31214 7.73846C7.31214 8.41952 7.68142 8.76068 8.4187 8.76068C9.15726 8.76068 9.52526 8.4208 9.52526 7.73974C9.52526 7.05869 9.15598 6.71624 8.4187 6.71624C8.12741 6.70823 7.84466 6.81517 7.63159 7.01396C7.52914 7.10446 7.44753 7.21609 7.39238 7.34116C7.33723 7.46624 7.30986 7.60179 7.31214 7.73846Z" fill="#9197B5"/>
<path d="M14.9366 16.2561H17.0233H17.0245V12.3385C17.0245 11.4006 16.8048 10.6837 16.3626 10.1867C15.9231 9.68963 15.3494 9.44174 14.6376 9.44174C13.701 9.44174 13.02 9.79568 12.551 10.5061L12.4233 9.61296H10.6344C10.6612 10.0104 10.6765 10.7195 10.6765 11.7417V16.2561H12.7631V12.4228C12.7631 12.1685 12.7925 11.9973 12.8475 11.9117C13.02 11.3725 13.3739 11.1029 13.9131 11.1029C14.5942 11.1029 14.9366 11.5859 14.9366 12.5506V16.2561Z" fill="#9197B5"/>
<circle cx="12.1675" cy="11.5" r="11" stroke="#9197B5"/>
</svg>
