<svg width="23" height="23" viewBox="0 0 23 23" fill="none" xmlns="http://www.w3.org/2000/svg">
<path d="M10.725 13.3568C10.4318 14.9392 10.0753 16.4572 9.01266 17.2507C8.68606 14.8587 9.49451 13.0601 9.86941 11.1522C9.23001 10.0436 9.94646 7.81032 11.2954 8.36117C12.9572 9.03737 9.85791 12.4851 11.9394 12.9152C14.1106 13.366 14.9984 9.03507 13.6506 7.62517C11.7048 5.59197 7.98456 7.57917 8.44226 10.491C8.55381 11.204 9.26796 11.419 8.72746 12.4011C7.48201 12.1171 7.11056 11.1051 7.15771 9.75612C7.23476 7.54812 9.08396 6.00367 10.9401 5.78862C13.2861 5.51837 15.4872 6.67642 15.7919 8.94882C16.1335 11.5133 14.7328 14.2917 12.2235 14.0916C11.545 14.0376 11.2575 13.6891 10.725 13.3556V13.3568Z" fill="#9197B5"/>
<circle cx="11.5" cy="11.5" r="11" stroke="#9197B5"/>
</svg>
