<svg width="24" height="23" viewBox="0 0 24 23" fill="none" xmlns="http://www.w3.org/2000/svg">
<path d="M17.5825 7.97895C17.1593 8.16295 16.7051 8.28945 16.2278 8.34465C16.7154 8.05715 17.088 7.60175 17.2651 7.0601C16.8005 7.33089 16.2935 7.52139 15.7655 7.6236C15.5434 7.39081 15.2762 7.2057 14.9803 7.07956C14.6843 6.95342 14.3657 6.88889 14.044 6.8899C12.741 6.8899 11.6853 7.93065 11.6853 9.2129C11.6853 9.3946 11.706 9.5717 11.7463 9.7419C10.8117 9.69752 9.89663 9.45882 9.05947 9.04103C8.2223 8.62324 7.48141 8.03553 6.88407 7.3154C6.67427 7.66857 6.56381 8.07187 6.56437 8.48265C6.56437 9.28765 6.98182 10.0007 7.61432 10.4158C7.23993 10.4041 6.87356 10.3044 6.54482 10.1249V10.1536C6.54837 10.6935 6.73894 11.2154 7.08407 11.6306C7.42921 12.0458 7.90757 12.3285 8.43772 12.4306C8.08968 12.5226 7.72551 12.536 7.37167 12.4697C7.52592 12.9342 7.82094 13.3391 8.2158 13.6282C8.61065 13.9173 9.08573 14.0763 9.57507 14.0832C8.73553 14.7301 7.70475 15.0796 6.64487 15.0768C6.45512 15.0768 6.26767 15.0653 6.08252 15.0446C7.16406 15.7291 8.41813 16.0917 9.69812 16.0899C14.0382 16.0899 16.4107 12.5502 16.4107 9.4797L16.4026 9.1784C16.8653 8.85328 17.265 8.44687 17.5825 7.97895V7.97895Z" fill="#9197B5"/>
<circle cx="11.8325" cy="11.5" r="11" stroke="#9197B5"/>
</svg>
