<svg width="18" height="18" viewBox="0 0 18 18" fill="none" xmlns="http://www.w3.org/2000/svg">
<path d="M8.42937 16.1472C4.36726 16.1472 1.06006 12.84 1.06006 8.7779C1.06006 4.71579 4.36726 1.40858 8.42937 1.40858C12.4915 1.40858 15.7987 4.71579 15.7987 8.7779C15.7987 12.84 12.4915 16.1472 8.42937 16.1472ZM8.42937 2.48702C4.95681 2.48702 2.13849 5.31252 2.13849 8.7779C2.13849 12.2433 4.95681 15.0688 8.42937 15.0688C11.9019 15.0688 14.7203 12.2433 14.7203 8.7779C14.7203 5.31252 11.9019 2.48702 8.42937 2.48702Z" fill="#9E9E9E"/>
<path d="M15.9788 16.8661C15.8422 16.8661 15.7056 16.8158 15.5977 16.708L14.1598 15.27C13.9513 15.0615 13.9513 14.7164 14.1598 14.508C14.3683 14.2995 14.7134 14.2995 14.9219 14.508L16.3598 15.9459C16.5683 16.1544 16.5683 16.4995 16.3598 16.708C16.252 16.8158 16.1154 16.8661 15.9788 16.8661Z" fill="#9E9E9E"/>
</svg>
