<svg width="32" height="32" viewBox="0 0 32 32" fill="none" xmlns="http://www.w3.org/2000/svg">
<path d="M16.3118 21.1053C13.6298 21.1053 11.4531 18.9286 11.4531 16.2466C11.4531 13.5646 13.6298 11.3879 16.3118 11.3879C18.9938 11.3879 21.1705 13.5646 21.1705 16.2466C21.1705 18.9286 18.9938 21.1053 16.3118 21.1053ZM16.3118 13.3314C14.7052 13.3314 13.3966 14.64 13.3966 16.2466C13.3966 17.8532 14.7052 19.1618 16.3118 19.1618C17.9184 19.1618 19.2271 17.8532 19.2271 16.2466C19.2271 14.64 17.9184 13.3314 16.3118 13.3314Z" fill="#1FEB33"/>
<path d="M20.4708 29.4493C20.1987 29.4493 19.9266 29.4104 19.6545 29.3456C18.8512 29.1254 18.1775 28.6201 17.7499 27.9075L17.5944 27.6483C16.83 26.3268 15.7805 26.3268 15.0161 27.6483L14.8735 27.8945C14.446 28.6201 13.7722 29.1383 12.9689 29.3456C12.1527 29.5659 11.3105 29.4493 10.5979 29.0217L8.36935 27.739C7.579 27.2855 7.00891 26.547 6.76274 25.653C6.52952 24.759 6.64613 23.8391 7.09961 23.0488C7.47535 22.388 7.579 21.792 7.35874 21.4162C7.13848 21.0405 6.58135 20.8202 5.81691 20.8202C3.92525 20.8202 2.38342 19.2784 2.38342 17.3867V15.1064C2.38342 13.2147 3.92525 11.6729 5.81691 11.6729C6.58135 11.6729 7.13848 11.4526 7.35874 11.0769C7.579 10.7012 7.48831 10.1051 7.09961 9.44436C6.64613 8.65401 6.52952 7.72114 6.76274 6.8401C6.99596 5.94609 7.56605 5.20757 8.36935 4.75409L10.6108 3.47139C12.0749 2.6033 14.0055 3.10861 14.8865 4.59861L15.042 4.85774C15.8064 6.17931 16.8559 6.17931 17.6203 4.85774L17.7629 4.61157C18.6439 3.10861 20.5744 2.6033 22.0515 3.48435L24.28 4.76705C25.0704 5.22053 25.6404 5.95905 25.8866 6.85305C26.1198 7.74705 26.0032 8.66697 25.5497 9.45732C25.174 10.1181 25.0704 10.7141 25.2906 11.0898C25.5109 11.4656 26.068 11.6858 26.8324 11.6858C28.7241 11.6858 30.2659 13.2277 30.2659 15.1193V17.3997C30.2659 19.2913 28.7241 20.8332 26.8324 20.8332C26.068 20.8332 25.5109 21.0534 25.2906 21.4292C25.0704 21.8049 25.161 22.4009 25.5497 23.0617C26.0032 23.8521 26.1328 24.7849 25.8866 25.666C25.6534 26.56 25.0833 27.2985 24.28 27.752L22.0385 29.0347C21.5462 29.3068 21.015 29.4493 20.4708 29.4493ZM16.3117 24.6554C17.4649 24.6554 18.5402 25.3809 19.2788 26.6636L19.4213 26.9098C19.5768 27.1819 19.8359 27.3762 20.1469 27.454C20.4578 27.5317 20.7688 27.4929 21.0279 27.3374L23.2694 26.0417C23.6063 25.8474 23.8654 25.5235 23.969 25.1348C24.0727 24.7461 24.0209 24.3444 23.8265 24.0075C23.088 22.7378 22.9973 21.4292 23.5674 20.4315C24.1375 19.4339 25.3165 18.8638 26.7936 18.8638C27.6228 18.8638 28.2836 18.203 28.2836 17.3738V15.0934C28.2836 14.2772 27.6228 13.6034 26.7936 13.6034C25.3165 13.6034 24.1375 13.0333 23.5674 12.0357C22.9973 11.038 23.088 9.72941 23.8265 8.45967C24.0209 8.1228 24.0727 7.72114 23.969 7.33244C23.8654 6.94375 23.6192 6.63279 23.2823 6.42549L21.0409 5.14279C20.4837 4.80592 19.7452 5.00026 19.4083 5.57035L19.2658 5.81653C18.5273 7.09923 17.4519 7.82479 16.2988 7.82479C15.1456 7.82479 14.0702 7.09923 13.3317 5.81653L13.1892 5.5574C12.8653 5.01322 12.1397 4.81887 11.5826 5.14279L9.34109 6.43844C9.00422 6.63279 8.74509 6.9567 8.64144 7.3454C8.53779 7.7341 8.58961 8.13575 8.78396 8.47262C9.52249 9.74237 9.61318 11.051 9.04309 12.0486C8.473 13.0463 7.29396 13.6164 5.81691 13.6164C4.98769 13.6164 4.32691 14.2772 4.32691 15.1064V17.3867C4.32691 18.203 4.98769 18.8767 5.81691 18.8767C7.29396 18.8767 8.473 19.4468 9.04309 20.4445C9.61318 21.4421 9.52249 22.7508 8.78396 24.0205C8.58961 24.3574 8.53779 24.759 8.64144 25.1477C8.74509 25.5364 8.99127 25.8474 9.32814 26.0547L11.5696 27.3374C11.8417 27.5058 12.1656 27.5447 12.4636 27.4669C12.7746 27.3892 13.0337 27.1819 13.2021 26.9098L13.3447 26.6636C14.0832 25.3939 15.1586 24.6554 16.3117 24.6554Z" fill="#1FEB33"/>
</svg>
