<svg width="24" height="24" viewBox="0 0 24 24" fill="none" xmlns="http://www.w3.org/2000/svg">
<path d="M12.0612 20.3143C9.82763 20.3143 7.59407 19.9596 5.47554 19.2503C4.6703 18.9723 4.05679 18.4067 3.78838 17.6686C3.51039 16.9304 3.60625 16.1156 4.04721 15.3871L5.14961 13.5561C5.37968 13.1727 5.59057 12.4058 5.59057 11.9553V9.18487C5.59057 5.61884 8.49516 2.71425 12.0612 2.71425C15.6272 2.71425 18.5318 5.61884 18.5318 9.18487V11.9553C18.5318 12.3962 18.7427 13.1727 18.9728 13.5657L20.0656 15.3871C20.4778 16.0773 20.5545 16.9113 20.2765 17.6686C19.9985 18.4259 19.3946 19.001 18.6373 19.2503C16.5283 19.9596 14.2948 20.3143 12.0612 20.3143ZM12.0612 4.15216C9.29081 4.15216 7.02849 6.4049 7.02849 9.18487V11.9553C7.02849 12.655 6.7409 13.6903 6.38622 14.2943L5.28381 16.1252C5.07292 16.4799 5.0154 16.8537 5.14002 17.1701C5.25506 17.496 5.54264 17.7453 5.93567 17.8795C9.94266 19.2215 14.1893 19.2215 18.1963 17.8795C18.5414 17.7644 18.8098 17.5056 18.9344 17.1605C19.059 16.8154 19.0303 16.4415 18.8386 16.1252L17.7362 14.2943C17.3719 13.6712 17.0939 12.6454 17.0939 11.9457V9.18487C17.0939 6.4049 14.8412 4.15216 12.0612 4.15216Z" fill="#9E9E9E"/>
<path d="M13.8442 4.41096C13.7771 4.41096 13.71 4.40138 13.6429 4.3822C13.3649 4.30552 13.0965 4.248 12.8376 4.20965C12.0228 4.10421 11.2367 4.16172 10.4986 4.3822C10.2302 4.46848 9.94262 4.3822 9.76049 4.1809C9.57835 3.97959 9.52083 3.692 9.62628 3.43318C10.0193 2.42664 10.9779 1.7652 12.0707 1.7652C13.1636 1.7652 14.1222 2.41705 14.5152 3.43318C14.6111 3.692 14.5631 3.97959 14.381 4.1809C14.2372 4.33427 14.0359 4.41096 13.8442 4.41096Z" fill="#9E9E9E"/>
<path d="M12.0613 22.4999C11.1123 22.4999 10.1921 22.1165 9.52102 21.4455C8.85 20.7744 8.46655 19.8542 8.46655 18.9052H9.90447C9.90447 19.4707 10.1345 20.0267 10.5372 20.4293C10.9398 20.832 11.4958 21.062 12.0613 21.062C13.25 21.062 14.2182 20.0938 14.2182 18.9052H15.6561C15.6561 20.8895 14.0457 22.4999 12.0613 22.4999Z" fill="#9E9E9E"/>
<circle cx="16.8353" cy="5.42713" r="2.39653" fill="#1FCB4F" stroke="#1A1C22" stroke-width="0.95861"/>
</svg>
