<svg width="23" height="23" viewBox="0 0 23 23" fill="none" xmlns="http://www.w3.org/2000/svg">
<path d="M11.4258 12.3405C8.48614 12.3405 6.09363 9.95418 6.09363 7.02211C6.09363 4.09003 8.48614 1.70367 11.4258 1.70367C14.3654 1.70367 16.7579 4.09003 16.7579 7.02211C16.7579 9.95418 14.3654 12.3405 11.4258 12.3405ZM11.4258 3.09109C9.25582 3.09109 7.48462 4.85774 7.48462 7.02211C7.48462 9.18648 9.25582 10.9531 11.4258 10.9531C13.5957 10.9531 15.3669 9.18648 15.3669 7.02211C15.3669 4.85774 13.5957 3.09109 11.4258 3.09109Z" fill="#A9A9A9"/>
<path d="M19.3917 21.5899C19.0115 21.5899 18.6962 21.2755 18.6962 20.8962C18.6962 17.7052 15.432 15.1153 11.4259 15.1153C7.41984 15.1153 4.15564 17.7052 4.15564 20.8962C4.15564 21.2755 3.84035 21.5899 3.46015 21.5899C3.07994 21.5899 2.76465 21.2755 2.76465 20.8962C2.76465 16.9467 6.65016 13.7279 11.4259 13.7279C16.2017 13.7279 20.0872 16.9467 20.0872 20.8962C20.0872 21.2755 19.7719 21.5899 19.3917 21.5899Z" fill="#A9A9A9"/>
</svg>
