<svg width="45" height="45" viewBox="0 0 45 45" fill="none" xmlns="http://www.w3.org/2000/svg">
<rect x="-0.0100098" y="0.318726" width="44.3855" height="44.3855" rx="9.24697" fill="#282C35"/>
<path d="M22.1278 13.4587L19.8993 18.6462H17.6708C17.3009 18.6462 16.9403 18.674 16.5889 18.7479L17.5136 16.5287L17.5506 16.4454L17.606 16.2975C17.6338 16.2328 17.6523 16.1773 17.68 16.131C18.7527 13.6436 19.9548 12.8669 22.1278 13.4587Z" fill="white"/>
<path d="M28.4063 18.8959L28.3878 18.8867C27.833 18.7295 27.2689 18.6463 26.6956 18.6463H20.907L22.9876 13.8101L23.0153 13.7454C23.1447 13.7916 23.2835 13.8563 23.4222 13.9026L25.4657 14.7625C26.6031 15.2341 27.3984 15.7242 27.8884 16.316C27.9717 16.427 28.0456 16.5287 28.1196 16.6489C28.2028 16.7784 28.2676 16.9078 28.3046 17.0465C28.3415 17.1298 28.3693 17.2037 28.3878 17.287C28.5265 17.7585 28.5357 18.2949 28.4063 18.8959Z" fill="white"/>
<path d="M22.6638 27.7444H22.8948C23.172 27.7444 23.403 27.4949 23.403 27.1899C23.403 26.8018 23.2922 26.7464 23.0519 26.654L22.6638 26.5154V27.7444Z" fill="white"/>
<path d="M27.9996 20.2182C27.5835 20.098 27.1489 20.0333 26.6958 20.0333H17.6707C17.0419 20.0333 16.4501 20.1535 15.8953 20.3939C14.2863 21.0874 13.1582 22.6871 13.1582 24.5458V26.3489C13.1582 26.5709 13.1767 26.7836 13.2044 27.0055C13.4079 29.946 14.9799 31.518 17.9204 31.7122C18.1331 31.7399 18.3458 31.7584 18.5769 31.7584H25.7896C29.2109 31.7584 31.0141 30.131 31.1898 26.8945C31.199 26.7188 31.2083 26.5339 31.2083 26.3489V24.5458C31.2083 22.5022 29.849 20.7823 27.9996 20.2182ZM23.3669 25.7479C23.7922 25.8958 24.3655 26.2102 24.3655 27.1904C24.3655 28.0319 23.709 28.7069 22.8953 28.7069H22.6641V28.9104C22.6641 29.1785 22.4514 29.3912 22.1832 29.3912C21.9151 29.3912 21.7024 29.1785 21.7024 28.9104V28.7069H21.6192C20.7315 28.7069 20.001 27.9579 20.001 27.0332C20.001 26.7651 20.2136 26.5524 20.4818 26.5524C20.75 26.5524 20.9626 26.7651 20.9626 27.0332C20.9626 27.4216 21.2586 27.7452 21.6192 27.7452H21.7024V26.1825L20.9996 25.9328C20.5743 25.7849 20.001 25.4705 20.001 24.4903C20.001 23.6488 20.6575 22.9738 21.4712 22.9738H21.7024V22.7704C21.7024 22.5022 21.9151 22.2895 22.1832 22.2895C22.4514 22.2895 22.6641 22.5022 22.6641 22.7704V22.9738H22.7473C23.635 22.9738 24.3655 23.7228 24.3655 24.6475C24.3655 24.9157 24.1529 25.1283 23.8847 25.1283C23.6165 25.1283 23.4038 24.9157 23.4038 24.6475C23.4038 24.2591 23.1079 23.9355 22.7473 23.9355H22.6641V25.4982L23.3669 25.7479Z" fill="white"/>
<path d="M20.9626 24.49C20.9626 24.8781 21.0735 24.9335 21.3138 25.0259L21.7019 25.1645V23.9356H21.4709C21.1844 23.9356 20.9626 24.1851 20.9626 24.49Z" fill="white"/>
</svg>
