<svg width="38" height="36" viewBox="0 0 38 36" fill="none" xmlns="http://www.w3.org/2000/svg">
<rect x="0.542969" y="0.119263" width="36.9879" height="35.8556" rx="9.24697" fill="#282C35"/>
<path d="M22.7362 18.3265V23.3107C22.7362 25.4744 21.2936 26.9077 19.1391 26.9077H13.3875C11.2329 26.9077 9.79041 25.4744 9.79041 23.3107V16.1258C9.79041 13.962 11.2329 12.5287 13.3875 12.5287H16.9291C17.8815 12.5287 18.797 12.9078 19.472 13.5828L21.682 15.7836C22.357 16.4586 22.7362 17.3741 22.7362 18.3265Z" fill="white"/>
<path d="M28.2844 14.2209V19.205C28.2844 21.3595 26.8419 22.802 24.6874 22.802H23.661V18.3265C23.661 17.1337 23.1801 15.9685 22.3386 15.1271L20.1286 12.9263C19.2871 12.0848 18.122 11.604 16.9292 11.604H15.3572C15.5236 9.68059 16.9199 8.41376 18.9358 8.41376H22.4773C23.4298 8.41376 24.3452 8.79288 25.0203 9.46791L27.2303 11.6779C27.9053 12.353 28.2844 13.2684 28.2844 14.2209Z" fill="white"/>
</svg>
