<svg width="369" height="370" viewBox="0 0 369 370" fill="none" xmlns="http://www.w3.org/2000/svg">
<path d="M245.36 47.8569C229.269 57.0627 217.924 72.5429 204.166 84.9663C187.176 100.306 166.123 111.104 143.753 115.95C125.349 119.936 106.058 119.993 88.2909 126.232C53.6594 138.393 29.8871 174.487 29.2566 211.185C28.626 247.884 49.5355 283.435 80.22 303.577C90.6397 310.417 102.115 315.646 114.113 319.023C136.683 325.376 160.612 325.094 183.933 322.666C224.216 318.472 266.442 295.599 291.828 263.348C303.152 248.962 312.711 233.199 320.327 216.553C332.832 189.22 340.115 159.466 341.36 129.421C342.429 103.604 341.338 74.9957 320.882 56.1873C300.471 37.421 269.37 34.1201 245.36 47.8569Z" fill="#92E3A9"/>
<path opacity="0.7" d="M245.36 47.8569C229.269 57.0627 217.924 72.5429 204.166 84.9663C187.176 100.306 166.123 111.104 143.753 115.95C125.349 119.936 106.058 119.993 88.2909 126.232C53.6594 138.393 29.8871 174.487 29.2566 211.185C28.626 247.884 49.5355 283.435 80.22 303.577C90.6397 310.417 102.115 315.646 114.113 319.023C136.683 325.376 160.612 325.094 183.933 322.666C224.216 318.472 266.442 295.599 291.828 263.348C303.152 248.962 312.711 233.199 320.327 216.553C332.832 189.22 340.115 159.466 341.36 129.421C342.429 103.604 341.338 74.9957 320.882 56.1873C300.471 37.421 269.37 34.1201 245.36 47.8569Z" fill="white"/>
<path d="M203.026 343.371C276.067 343.371 335.279 327.424 335.279 307.754C335.279 288.083 276.067 272.137 203.026 272.137C129.985 272.137 70.7729 288.083 70.7729 307.754C70.7729 327.424 129.985 343.371 203.026 343.371Z" fill="#92E3A9"/>
<path opacity="0.5" d="M203.026 343.371C276.067 343.371 335.279 327.424 335.279 307.754C335.279 288.083 276.067 272.137 203.026 272.137C129.985 272.137 70.7729 288.083 70.7729 307.754C70.7729 327.424 129.985 343.371 203.026 343.371Z" fill="white"/>
<path d="M225.749 57.753V144.91C225.749 148.556 222.794 151.511 219.148 151.511H63.6666C60.0206 151.511 57.0656 148.556 57.0656 144.91V57.753C57.0656 54.107 60.0206 51.1519 63.6666 51.1519H219.148C222.794 51.1519 225.749 54.107 225.749 57.753Z" fill="white"/>
<path d="M225.749 57.753V60.3666H57.0656V57.753C57.0656 54.107 60.0206 51.1519 63.6666 51.1519H219.148C222.794 51.1519 225.749 54.107 225.749 57.753Z" fill="#92E3A9"/>
<path d="M225.749 57.753V144.91C225.749 148.556 222.794 151.511 219.148 151.511H63.6666C60.0206 151.511 57.0656 148.556 57.0656 144.91V57.753C57.0656 54.107 60.0206 51.1519 63.6666 51.1519H219.148C222.794 51.1519 225.749 54.107 225.749 57.753Z" stroke="#263238" stroke-width="0.737468" stroke-miterlimit="10" stroke-linecap="round" stroke-linejoin="round"/>
<path d="M225.749 57.753V60.3666H57.0656V57.753C57.0656 54.107 60.0206 51.1519 63.6666 51.1519H219.148C222.794 51.1519 225.749 54.107 225.749 57.753Z" stroke="#263238" stroke-width="0.737468" stroke-miterlimit="10" stroke-linecap="round" stroke-linejoin="round"/>
<path d="M76.009 55.7588C76.009 56.6895 75.2546 57.444 74.3239 57.444C73.3932 57.444 72.6388 56.6895 72.6388 55.7588C72.6388 54.8282 73.3932 54.0737 74.3239 54.0737C75.2546 54.0737 76.009 54.8282 76.009 55.7588Z" fill="#263238"/>
<path d="M84.8225 55.7588C84.8225 56.6895 84.0681 57.444 83.1374 57.444C82.2067 57.444 81.4523 56.6895 81.4523 55.7588C81.4523 54.8282 82.2067 54.0737 83.1374 54.0737C84.0681 54.0737 84.8225 54.8282 84.8225 55.7588Z" fill="#263238"/>
<path d="M91.9509 57.444C92.8815 57.444 93.636 56.6895 93.636 55.7588C93.636 54.8282 92.8815 54.0737 91.9509 54.0737C91.0202 54.0737 90.2657 54.8282 90.2657 55.7588C90.2657 56.6895 91.0202 57.444 91.9509 57.444Z" fill="#263238"/>
<path d="M117.481 96.0556H69.7906C68.2876 96.0556 67.0693 94.8373 67.0693 93.3343V70.3924C67.0693 68.8894 68.2876 67.6711 69.7906 67.6711H117.481C118.984 67.6711 120.202 68.8894 120.202 70.3924V93.3343C120.202 94.8373 118.984 96.0556 117.481 96.0556Z" stroke="#263238" stroke-width="0.737468" stroke-miterlimit="10" stroke-linecap="round" stroke-linejoin="round"/>
<path d="M70.1934 92.487H116.265" stroke="#263238" stroke-width="0.737468" stroke-miterlimit="10" stroke-linecap="round" stroke-linejoin="round"/>
<path d="M78.9588 87.0673H73.6136V92.4125H78.9588V87.0673Z" fill="#92E3A9" stroke="#263238" stroke-width="0.737468" stroke-miterlimit="10"/>
<path d="M86.7841 80.0393H81.439V92.487H86.7841V80.0393Z" fill="#92E3A9" stroke="#263238" stroke-width="0.737468" stroke-miterlimit="10"/>
<path d="M95.5976 82.1801H90.2524V92.6123H95.5976V82.1801Z" fill="#92E3A9" stroke="#263238" stroke-width="0.737468" stroke-miterlimit="10"/>
<path d="M104.857 71.7899H99.5114V92.2554H104.857V71.7899Z" fill="#92E3A9" stroke="#263238" stroke-width="0.737468" stroke-miterlimit="10"/>
<path d="M114.115 71.9471H108.77V92.4126H114.115V71.9471Z" fill="#92E3A9" stroke="#263238" stroke-width="0.737468" stroke-miterlimit="10"/>
<path d="M186.075 97.5261C194.33 97.5261 201.023 90.8335 201.023 82.5776C201.023 74.3218 194.33 67.6292 186.075 67.6292C177.819 67.6292 171.126 74.3218 171.126 82.5776C171.126 90.8335 177.819 97.5261 186.075 97.5261Z" fill="#92E3A9" stroke="#263238" stroke-width="0.737468" stroke-miterlimit="10"/>
<path d="M187.3 91.9029V93.4339H184.794V91.9029C182.679 91.3741 181.315 89.5924 181.315 87.2539V86.5577L184.154 86.2517V86.9751C184.154 88.3947 184.878 89.2576 186.047 89.2576C187.216 89.2576 187.94 88.5341 187.94 87.3925C187.94 86.0282 186.66 84.8593 185.156 83.6064C183.375 82.1314 181.593 80.377 181.593 77.8998C181.593 75.478 182.762 73.7523 184.794 73.2508V71.7198H187.3V73.2508C189.359 73.7243 190.556 75.45 190.556 77.9271V78.4279L187.717 78.7339V78.1771C187.717 76.6742 187.132 75.8947 186.103 75.8947C185.073 75.8947 184.488 76.5348 184.488 77.7597C184.488 79.124 185.797 80.2649 187.272 81.5459C189.026 83.0488 190.835 84.7753 190.835 87.2524C190.835 89.6197 189.443 91.4014 187.3 91.9029Z" fill="#263238"/>
<path d="M65.8253 110.56H70.1933" stroke="#263238" stroke-width="0.737468" stroke-miterlimit="10" stroke-linecap="round" stroke-linejoin="round"/>
<path d="M65.8253 118.997H70.1933" stroke="#263238" stroke-width="0.737468" stroke-miterlimit="10" stroke-linecap="round" stroke-linejoin="round"/>
<path d="M65.8253 127.435H70.1933" stroke="#263238" stroke-width="0.737468" stroke-miterlimit="10" stroke-linecap="round" stroke-linejoin="round"/>
<path d="M65.8253 135.872H70.1933" stroke="#263238" stroke-width="0.737468" stroke-miterlimit="10" stroke-linecap="round" stroke-linejoin="round"/>
<path d="M79.8143 142.249V138.857" stroke="#263238" stroke-width="0.737468" stroke-miterlimit="10" stroke-linecap="round" stroke-linejoin="round"/>
<path d="M86.734 142.249V138.857" stroke="#263238" stroke-width="0.737468" stroke-miterlimit="10" stroke-linecap="round" stroke-linejoin="round"/>
<path d="M93.6537 142.249V138.857" stroke="#263238" stroke-width="0.737468" stroke-miterlimit="10" stroke-linecap="round" stroke-linejoin="round"/>
<path d="M100.573 142.249V138.857" stroke="#263238" stroke-width="0.737468" stroke-miterlimit="10" stroke-linecap="round" stroke-linejoin="round"/>
<path d="M107.492 142.249V138.857" stroke="#263238" stroke-width="0.737468" stroke-miterlimit="10" stroke-linecap="round" stroke-linejoin="round"/>
<path d="M114.411 142.249V138.857" stroke="#263238" stroke-width="0.737468" stroke-miterlimit="10" stroke-linecap="round" stroke-linejoin="round"/>
<path d="M121.331 142.249V138.857" stroke="#263238" stroke-width="0.737468" stroke-miterlimit="10" stroke-linecap="round" stroke-linejoin="round"/>
<path d="M128.25 142.249V138.857" stroke="#263238" stroke-width="0.737468" stroke-miterlimit="10" stroke-linecap="round" stroke-linejoin="round"/>
<path d="M135.169 142.249V138.857" stroke="#263238" stroke-width="0.737468" stroke-miterlimit="10" stroke-linecap="round" stroke-linejoin="round"/>
<path d="M142.088 142.249V138.857" stroke="#263238" stroke-width="0.737468" stroke-miterlimit="10" stroke-linecap="round" stroke-linejoin="round"/>
<path d="M149.008 142.249V138.857" stroke="#263238" stroke-width="0.737468" stroke-miterlimit="10" stroke-linecap="round" stroke-linejoin="round"/>
<path d="M155.928 142.249V138.857" stroke="#263238" stroke-width="0.737468" stroke-miterlimit="10" stroke-linecap="round" stroke-linejoin="round"/>
<path d="M162.847 142.249V138.857" stroke="#263238" stroke-width="0.737468" stroke-miterlimit="10" stroke-linecap="round" stroke-linejoin="round"/>
<path d="M169.766 142.249V138.857" stroke="#263238" stroke-width="0.737468" stroke-miterlimit="10" stroke-linecap="round" stroke-linejoin="round"/>
<path d="M176.685 142.249V138.857" stroke="#263238" stroke-width="0.737468" stroke-miterlimit="10" stroke-linecap="round" stroke-linejoin="round"/>
<path d="M183.342 142.249V138.857" stroke="#263238" stroke-width="0.737468" stroke-miterlimit="10" stroke-linecap="round" stroke-linejoin="round"/>
<path d="M189.999 142.249V138.857" stroke="#263238" stroke-width="0.737468" stroke-miterlimit="10" stroke-linecap="round" stroke-linejoin="round"/>
<path d="M196.657 142.249V138.857" stroke="#263238" stroke-width="0.737468" stroke-miterlimit="10" stroke-linecap="round" stroke-linejoin="round"/>
<path d="M214.267 105.393V138.184C214.267 140.43 211.981 142.248 209.16 142.248H70.9329C69.0575 142.248 67.4144 141.445 66.5309 140.245C66.0848 139.641 65.8259 138.937 65.8259 138.184V105.393C65.8259 103.148 68.1121 101.329 70.9336 101.329H209.161C211.981 101.329 214.267 103.148 214.267 105.393Z" stroke="#92E3A9" stroke-width="0.737468" stroke-miterlimit="10" stroke-linecap="round" stroke-linejoin="round"/>
<path d="M172.199 41.893L128.075 101.329L111.2 124.059L92.7681 112.321L70.2155 142.249H69.8888C68.3969 142.249 67.0894 141.446 66.3859 140.245L91.7304 106.609L110.147 118.332L122.766 101.329L168.773 39.3568L172.199 41.893Z" fill="#263238"/>
<path d="M161.002 42.6466L177.224 32.8125L172.737 49.8185L169.878 41.9512L161.002 42.6466Z" fill="#263238"/>
<path d="M314.475 229.785H55.1164L26.0476 255.631" stroke="#263238" stroke-width="0.737468" stroke-miterlimit="10" stroke-linecap="round" stroke-linejoin="round"/>
<path d="M55.2802 211.685V161.426" stroke="#263238" stroke-width="0.737468" stroke-miterlimit="10" stroke-linecap="round" stroke-linejoin="round"/>
<path d="M55.2802 226.867V217.146" stroke="#263238" stroke-width="0.737468" stroke-miterlimit="10" stroke-linecap="round" stroke-linejoin="round"/>
<path d="M298.864 107.513C298.864 107.513 298.864 104.476 294.609 100.222C290.355 95.9672 287.626 93.5416 287.626 93.5416C287.626 93.5416 285.499 100.525 289.445 104.778C292.349 107.778 295.499 110.528 298.863 113V107.513H298.864Z" fill="#92E3A9"/>
<path d="M292.693 126.484C292.693 126.484 292.693 123.447 288.439 119.192C284.184 114.938 281.456 112.513 281.456 112.513C281.456 112.513 279.329 119.496 283.275 123.75C286.181 126.748 289.331 129.498 292.693 131.972V126.484Z" fill="#92E3A9"/>
<path d="M298.597 112.687C298.597 112.687 298.915 109.666 303.596 105.884C308.277 102.102 311.246 99.9803 311.246 99.9803C311.246 99.9803 312.623 107.174 308.246 110.961C305.042 113.63 301.62 116.026 298.016 118.123L298.597 112.687Z" fill="#92E3A9"/>
<path d="M291.142 135.09C291.142 135.09 291.779 132.12 296.825 128.852C301.87 125.585 305.046 123.781 305.046 123.781C305.046 123.781 305.662 131.057 300.935 134.391C297.469 136.706 293.815 138.727 290.011 140.433L291.142 135.09Z" fill="#92E3A9"/>
<path d="M292.544 159.512C292.544 159.512 292.544 156.475 296.794 152.226C301.043 147.976 303.782 145.546 303.782 145.546C303.782 145.546 305.909 152.534 301.958 156.783C299.056 159.782 295.908 162.532 292.545 165.004V159.512H292.544Z" fill="#92E3A9"/>
<path d="M292.472 165.476C292.472 165.476 292.903 162.471 289.297 157.656C285.69 152.842 283.331 150.046 283.331 150.046C283.331 150.046 280.249 156.659 283.542 161.432C285.992 164.805 288.72 167.968 291.696 170.887L292.472 165.476Z" fill="#92E3A9"/>
<path d="M288.28 183.142C288.28 183.142 288.28 180.105 292.529 175.856C296.778 171.606 299.516 169.176 299.516 169.176C299.516 169.176 301.643 176.164 297.693 180.413C294.791 183.412 291.642 186.162 288.28 188.634V183.142Z" fill="#92E3A9"/>
<path d="M291.116 199.162C291.116 199.162 290.35 196.224 293.392 191.024C296.434 185.824 298.459 182.802 298.459 182.802C298.459 182.802 302.282 189.025 299.543 194.137C297.49 197.766 295.137 201.218 292.509 204.455L291.116 199.162Z" fill="#92E3A9"/>
<path d="M299.249 106.758C299.033 109.919 298.644 113.067 298.083 116.186C296.403 124.87 292.199 130.475 290.519 138.316C288.839 146.157 293.664 156.269 292.374 166.345C291.084 176.421 287.159 182.022 288.263 188.747C289.368 195.473 295.266 213.677 295.266 213.677" stroke="#263238" stroke-width="0.868369" stroke-linecap="round" stroke-linejoin="round"/>
<path d="M298.555 114.707L303.139 111.187" stroke="#263238" stroke-width="0.868369" stroke-linecap="round" stroke-linejoin="round"/>
<path d="M298.766 110.657L296.85 107.246" stroke="#263238" stroke-width="0.868369" stroke-linecap="round" stroke-linejoin="round"/>
<path d="M290.777 137.936C290.777 137.936 294.61 135.059 298.555 132.182" stroke="#263238" stroke-width="0.868369" stroke-linecap="round" stroke-linejoin="round"/>
<path d="M292.693 131.935C292.693 131.935 289.497 125.666 285.875 121.509" stroke="#263238" stroke-width="0.868369" stroke-linecap="round" stroke-linejoin="round"/>
<path d="M292.693 163.833C294.889 159.796 297.659 156.099 300.915 152.858" stroke="#263238" stroke-width="0.868369" stroke-linecap="round" stroke-linejoin="round"/>
<path d="M291.948 168.097C290.783 165.353 289.392 162.71 287.791 160.195C285.55 156.891 285.221 156.465 285.221 156.465" stroke="#263238" stroke-width="0.868369" stroke-linecap="round" stroke-linejoin="round"/>
<path d="M288.28 188.727C289.25 186.314 290.405 183.977 291.732 181.739C293.061 179.665 294.558 177.704 296.207 175.876" stroke="#263238" stroke-width="0.868369" stroke-linecap="round" stroke-linejoin="round"/>
<path d="M292.503 204.45C292.503 204.45 292.056 200.812 293.654 197.724C295.252 194.637 297.061 190.582 297.811 188.99" stroke="#263238" stroke-width="0.868369" stroke-linecap="round" stroke-linejoin="round"/>
<path d="M271.021 148.089C271.021 148.089 270.687 146.188 272.896 143.059C275.105 139.93 276.549 138.101 276.549 138.101C276.549 138.101 278.641 142.248 276.626 145.346C275.13 147.538 273.452 149.6 271.611 151.512L271.021 148.089Z" fill="#92E3A9"/>
<path d="M276.95 159.316C276.95 159.316 276.616 157.41 278.82 154.281C281.024 151.152 282.479 149.333 282.479 149.333C282.479 149.333 284.57 153.485 282.556 156.577C281.06 158.77 279.383 160.833 277.541 162.743L276.95 159.316Z" fill="#92E3A9"/>
<path d="M271.75 151.306C271.75 151.306 271.236 149.446 267.876 147.586C264.515 145.726 262.435 144.708 262.435 144.708C262.435 144.708 262.352 149.332 265.518 151.275C267.818 152.598 270.224 153.727 272.711 154.65L271.75 151.306Z" fill="#92E3A9"/>
<path d="M278.856 164.542C278.856 164.542 278.132 162.749 274.612 161.249C271.092 159.749 268.898 158.968 268.898 158.968C268.898 158.968 269.304 163.592 272.644 165.17C275.069 166.245 277.58 167.117 280.15 167.774L278.856 164.542Z" fill="#92E3A9"/>
<path d="M280.628 180.013C280.628 180.013 280.299 178.106 277.17 175.902C274.041 173.698 272.063 172.47 272.063 172.47C272.063 172.47 271.488 177.095 274.427 179.319C276.572 180.876 278.844 182.252 281.22 183.429L280.628 180.013Z" fill="#92E3A9"/>
<path d="M281.317 183.743C281.317 183.743 280.721 181.904 282.458 178.496C284.195 175.09 285.376 173.076 285.376 173.076C285.376 173.076 288.032 176.889 286.481 180.238C285.303 182.62 283.928 184.899 282.37 187.052L281.317 183.743Z" fill="#92E3A9"/>
<path d="M286.656 199.106C286.656 199.106 286.877 197.185 289.872 194.805C292.868 192.426 294.774 191.091 294.774 191.091C294.774 191.091 295.612 195.659 292.807 198.064C290.754 199.743 288.564 201.249 286.261 202.564L286.656 199.106Z" fill="#92E3A9"/>
<path d="M285.864 194.369C285.864 194.369 285.535 192.463 282.406 190.258C279.277 188.054 277.304 186.826 277.304 186.826C277.304 186.826 276.729 191.451 279.663 193.675C281.81 195.233 284.083 196.608 286.461 197.786L285.864 194.369Z" fill="#92E3A9"/>
<path d="M285.823 204.722C285.823 204.722 285.987 202.795 283.521 199.872C281.055 196.949 279.452 195.247 279.452 195.247C279.452 195.247 277.726 199.564 280.002 202.472C281.683 204.528 283.532 206.441 285.531 208.191L285.823 204.722Z" fill="#92E3A9"/>
<path d="M270.692 147.642C271.17 149.603 271.757 151.537 272.449 153.433C274.442 158.695 277.685 161.751 279.591 166.489C281.498 171.226 279.591 178.086 281.472 184.262C283.353 190.438 286.446 193.511 286.471 197.868C286.497 202.225 284.786 214.264 284.786 214.264" stroke="#263238" stroke-width="0.868369" stroke-linecap="round" stroke-linejoin="round"/>
<path d="M271.991 152.565L268.739 150.859" stroke="#263238" stroke-width="0.868369" stroke-linecap="round" stroke-linejoin="round"/>
<path d="M271.421 150.052L272.254 147.704" stroke="#263238" stroke-width="0.868369" stroke-linecap="round" stroke-linejoin="round"/>
<path d="M279.395 166.288C279.395 166.288 276.677 164.901 273.892 163.524" stroke="#263238" stroke-width="0.868369" stroke-linecap="round" stroke-linejoin="round"/>
<path d="M277.54 162.764C278.339 160.238 279.393 157.801 280.685 155.488" stroke="#263238" stroke-width="0.868369" stroke-linecap="round" stroke-linejoin="round"/>
<path d="M281.004 182.736C279.191 180.443 277.055 178.425 274.663 176.745" stroke="#263238" stroke-width="0.868369" stroke-linecap="round" stroke-linejoin="round"/>
<path d="M281.934 185.33C282.365 183.487 282.95 181.682 283.681 179.935C284.708 177.618 284.883 177.315 284.883 177.315" stroke="#263238" stroke-width="0.868369" stroke-linecap="round" stroke-linejoin="round"/>
<path d="M286.327 201.156C286.327 201.156 288.479 198.515 289.826 197.523C290.634 196.925 291.394 196.264 292.097 195.545" stroke="#263238" stroke-width="0.868369" stroke-linecap="round" stroke-linejoin="round"/>
<path d="M286.471 197.868C285.599 196.46 284.622 195.12 283.547 193.859C282.489 192.704 281.338 191.637 280.105 190.668" stroke="#263238" stroke-width="0.868369" stroke-linecap="round" stroke-linejoin="round"/>
<path d="M285.53 208.191C285.423 206.716 284.923 205.297 284.081 204.08C282.74 202.312 281.163 199.969 280.526 199.05" stroke="#263238" stroke-width="0.868369" stroke-linecap="round" stroke-linejoin="round"/>
<path d="M299.691 235.037H280.325C279.528 235.037 278.881 234.391 278.881 233.593L276.102 212.162H303.914L301.135 233.593C301.135 234.391 300.488 235.037 299.691 235.037Z" fill="#263238"/>
<path d="M303.668 215.789H276.102C274.906 215.789 273.934 214.826 273.923 213.632C273.923 212.431 274.896 211.458 276.097 211.458C276.098 211.458 276.1 211.458 276.102 211.458H303.668C304.869 211.455 305.844 212.427 305.847 213.626C305.847 213.628 305.847 213.63 305.847 213.632C305.836 214.827 304.863 215.789 303.668 215.789Z" fill="#263238"/>
<path d="M241.52 130.074C241.52 142.779 232.659 153.425 220.774 156.158C220.744 156.167 220.725 156.167 220.696 156.177C219.993 156.333 219.291 156.47 218.568 156.577C217.319 156.753 216.041 156.85 214.743 156.85C199.949 156.85 187.957 144.858 187.957 130.073C187.957 115.612 199.423 103.824 213.757 103.317C214.001 103.297 214.255 103.297 214.508 103.297C214.587 103.287 214.665 103.287 214.743 103.287C214.831 103.287 214.928 103.287 215.016 103.297C218.744 103.326 222.286 104.126 225.506 105.551C234.933 109.689 241.52 119.115 241.52 130.074Z" fill="#E5D64F"/>
<path opacity="0.4" d="M225.506 105.552C194.583 103.942 194.436 138.271 194.436 138.271C194.436 138.271 189.713 127.069 197.422 114.657C201.725 107.719 209.23 104.654 215.016 103.298C218.744 103.327 222.286 104.127 225.506 105.552Z" fill="white"/>
<path d="M241.52 130.074C241.52 142.809 232.62 153.474 220.696 156.177C218.784 156.616 216.792 156.85 214.744 156.85C199.95 156.85 187.957 144.858 187.957 130.073C187.957 115.612 199.424 103.824 213.758 103.317C214.08 103.297 214.412 103.287 214.743 103.287C229.526 103.288 241.52 115.281 241.52 130.074Z" stroke="#263238" stroke-width="0.737468" stroke-miterlimit="10" stroke-linecap="round" stroke-linejoin="round"/>
<path d="M241.52 130.074C241.52 142.809 232.62 153.474 220.696 156.177C220.374 156.197 220.042 156.206 219.711 156.206C204.917 156.206 192.934 144.214 192.934 129.42C192.934 116.685 201.834 106.02 213.758 103.317C214.08 103.297 214.412 103.287 214.743 103.287C229.526 103.288 241.52 115.281 241.52 130.074Z" stroke="#263238" stroke-width="0.737468" stroke-miterlimit="10" stroke-linecap="round" stroke-linejoin="round"/>
<path d="M223.969 146.833L224.663 149.661L220.035 150.796L219.341 147.968C215.193 147.95 211.866 145.276 210.806 140.957L210.491 139.672L215.598 137.819L215.925 139.156C216.568 141.779 218.296 143.046 220.456 142.515C222.615 141.985 223.625 140.321 223.108 138.212C222.489 135.694 219.595 134.113 216.249 132.481C212.29 130.562 208.204 128.13 207.082 123.554C205.985 119.079 207.362 115.361 210.89 113.515L210.196 110.687L214.824 109.552L215.518 112.38C219.538 112.32 222.531 114.967 223.653 119.543L223.88 120.469L218.774 122.32L218.522 121.292C217.84 118.515 216.407 117.34 214.505 117.807C212.603 118.274 211.811 119.721 212.367 121.984C212.985 124.503 215.919 126.019 219.224 127.716C223.146 129.7 227.27 132.068 228.393 136.644C229.466 141.014 227.702 144.936 223.969 146.833Z" stroke="#263238" stroke-width="0.737468" stroke-miterlimit="10"/>
<path opacity="0.3" d="M223.969 146.833L224.663 149.661L220.035 150.796L219.341 147.968C215.193 147.95 211.866 145.276 210.806 140.957L210.491 139.672L215.598 137.819L215.925 139.156C216.568 141.779 218.296 143.046 220.456 142.515C222.615 141.985 223.625 140.321 223.108 138.212C222.489 135.694 219.595 134.113 216.25 132.481C212.29 130.562 208.204 128.13 207.082 123.554C205.985 119.079 207.362 115.361 210.89 113.515L210.196 110.687L214.824 109.552L215.518 112.38C219.538 112.32 222.531 114.967 223.653 119.543L223.88 120.469L218.774 122.32L218.522 121.292C217.84 118.515 216.407 117.34 214.505 117.807C212.603 118.274 211.811 119.721 212.367 121.984C212.985 124.503 215.919 126.019 219.224 127.716C223.146 129.7 227.27 132.068 228.393 136.644C229.466 141.014 227.702 144.936 223.969 146.833Z" fill="black"/>
<path d="M201.058 153.094L206.715 152.834" stroke="#263238" stroke-width="0.737468" stroke-miterlimit="10" stroke-linecap="round" stroke-linejoin="round"/>
<path d="M198.335 151.215L203.272 150.796" stroke="#263238" stroke-width="0.737468" stroke-miterlimit="10" stroke-linecap="round" stroke-linejoin="round"/>
<path d="M196.12 149.229L201.058 148.811" stroke="#263238" stroke-width="0.737468" stroke-miterlimit="10" stroke-linecap="round" stroke-linejoin="round"/>
<path d="M195.446 111.501H199.673" stroke="#263238" stroke-width="0.737468" stroke-miterlimit="10" stroke-linecap="round" stroke-linejoin="round"/>
<path d="M197.533 109.551L201.741 109.36" stroke="#263238" stroke-width="0.737468" stroke-miterlimit="10" stroke-linecap="round" stroke-linejoin="round"/>
<path d="M200.168 107.601L204.61 107.183" stroke="#263238" stroke-width="0.737468" stroke-miterlimit="10" stroke-linecap="round" stroke-linejoin="round"/>
<path opacity="0.3" d="M220.773 156.158C220.744 156.167 220.725 156.167 220.695 156.177C218.783 156.617 216.792 156.85 214.743 156.85C199.949 156.85 187.957 144.858 187.957 130.074C187.957 115.612 199.423 103.824 213.757 103.317C214.001 103.297 214.255 103.297 214.508 103.297C207.98 105.356 197.031 110.616 194.104 121.584C189.947 137.158 199.296 154.85 220.773 156.158Z" fill="black"/>
<path opacity="0.1" d="M241.52 130.074C241.52 142.779 232.659 153.425 220.774 156.158C220.744 156.167 220.725 156.167 220.696 156.177C219.993 156.333 219.291 156.47 218.568 156.577L225.506 105.552C234.933 109.689 241.52 119.116 241.52 130.074Z" fill="black"/>
<path d="M256.713 87.9192C252.263 94.2135 244.144 96.3794 237.314 93.5498C237.284 93.5402 237.245 93.5203 237.216 93.5107C236.709 93.2961 236.202 93.052 235.704 92.7791C235.167 92.4863 234.65 92.1641 234.143 91.8034C226.834 86.6412 225.097 76.532 230.259 69.2229C235.226 62.197 244.76 60.3231 251.981 64.7929C252.107 64.8615 252.225 64.9397 252.342 65.0171C252.508 65.1145 252.674 65.2317 252.84 65.349C253.093 65.5245 253.337 65.7103 253.571 65.905C260.245 71.1934 261.699 80.8734 256.713 87.9192Z" fill="#E5D64F"/>
<path opacity="0.4" d="M232.275 88.1396C232.275 88.1396 229.623 80.3445 233.145 74.6085C237.565 67.4123 244.346 64.135 253.57 65.9049C253.57 65.9049 248.568 62.5288 240.198 64.9248C231.83 67.3201 227.34 78.8357 232.275 88.1396Z" fill="white"/>
<path d="M256.711 87.9228C252.265 94.2127 244.146 96.3742 237.312 93.5467C236.214 93.0961 235.149 92.5165 234.137 91.8012C226.83 86.6367 225.093 76.526 230.253 69.2243C235.302 62.0812 245.081 60.2611 252.338 65.0148C252.504 65.1173 252.672 65.2287 252.835 65.3445C260.138 70.5053 261.875 80.616 256.711 87.9228Z" stroke="#263238" stroke-width="0.737468" stroke-miterlimit="10" stroke-linecap="round" stroke-linejoin="round"/>
<path d="M256.711 87.9227C252.265 94.2126 244.146 96.3741 237.312 93.5467C237.146 93.4442 236.979 93.3328 236.815 93.217C229.509 88.0525 227.776 77.9455 232.941 70.6387C237.386 64.3488 245.506 62.1873 252.339 65.0148C252.505 65.1173 252.672 65.2286 252.836 65.3444C260.139 70.5052 261.875 80.6159 256.711 87.9227Z" stroke="#263238" stroke-width="0.737468" stroke-miterlimit="10" stroke-linecap="round" stroke-linejoin="round"/>
<path d="M242.191 90.074L241.547 91.7133L238.865 90.658L239.509 89.0186C237.467 87.5614 236.757 85.0798 237.742 82.5761L238.035 81.8313L241.204 82.6985L240.899 83.4736C240.301 84.9943 240.713 86.2222 241.965 86.7148C243.217 87.2067 244.296 86.7369 244.777 85.5149C245.351 84.0547 244.472 82.2634 243.391 80.2892C242.104 77.9596 240.936 75.332 241.979 72.6793C242.999 70.0864 244.978 68.7302 247.364 69.0502L248.009 67.4108L250.691 68.4654L250.046 70.1048C252.052 71.4787 252.607 73.8305 251.564 76.4832L251.353 77.0193L248.184 76.152L248.419 75.5562C249.051 73.947 248.753 72.8659 247.651 72.433C246.548 71.9994 245.652 72.4381 245.137 73.7501C244.562 75.2096 245.483 76.9832 246.523 78.9751C247.768 81.3239 248.978 83.9338 247.935 86.5857C246.939 89.1189 244.698 90.4405 242.191 90.074Z" stroke="#263238" stroke-width="0.737468" stroke-miterlimit="10"/>
<path opacity="0.3" d="M242.191 90.074L241.547 91.7133L238.865 90.658L239.509 89.0186C237.467 87.5614 236.757 85.0798 237.742 82.5761L238.035 81.8313L241.204 82.6985L240.899 83.4736C240.301 84.9943 240.713 86.2222 241.965 86.7148C243.217 87.2067 244.296 86.7369 244.777 85.5149C245.351 84.0547 244.472 82.2634 243.391 80.2892C242.104 77.9596 240.936 75.332 241.979 72.6793C242.999 70.0864 244.978 68.7302 247.364 69.0502L248.009 67.4108L250.691 68.4654L250.046 70.1048C252.052 71.4787 252.607 73.8305 251.564 76.4832L251.353 77.0193L248.184 76.152L248.419 75.5562C249.051 73.947 248.753 72.8659 247.651 72.433C246.548 71.9994 245.652 72.4381 245.137 73.7501C244.562 75.2096 245.483 76.9832 246.523 78.9751C247.768 81.3239 248.978 83.9338 247.935 86.5857C246.939 89.1189 244.698 90.4405 242.191 90.074Z" fill="black"/>
<path opacity="0.3" d="M251.98 64.7922C247.53 64.0016 241.949 63.5628 238.924 65.5046C233.371 69.0665 229.917 73.5548 229.966 80.8343C230.014 88.1138 236.816 93.2171 236.816 93.2171L237.216 93.5099C236.152 93.0608 235.118 92.4951 234.142 91.8019C226.833 86.6396 225.096 76.5304 230.259 69.2214C235.225 62.1963 244.759 60.3231 251.98 64.7922Z" fill="black"/>
<path opacity="0.1" d="M256.713 87.9191C252.263 94.2134 244.144 96.3793 237.314 93.5496C237.284 93.54 237.245 93.5201 237.216 93.5105C236.709 93.2959 236.202 93.0518 235.704 92.779L253.571 65.9049C260.245 71.1933 261.699 80.8733 256.713 87.9191Z" fill="black"/>
<path d="M248.366 295.595C241.459 303.794 233.35 310.979 224.145 316.502C221.262 318.226 218.317 319.762 215.299 321.117C194.348 330.538 170.468 331.149 148.133 325.733C101.182 314.356 76.2693 272.911 73.1085 226.903C72.2552 214.465 70.3518 201.039 75.3895 189.211C80.3829 177.482 90.6116 170.046 102.134 164.928C110.494 161.209 119.529 158.704 127.737 156.666C142.681 152.957 158.172 154.654 172.047 161.237C181.701 165.817 188.58 173.747 196.699 180.473C197.561 181.183 198.423 181.892 199.294 182.593C207.494 189.194 216.133 195.265 225.123 200.743C238.773 209.068 252.747 216.926 261.467 230.909C275.37 253.189 263.633 277.455 248.366 295.595Z" fill="#92E3A9"/>
<path opacity="0.4" d="M248.366 295.595C241.459 303.794 233.35 310.979 224.145 316.502C221.262 318.226 218.317 319.762 215.299 321.117C194.348 330.538 170.468 331.149 148.133 325.733C101.182 314.356 76.2693 272.911 73.1085 226.903C72.2552 214.465 70.3518 201.039 75.3895 189.211C80.3829 177.482 90.6116 170.046 102.134 164.928C110.494 161.209 119.529 158.704 127.737 156.666C142.681 152.957 158.172 154.654 172.047 161.237C181.701 165.817 188.58 173.747 196.699 180.473C197.561 181.183 198.423 181.892 199.294 182.593C207.494 189.194 216.133 195.265 225.123 200.743C238.773 209.068 252.747 216.926 261.467 230.909C275.37 253.189 263.633 277.455 248.366 295.595Z" fill="white"/>
<path d="M199.295 182.59C198.425 181.89 197.56 181.184 196.7 180.471C188.579 173.748 181.7 165.817 172.048 161.237C158.172 154.652 142.677 152.959 127.737 156.667C108.218 161.511 84.0044 168.97 75.3885 189.213C70.3538 201.042 72.2558 214.465 73.1105 226.9C76.2728 272.911 101.179 314.357 148.132 325.736C173.683 331.929 201.246 330.235 224.148 316.501C233.348 310.984 241.462 303.792 248.361 295.595C263.629 277.456 275.373 253.188 261.472 230.908C252.75 216.927 238.777 209.071 225.122 200.745C216.131 195.263 207.499 189.193 199.295 182.59Z" stroke="#263238" stroke-width="0.737468" stroke-miterlimit="10"/>
<path d="M128.136 264.636C124.263 265.832 120.36 267.329 116.804 269.195" stroke="#263238" stroke-width="0.737468" stroke-miterlimit="10" stroke-linecap="round" stroke-linejoin="round"/>
<path d="M152.097 260.082C152.097 260.082 144.419 260.606 135.094 262.768" stroke="#263238" stroke-width="0.737468" stroke-miterlimit="10" stroke-linecap="round" stroke-linejoin="round"/>
<path d="M147.089 258.897C147.089 258.897 125.051 246.079 98.4568 256.352" stroke="#263238" stroke-width="0.737468" stroke-miterlimit="10" stroke-linecap="round" stroke-linejoin="round"/>
<path opacity="0.1" d="M248.366 295.595C241.459 303.794 233.35 310.979 224.145 316.502C221.262 318.226 218.317 319.762 215.299 321.117C212.902 320.381 210.548 319.528 208.24 318.531C194.482 312.622 182.932 302.653 171.644 292.81C164.836 286.883 157.922 280.866 149.776 276.978C138.892 271.778 126.076 270.727 114.491 274.077C120.472 267.279 128.878 262.654 137.823 261.235C132.004 255.936 123.894 253.709 116.018 253.565C108.142 253.413 103.804 254.391 96.1169 256.116C98.6855 251.382 105.52 247.099 110.908 247.225C105.52 247.099 99.3684 246.739 95.5874 246.138C88.6272 245.016 85.5202 236.834 84.4782 229.874C81.6043 210.71 84.5143 190.279 94.9768 173.979C97.1678 170.566 99.5572 167.566 102.135 164.926C110.495 161.208 119.53 158.703 127.738 156.664C142.682 152.956 158.173 154.652 172.048 161.235C181.702 165.816 188.581 173.746 196.7 180.472C197.562 181.181 198.424 181.891 199.295 182.591C207.494 189.193 216.134 195.263 225.124 200.741C238.774 209.067 252.748 216.924 261.468 230.907C275.37 253.189 263.633 277.455 248.366 295.595Z" fill="black"/>
<path d="M256.021 295.052C256.021 295.052 262.217 300.267 268.973 304.598C277.744 305.187 273.811 315.79 273.811 315.79L266.304 320.615C266.304 320.615 253.481 310.424 246.482 307.112C239.484 303.801 256.021 295.052 256.021 295.052Z" fill="white"/>
<path opacity="0.3" d="M193.741 183.458C193.741 183.458 192.536 171.561 190.622 168.218L161.506 162.268V160.015C161.506 160.015 162.178 156.088 155.687 153.633C149.197 151.178 135.676 154.37 132.188 157.009C128.7 159.647 129.978 164.191 129.978 164.191C129.978 164.191 118.246 170.135 112.97 172.396C107.694 174.656 100.375 179.033 100.375 179.033C100.375 179.033 97.9907 206.373 98.4576 212.722C98.9244 219.072 98.0785 225.046 98.6205 228.565C99.1633 232.084 99.594 234.083 103.286 237.076C106.978 240.07 110.323 244.488 119.995 240.105L118.646 239.038L182.32 217.629L193.741 183.458Z" fill="black"/>
<path d="M193.741 183.458C193.741 183.458 192.536 171.561 190.622 168.218L161.506 162.268V160.015C161.506 160.015 162.178 156.088 155.687 153.633C149.197 151.178 135.676 154.37 132.188 157.009C128.7 159.647 129.978 164.191 129.978 164.191C129.978 164.191 118.246 170.135 112.97 172.396C107.694 174.656 100.375 179.033 100.375 179.033C100.375 179.033 97.9907 206.373 98.4576 212.722C98.9244 219.072 98.0785 225.046 98.6205 228.565C99.1633 232.084 99.594 234.083 103.286 237.076C106.978 240.07 110.323 244.488 119.995 240.105L118.646 239.038L182.32 217.629L193.741 183.458Z" fill="#92E3A9"/>
<path opacity="0.05" d="M193.741 183.458C193.741 183.458 192.536 171.561 190.622 168.218L161.506 162.268V160.015C161.506 160.015 162.178 156.088 155.687 153.633C149.197 151.178 135.676 154.37 132.188 157.009C128.7 159.647 129.978 164.191 129.978 164.191C129.978 164.191 118.246 170.135 112.97 172.396C107.694 174.656 100.375 179.033 100.375 179.033C100.375 179.033 97.9907 206.373 98.4576 212.722C98.9244 219.072 98.0785 225.046 98.6205 228.565C99.1633 232.084 99.594 234.083 103.286 237.076C106.978 240.07 110.323 244.488 119.995 240.105L118.646 239.038L182.32 217.629L193.741 183.458Z" fill="black"/>
<path opacity="0.1" d="M191.005 169.654H178.824C176.457 169.654 174.438 171.366 174.05 173.7L168.046 209.862C168.046 209.862 159.781 210.549 153.926 214.823C148.071 219.098 133.668 188.628 110.906 188.613C110.906 188.613 117.456 203.581 118.909 215.528C118.909 215.528 104.683 213.98 102.32 219.546C99.9576 225.112 103.394 235.549 109.408 231.511C115.422 227.475 121.058 220.716 125.113 224.955C129.169 229.193 147.088 231.511 147.088 231.511L174.722 217.629L185.44 212.592L191.005 169.654Z" fill="black"/>
<path opacity="0.4" d="M152.324 151.753C152.324 151.753 159.243 153.673 160.364 155.992C161.484 158.312 161.369 164.192 161.369 164.192C161.369 164.192 159.484 169.414 153.926 174.429L148.761 164.192L149.223 175.805C149.223 175.805 139.431 174.175 135.276 171.042C131.12 167.91 131.12 167.91 131.12 167.91C131.12 167.91 129.332 162.031 129.585 160.015C129.839 157.999 137.334 153.956 137.334 153.956L152.324 151.753Z" fill="white"/>
<path d="M267.544 330.745C267.355 330.32 270.386 324.971 268.012 319.518C265.639 314.064 261.855 316.167 261.855 316.167C261.855 316.167 251.08 309.311 246.551 307.145C242.023 304.98 237.149 301.555 237.149 301.555L232.365 307.999L236.787 321.688L267.544 330.745Z" fill="#92E3A9"/>
<path d="M261.459 315.836L275.297 324.292C275.297 324.292 285.021 318.05 289.664 313.742C294.307 309.434 304.685 300.266 304.685 300.266L311.312 291.333C311.312 291.333 306.706 285.639 299.037 290.215C289.126 296.129 277.039 304.68 268.973 304.598C268.973 304.598 270.564 314.503 261.459 315.836Z" fill="#92E3A9"/>
<path d="M149.978 115.997C149.978 115.997 156.257 125.494 157.4 128.57C158.542 131.646 159.464 136.199 159.232 138.386C158.999 140.574 156.708 152.309 155.522 152.652L154.409 153.911L155.123 158.881C155.123 158.881 150.211 167.375 135.77 161.149C135.77 161.149 135.206 151.232 133.451 148.122C131.696 145.012 129.069 148.712 126.442 139.722C123.814 130.733 132.192 121.325 132.192 121.325L149.978 115.997Z" fill="white"/>
<path opacity="0.5" d="M305.331 288.562C305.331 288.562 298.221 289.796 295.91 294.007C293.6 298.218 289.171 306.046 287.659 309.831C286.145 313.615 273.635 322.753 273.635 322.753L275.297 324.292C275.297 324.292 285.477 317.999 291.615 312.019C297.755 306.039 311.309 290.994 311.309 290.994C311.309 290.994 310.341 290.026 305.331 288.562Z" fill="white"/>
<path opacity="0.5" d="M234.121 305.635L232.365 307.999L237.776 319.225L267.545 329.926L268.925 325.564C268.925 325.564 269.386 321.125 258.936 317.78C248.487 314.436 242.115 312.199 239.143 309.887C236.17 307.573 234.121 305.635 234.121 305.635Z" fill="white"/>
<path d="M135.838 222.266C135.838 222.266 126.723 220.898 122.467 228.354C118.211 235.81 118.646 239.038 118.646 239.038C118.646 239.038 124.667 244.511 132.948 244.231C141.229 243.95 153.3 234.406 157.23 231.318C161.16 228.23 171.073 219.387 177.836 221.213L178.582 214.818C178.582 214.818 177.925 211.952 172.139 212.722C166.353 213.493 164.085 216.795 162.224 216.795C160.364 216.795 158.596 215 154.825 221.405C154.825 221.405 141.675 223.739 135.838 222.266Z" fill="white"/>
<path d="M147.689 129.66C147.878 130.854 148.155 132.035 148.515 133.189C148.689 133.747 148.892 134.315 149.286 134.746C149.983 135.509 151.099 135.678 152.122 135.833C152.29 135.859 152.473 135.894 152.582 136.024C152.681 136.143 152.692 136.31 152.692 136.465C152.689 137.618 152.337 138.768 151.692 139.723" stroke="#263238" stroke-width="0.737468" stroke-miterlimit="10" stroke-linecap="round" stroke-linejoin="round"/>
<path opacity="0.1" d="M240.24 298.015L234.121 305.635C234.121 305.635 240.835 311.835 247.784 314.133C254.733 316.431 266.889 320.787 268.925 324.115L268.142 320.109C268.142 320.109 249.127 308.442 244.756 305.657C240.386 302.873 240.24 298.015 240.24 298.015Z" fill="black"/>
<path opacity="0.1" d="M261.459 315.836L273.635 322.753C273.635 322.753 279.63 318.654 282.594 315.601C285.558 312.547 289.174 309.213 291.409 302.418C294.499 293.027 303.351 288.562 303.351 288.562C303.351 288.562 291.041 294.355 284.634 298.906C278.226 303.457 271.98 305.348 268.353 305.04C268.353 305.04 271.266 314.263 261.459 315.836Z" fill="black"/>
<path d="M143.391 141.397C143.391 141.397 148.177 145.15 153.15 143.743C153.15 143.743 148.459 153.032 143.391 141.397Z" fill="white" stroke="#263238" stroke-width="0.737468" stroke-miterlimit="10" stroke-linecap="round" stroke-linejoin="round"/>
<path d="M143.245 133.284C143.383 134.318 143.072 135.212 142.551 135.282C142.029 135.352 141.495 134.571 141.356 133.537C141.217 132.504 141.529 131.61 142.05 131.54C142.571 131.47 143.107 132.251 143.245 133.284Z" fill="#263238"/>
<path d="M153.635 131.409C153.774 132.442 153.463 133.337 152.941 133.407C152.42 133.477 151.885 132.695 151.746 131.662C151.608 130.629 151.919 129.734 152.44 129.664C152.962 129.594 153.497 130.375 153.635 131.409Z" fill="#263238"/>
<path d="M142.489 128.906C142.489 128.906 139.7 127.469 137.714 130.549" stroke="#263238" stroke-width="0.737468" stroke-miterlimit="10" stroke-linecap="round" stroke-linejoin="round"/>
<path d="M149.625 126.989C149.625 126.989 152.568 124.457 154.28 126.989" stroke="#263238" stroke-width="0.737468" stroke-miterlimit="10" stroke-linecap="round" stroke-linejoin="round"/>
<path d="M133.011 138.396C133.011 138.396 131.217 135.747 129.337 135.832C127.457 135.918 126.688 138.567 127.372 141.13C128.055 143.694 130.875 147.283 133.011 146.941C135.147 146.599 136.087 145.231 136.087 145.231" stroke="#263238" stroke-width="0.737468" stroke-miterlimit="10" stroke-linecap="round" stroke-linejoin="round"/>
<path d="M150.19 118.141C152.207 119.81 154.336 121.638 155.39 124.098C156.288 126.192 156.493 128.51 157.316 130.636C158.193 132.902 159.157 135.272 159.229 137.742C159.296 139.992 158.785 142.329 158.337 144.519C157.95 146.414 157.65 148.369 156.97 150.186C155.979 152.834 154.139 154.462 151.674 155.72C149.881 156.636 146.895 157.949 144.959 156.71C143.83 155.987 142.136 153.865 140.725 151.923" stroke="#263238" stroke-width="0.737468" stroke-miterlimit="10" stroke-linecap="round" stroke-linejoin="round"/>
<path d="M133.011 146.941C133.011 146.941 136.181 154.715 135.411 160.184" stroke="#263238" stroke-width="0.737468" stroke-miterlimit="10" stroke-linecap="round" stroke-linejoin="round"/>
<path d="M132.197 137.09C133.045 136.476 133.53 135.396 133.426 134.355C133.307 133.159 132.477 132.055 132.642 130.864C132.723 130.28 133.037 129.759 133.276 129.22C134.149 127.251 134.002 124.862 132.894 123.015C132.894 123.015 142.967 123.486 147.688 120.483C152.41 117.481 156.002 109.808 153.15 106.138C150.297 102.469 144.737 107.473 140.622 108.028C136.508 108.584 121.829 110.92 119.494 116.591C117.158 122.262 120.717 124.269 120.828 129.66C120.939 135.051 120.933 145.262 128.998 144.327C128.998 144.327 125.983 140.425 128.076 136.404C129.503 134.692 132.197 137.09 132.197 137.09Z" fill="#263238"/>
<path d="M151.953 112.511C151.953 112.511 156.1 115.278 156.777 121.366C157.226 125.409 164.398 133.262 159.229 137.741C159.229 137.741 158.024 132.981 157.316 130.635C156.608 128.289 155.705 124.009 154.516 122.513C153.327 121.017 147.028 115.905 147.028 115.905L151.953 112.511Z" fill="#263238"/>
<path d="M133.942 160.015C133.942 160.015 138.912 163.284 148.144 163.421L149.223 175.804C149.223 175.804 138.846 175.011 131.12 167.909C131.12 167.909 129.034 162.386 129.585 160.015C130.135 157.643 135.082 155.286 135.082 155.286" stroke="#263238" stroke-width="0.737468" stroke-miterlimit="10" stroke-linecap="round" stroke-linejoin="round"/>
<path d="M154.825 154.474L155.122 158.882C151.767 162.322 148.145 163.423 148.145 163.423L153.926 174.429C153.926 174.429 160.817 169.063 161.505 163.423C161.505 163.423 161.562 157.644 160.364 155.993C159.167 154.342 154.782 153.564 154.782 153.564" stroke="#263238" stroke-width="0.737468" stroke-miterlimit="10" stroke-linecap="round" stroke-linejoin="round"/>
<path opacity="0.8" d="M126.846 120.251C127.594 118.398 129.602 117.334 131.572 117.003C133.543 116.671 135.559 116.917 137.557 116.864C140.294 116.792 143.057 116.132 145.371 114.668C147.685 113.203 149.514 110.885 150.094 108.208" stroke="white" stroke-width="0.737468" stroke-miterlimit="10" stroke-linecap="round" stroke-linejoin="round"/>
<path opacity="0.8" d="M122.086 119.895C123.337 116.108 127.377 113.774 131.351 113.437C133.319 113.27 135.31 113.502 137.271 113.271C139.233 113.04 141.275 112.23 142.3 110.542" stroke="white" stroke-width="0.737468" stroke-miterlimit="10" stroke-linecap="round" stroke-linejoin="round"/>
<path d="M119.994 240.106C110.423 245.076 107 239.964 101.662 235.73C96.3239 231.496 99.8217 223.949 98.7169 211.8C97.6122 199.651 100.373 179.034 100.373 179.034C100.373 179.034 102.766 178.482 109.393 174.428C116.02 170.375 129.977 164.192 129.977 164.192" stroke="#263238" stroke-width="0.737468" stroke-miterlimit="10" stroke-linecap="round" stroke-linejoin="round"/>
<path d="M129.493 221.748C129.493 221.748 127.973 216.932 123.678 216.802C119.382 216.672 112.616 218.609 107.798 227.736" stroke="#263238" stroke-width="0.737468" stroke-miterlimit="10" stroke-linecap="round" stroke-linejoin="round"/>
<path d="M122.7 216.516C122.433 216.52 122.176 216.422 121.925 216.331C118.416 215.06 114.517 214.884 110.907 215.834" stroke="#263238" stroke-width="0.737468" stroke-miterlimit="10" stroke-linecap="round" stroke-linejoin="round"/>
<path d="M108.441 185.617C116.244 194.244 120.052 205.66 123.659 216.72" stroke="#263238" stroke-width="0.737468" stroke-miterlimit="10" stroke-linecap="round" stroke-linejoin="round"/>
<path d="M161.506 162.268C161.506 162.268 175.668 165.645 182.582 166.449C189.497 167.253 190.622 168.218 190.622 168.218L191.908 173.042" stroke="#263238" stroke-width="0.737468" stroke-miterlimit="10" stroke-linecap="round" stroke-linejoin="round"/>
<path d="M227.491 170.68L179.266 172.535L175.325 222.131H183.587L225.458 212.753L230.727 171.873L227.491 170.68Z" fill="white"/>
<path d="M177.836 223.6L230.576 173.042L225.458 212.753L177.836 223.6Z" fill="#92E3A9"/>
<path opacity="0.7" d="M177.836 223.6L230.576 173.042L225.458 212.753L177.836 223.6Z" fill="white"/>
<path d="M177.836 222.266L182.051 174.428L230.727 171.873L225.458 212.752L177.836 222.266Z" stroke="#263238" stroke-width="0.737468" stroke-miterlimit="10" stroke-linecap="round" stroke-linejoin="round"/>
<path d="M210.209 195.046C209.88 197.959 208.324 200.174 206.734 199.994C205.144 199.814 204.122 197.308 204.451 194.395C204.78 191.482 206.336 189.267 207.926 189.447C209.516 189.627 210.539 192.134 210.209 195.046Z" fill="#263238"/>
<path d="M225.458 212.752C225.458 212.752 247.745 212.119 254.715 216.72C261.687 221.321 265.773 244.398 264.811 256.657C263.85 268.917 255.437 297.041 255.437 297.041L239.331 278.772C239.331 278.772 231.399 249.927 235.726 238.629C235.726 238.629 214.332 239.831 205.919 237.186C205.919 237.186 198.373 224.836 185.44 220.747L225.458 212.752Z" fill="#263238"/>
<path d="M258.837 297.517C252.031 291.353 245.464 282.87 243.516 279.853C235.721 267.81 224.944 256.225 213.863 247.235C204.927 239.988 202.906 228.187 191.887 222.269C173.638 212.48 157.859 231.932 151.959 235.866C146.058 239.799 135.838 244.236 135.838 244.236C135.838 244.236 139.566 258.219 150.521 259.907C161.478 261.595 172.569 254.007 177.84 257.662C183.112 261.308 186.964 277.608 204.279 287.163C218.433 294.967 237.714 302.583 247.664 307.71C249.892 308.86 251.529 310.071 252.783 310.755C256.22 312.629 259.892 314.839 263.356 317.019L275.296 324.292C275.296 324.292 287.277 317.205 291.879 310.669C292.498 309.791 293.769 307.452 294.964 305.194C297.571 300.266 300.85 295.841 305.43 293.38C308.589 291.682 311.399 291.161 311.309 290.993C311.005 290.431 305.286 287.506 301.396 289.107C293.166 292.502 276.716 305.565 268.974 304.598C268.974 304.598 263.333 301.59 258.837 297.517Z" stroke="#263238" stroke-width="0.737468" stroke-miterlimit="10"/>
<path d="M258.837 297.517C251.661 300.417 248.77 304.881 247.665 307.71C237.714 302.583 218.433 294.967 204.28 287.163C186.966 277.608 183.112 261.308 177.841 257.662C172.569 254.007 161.478 261.596 150.522 259.907C139.565 258.218 135.842 244.231 135.842 244.231C135.842 244.231 146.061 239.801 151.962 235.868C157.862 231.934 171.466 212.476 191.886 222.268C203.166 227.677 204.926 239.987 213.862 247.234C224.944 256.224 235.72 267.809 243.515 279.852C245.464 282.87 252.012 291.375 258.837 297.517Z" fill="#263238"/>
<path d="M204.915 235C204.915 235 199.392 223.774 190.531 221.596" stroke="white" stroke-width="0.737468" stroke-miterlimit="10" stroke-linecap="round" stroke-linejoin="round"/>
<path d="M175.963 212.651C169.87 211.322 163.18 218.056 160.364 216.796C158.269 215.859 154.825 221.406 154.825 221.406C154.825 221.406 145.906 222.784 137.7 222.266C129.493 221.748 125.603 223.342 122.7 227.736L118.646 238.475C118.646 238.475 129.341 248.074 140.773 242.481C152.204 236.888 167.379 220.06 177.837 220.118" stroke="#263238" stroke-width="0.737468" stroke-miterlimit="10" stroke-linecap="round" stroke-linejoin="round"/>
<path d="M260.995 315.549C260.995 315.549 271.002 316.371 268.652 304.422" stroke="#263238" stroke-width="0.737468" stroke-miterlimit="10"/>
<path d="M308.123 297.041C307.365 298.547 298.215 306.318 290.317 313.14C290.34 313.033 292.501 308.87 293.449 307.093C295.545 303.168 300.973 292.408 311.309 290.993C312.775 291.876 308.123 297.041 308.123 297.041Z" fill="#263238"/>
<path d="M304.191 288.638C293.742 290.724 291.37 304.111 287.659 309.831C283.948 315.55 273.635 323.28 273.635 323.28" stroke="#263238" stroke-width="0.737468" stroke-miterlimit="10"/>
<path d="M268.012 319.855C269.711 322.971 268.908 326.582 268.012 328.845C267.261 330.748 266.373 332.067 266.373 332.067C251.58 329.637 236.787 321.688 236.787 321.688L232.972 309.886L232.365 307.999L238.106 300.266" stroke="#263238" stroke-width="0.737468" stroke-miterlimit="10"/>
<path d="M268.012 328.845C267.261 330.749 266.373 332.068 266.373 332.068C251.58 329.637 236.787 321.689 236.787 321.689L232.972 309.887C234.883 312.381 238.426 316.027 243.735 317.531C250.941 319.57 264.239 321.96 268.012 328.845Z" fill="#263238"/>
<path d="M175.325 220.405L179.266 172.535L227.491 170.68L230.727 171.873" stroke="#263238" stroke-width="0.737468" stroke-miterlimit="10" stroke-linecap="round" stroke-linejoin="round"/>
<path d="M268.549 309.831C268.549 309.831 275.145 311.007 280.208 306.873C285.271 302.74 293.439 293.401 293.439 293.401" stroke="#263238" stroke-width="0.737468" stroke-miterlimit="10"/>
<path d="M275.297 303.867C275.297 303.867 273.707 306.264 275.297 311.078" stroke="#263238" stroke-width="0.737468" stroke-miterlimit="10" stroke-linecap="round" stroke-linejoin="round"/>
<path d="M279.972 301.59C279.972 301.59 278.697 305.175 280.568 308.799" stroke="#263238" stroke-width="0.737468" stroke-miterlimit="10" stroke-linecap="round" stroke-linejoin="round"/>
<path d="M285.543 298.359C285.543 298.359 284.207 302.366 285.543 305.9" stroke="#263238" stroke-width="0.737468" stroke-miterlimit="10" stroke-linecap="round" stroke-linejoin="round"/>
<path d="M239.414 299.269L234.121 305.635C234.121 305.635 239.453 311.451 246.961 313.869C254.469 316.287 267.903 320.396 269.013 324.768" stroke="#263238" stroke-width="0.737468" stroke-miterlimit="10"/>
</svg>
