<svg width="1407" height="1024" viewBox="0 0 1407 1024" fill="none" xmlns="http://www.w3.org/2000/svg">
<g filter="url(#filter0_f_27_34)">
<path d="M617.519 175.127C578.507 197.446 551.002 234.978 517.643 265.099C476.453 302.291 425.409 328.469 371.172 340.218C326.553 349.884 279.78 350.022 236.704 365.148C152.739 394.632 95.1033 482.142 93.5745 571.119C92.0458 660.095 142.741 746.289 217.136 795.123C242.399 811.706 270.22 824.385 299.309 832.572C354.031 847.974 412.048 847.291 468.59 841.405C566.256 831.237 668.633 775.78 730.183 697.587C757.638 662.709 780.814 624.49 799.279 584.133C829.598 517.863 847.254 445.724 850.272 372.879C852.865 310.285 850.22 240.925 800.623 195.324C751.138 149.825 675.731 141.821 617.519 175.127Z" fill="#92E3A9"/>
<path opacity="0.7" d="M617.519 175.127C578.507 197.446 551.002 234.978 517.643 265.099C476.453 302.291 425.409 328.469 371.172 340.218C326.553 349.884 279.78 350.022 236.704 365.148C152.739 394.632 95.1033 482.142 93.5745 571.119C92.0458 660.095 142.741 746.289 217.136 795.123C242.399 811.706 270.22 824.385 299.309 832.572C354.031 847.974 412.048 847.291 468.59 841.405C566.256 831.237 668.633 775.78 730.183 697.587C757.638 662.709 780.814 624.49 799.279 584.133C829.598 517.863 847.254 445.724 850.272 372.879C852.865 310.285 850.22 240.925 800.623 195.324C751.138 149.825 675.731 141.821 617.519 175.127Z" fill="white"/>
<path d="M514.881 891.603C691.97 891.603 835.53 852.941 835.53 805.25C835.53 757.558 691.97 718.896 514.881 718.896C337.791 718.896 194.231 757.558 194.231 805.25C194.231 852.941 337.791 891.603 514.881 891.603Z" fill="#92E3A9"/>
<path opacity="0.5" d="M514.881 891.603C691.97 891.603 835.53 852.941 835.53 805.25C835.53 757.558 691.97 718.896 514.881 718.896C337.791 718.896 194.231 757.558 194.231 805.25C194.231 852.941 337.791 891.603 514.881 891.603Z" fill="white"/>
<path d="M569.972 199.12V410.433C569.972 419.273 562.807 426.437 553.968 426.437H177.002C168.162 426.437 160.997 419.273 160.997 410.433V199.12C160.997 190.28 168.162 183.115 177.002 183.115H553.968C562.807 183.115 569.972 190.28 569.972 199.12Z" fill="white"/>
<path d="M569.972 199.12V205.456H160.997V199.12C160.997 190.28 168.162 183.115 177.002 183.115H553.968C562.807 183.115 569.972 190.28 569.972 199.12Z" fill="#92E3A9"/>
<path d="M569.972 199.12V410.433C569.972 419.273 562.807 426.437 553.968 426.437H177.002C168.162 426.437 160.997 419.273 160.997 410.433V199.12C160.997 190.28 168.162 183.115 177.002 183.115H553.968C562.807 183.115 569.972 190.28 569.972 199.12Z" stroke="#263238" stroke-width="1.788" stroke-miterlimit="10" stroke-linecap="round" stroke-linejoin="round"/>
<path d="M569.972 199.12V205.456H160.997V199.12C160.997 190.28 168.162 183.115 177.002 183.115H553.968C562.807 183.115 569.972 190.28 569.972 199.12Z" stroke="#263238" stroke-width="1.788" stroke-miterlimit="10" stroke-linecap="round" stroke-linejoin="round"/>
<path d="M206.926 194.285C206.926 196.541 205.097 198.37 202.841 198.37C200.584 198.37 198.755 196.541 198.755 194.285C198.755 192.028 200.584 190.199 202.841 190.199C205.097 190.199 206.926 192.028 206.926 194.285Z" fill="#263238"/>
<path d="M228.294 194.285C228.294 196.541 226.465 198.37 224.209 198.37C221.952 198.37 220.123 196.541 220.123 194.285C220.123 192.028 221.952 190.199 224.209 190.199C226.465 190.199 228.294 192.028 228.294 194.285Z" fill="#263238"/>
<path d="M245.577 198.37C247.834 198.37 249.663 196.541 249.663 194.285C249.663 192.028 247.834 190.199 245.577 190.199C243.321 190.199 241.492 192.028 241.492 194.285C241.492 196.541 243.321 198.37 245.577 198.37Z" fill="#263238"/>
<path d="M307.476 291.985H191.849C188.205 291.985 185.252 289.031 185.252 285.387V229.764C185.252 226.12 188.205 223.166 191.849 223.166H307.476C311.12 223.166 314.074 226.12 314.074 229.764V285.387C314.074 289.031 311.12 291.985 307.476 291.985Z" stroke="#263238" stroke-width="1.788" stroke-miterlimit="10" stroke-linecap="round" stroke-linejoin="round"/>
<path d="M192.826 283.333H304.528" stroke="#263238" stroke-width="1.788" stroke-miterlimit="10" stroke-linecap="round" stroke-linejoin="round"/>
<path d="M214.078 270.193H201.118V283.152H214.078V270.193Z" fill="#92E3A9" stroke="#263238" stroke-width="1.788" stroke-miterlimit="10"/>
<path d="M233.05 253.153H220.091V283.333H233.05V253.153Z" fill="#92E3A9" stroke="#263238" stroke-width="1.788" stroke-miterlimit="10"/>
<path d="M254.419 258.343H241.459V283.636H254.419V258.343Z" fill="#92E3A9" stroke="#263238" stroke-width="1.788" stroke-miterlimit="10"/>
<path d="M276.867 233.152H263.908V282.771H276.867V233.152Z" fill="#92E3A9" stroke="#263238" stroke-width="1.788" stroke-miterlimit="10"/>
<path d="M299.314 233.533H286.354V283.152H299.314V233.533Z" fill="#92E3A9" stroke="#263238" stroke-width="1.788" stroke-miterlimit="10"/>
<path d="M473.781 295.55C493.798 295.55 510.024 279.324 510.024 259.307C510.024 239.291 493.798 223.064 473.781 223.064C453.765 223.064 437.539 239.291 437.539 259.307C437.539 279.324 453.765 295.55 473.781 295.55Z" fill="#92E3A9" stroke="#263238" stroke-width="1.788" stroke-miterlimit="10"/>
<path d="M476.752 281.916V285.628H470.678V281.916C465.548 280.634 462.242 276.314 462.242 270.645V268.957L469.126 268.215V269.969C469.126 273.411 470.88 275.503 473.716 275.503C476.55 275.503 478.305 273.749 478.305 270.981C478.305 267.673 475.201 264.839 471.556 261.801C467.236 258.225 462.916 253.972 462.916 247.966C462.916 242.094 465.75 237.91 470.678 236.694V232.982H476.752V236.694C481.745 237.842 484.647 242.026 484.647 248.032V249.246L477.764 249.988V248.638C477.764 244.994 476.346 243.104 473.85 243.104C471.354 243.104 469.936 244.656 469.936 247.626C469.936 250.934 473.108 253.7 476.685 256.806C480.937 260.45 485.323 264.635 485.323 270.641C485.323 276.381 481.948 280.7 476.752 281.916Z" fill="#263238"/>
<path d="M182.236 327.151H192.826" stroke="#263238" stroke-width="1.788" stroke-miterlimit="10" stroke-linecap="round" stroke-linejoin="round"/>
<path d="M182.236 347.608H192.826" stroke="#263238" stroke-width="1.788" stroke-miterlimit="10" stroke-linecap="round" stroke-linejoin="round"/>
<path d="M182.236 368.064H192.826" stroke="#263238" stroke-width="1.788" stroke-miterlimit="10" stroke-linecap="round" stroke-linejoin="round"/>
<path d="M182.236 388.52H192.826" stroke="#263238" stroke-width="1.788" stroke-miterlimit="10" stroke-linecap="round" stroke-linejoin="round"/>
<path d="M216.152 403.981V395.758" stroke="#263238" stroke-width="1.788" stroke-miterlimit="10" stroke-linecap="round" stroke-linejoin="round"/>
<path d="M232.929 403.981V395.758" stroke="#263238" stroke-width="1.788" stroke-miterlimit="10" stroke-linecap="round" stroke-linejoin="round"/>
<path d="M249.706 403.981V395.758" stroke="#263238" stroke-width="1.788" stroke-miterlimit="10" stroke-linecap="round" stroke-linejoin="round"/>
<path d="M266.481 403.981V395.758" stroke="#263238" stroke-width="1.788" stroke-miterlimit="10" stroke-linecap="round" stroke-linejoin="round"/>
<path d="M283.258 403.981V395.758" stroke="#263238" stroke-width="1.788" stroke-miterlimit="10" stroke-linecap="round" stroke-linejoin="round"/>
<path d="M300.032 403.981V395.758" stroke="#263238" stroke-width="1.788" stroke-miterlimit="10" stroke-linecap="round" stroke-linejoin="round"/>
<path d="M316.809 403.981V395.758" stroke="#263238" stroke-width="1.788" stroke-miterlimit="10" stroke-linecap="round" stroke-linejoin="round"/>
<path d="M333.584 403.981V395.758" stroke="#263238" stroke-width="1.788" stroke-miterlimit="10" stroke-linecap="round" stroke-linejoin="round"/>
<path d="M350.361 403.981V395.758" stroke="#263238" stroke-width="1.788" stroke-miterlimit="10" stroke-linecap="round" stroke-linejoin="round"/>
<path d="M367.136 403.981V395.758" stroke="#263238" stroke-width="1.788" stroke-miterlimit="10" stroke-linecap="round" stroke-linejoin="round"/>
<path d="M383.913 403.981V395.758" stroke="#263238" stroke-width="1.788" stroke-miterlimit="10" stroke-linecap="round" stroke-linejoin="round"/>
<path d="M400.69 403.981V395.758" stroke="#263238" stroke-width="1.788" stroke-miterlimit="10" stroke-linecap="round" stroke-linejoin="round"/>
<path d="M417.465 403.981V395.758" stroke="#263238" stroke-width="1.788" stroke-miterlimit="10" stroke-linecap="round" stroke-linejoin="round"/>
<path d="M434.242 403.981V395.758" stroke="#263238" stroke-width="1.788" stroke-miterlimit="10" stroke-linecap="round" stroke-linejoin="round"/>
<path d="M451.016 403.981V395.758" stroke="#263238" stroke-width="1.788" stroke-miterlimit="10" stroke-linecap="round" stroke-linejoin="round"/>
<path d="M467.157 403.981V395.758" stroke="#263238" stroke-width="1.788" stroke-miterlimit="10" stroke-linecap="round" stroke-linejoin="round"/>
<path d="M483.297 403.981V395.758" stroke="#263238" stroke-width="1.788" stroke-miterlimit="10" stroke-linecap="round" stroke-linejoin="round"/>
<path d="M499.438 403.981V395.758" stroke="#263238" stroke-width="1.788" stroke-miterlimit="10" stroke-linecap="round" stroke-linejoin="round"/>
<path d="M542.135 314.624V394.126C542.135 399.57 536.592 403.979 529.751 403.979H194.619C190.072 403.979 186.088 402.032 183.946 399.121C182.865 397.657 182.237 395.951 182.237 394.126V314.624C182.237 309.18 187.78 304.771 194.621 304.771H529.755C536.592 304.771 542.135 309.18 542.135 314.624Z" stroke="#92E3A9" stroke-width="1.788" stroke-miterlimit="10" stroke-linecap="round" stroke-linejoin="round"/>
<path d="M440.14 160.667L333.161 304.771L292.246 359.88L247.558 331.421L192.88 403.981H192.087C188.47 403.981 185.3 402.034 183.594 399.123L245.043 317.571L289.694 345.995L320.289 304.771L431.833 154.518L440.14 160.667Z" fill="#263238"/>
<path d="M412.993 162.494L452.324 138.651L441.444 179.882L434.514 160.808L412.993 162.494Z" fill="#263238"/>
<path d="M785.09 616.214H156.272L85.7946 678.876" stroke="#263238" stroke-width="1.788" stroke-miterlimit="10" stroke-linecap="round" stroke-linejoin="round"/>
<path d="M156.669 572.331V450.475" stroke="#263238" stroke-width="1.788" stroke-miterlimit="10" stroke-linecap="round" stroke-linejoin="round"/>
<path d="M156.669 609.138V585.569" stroke="#263238" stroke-width="1.788" stroke-miterlimit="10" stroke-linecap="round" stroke-linejoin="round"/>
<path d="M747.24 319.763C747.24 319.763 747.24 312.4 736.925 302.085C726.61 291.77 719.995 285.89 719.995 285.89C719.995 285.89 714.838 302.82 724.404 313.133C731.445 320.405 739.083 327.073 747.238 333.066V319.763H747.24Z" fill="#92E3A9"/>
<path d="M732.28 365.758C732.28 365.758 732.28 358.395 721.965 348.08C711.65 337.765 705.036 331.886 705.036 331.886C705.036 331.886 699.878 348.816 709.446 359.131C716.49 366.398 724.129 373.065 732.28 379.064V365.758Z" fill="#92E3A9"/>
<path d="M746.593 332.308C746.593 332.308 747.365 324.982 758.714 315.813C770.062 306.644 777.262 301.5 777.262 301.5C777.262 301.5 780.6 318.941 769.987 328.122C762.22 334.594 753.924 340.404 745.184 345.487L746.593 332.308Z" fill="#92E3A9"/>
<path d="M728.518 386.624C728.518 386.624 730.063 379.423 742.296 371.501C754.53 363.578 762.229 359.205 762.229 359.205C762.229 359.205 763.724 376.845 752.263 384.929C743.859 390.543 735 395.442 725.777 399.578L728.518 386.624Z" fill="#92E3A9"/>
<path d="M731.919 445.835C731.919 445.835 731.919 438.472 742.221 428.17C752.524 417.867 759.164 411.976 759.164 411.976C759.164 411.976 764.321 428.917 754.743 439.219C747.707 446.491 740.074 453.159 731.921 459.152V445.835H731.919Z" fill="#92E3A9"/>
<path d="M731.744 460.297C731.744 460.297 732.79 453.009 724.044 441.337C715.299 429.664 709.581 422.886 709.581 422.886C709.581 422.886 702.107 438.919 710.093 450.491C716.032 458.669 722.646 466.336 729.863 473.413L731.744 460.297Z" fill="#92E3A9"/>
<path d="M721.579 503.126C721.579 503.126 721.579 495.763 731.881 485.461C742.184 475.158 748.823 469.267 748.823 469.267C748.823 469.267 753.979 486.208 744.401 496.511C737.367 503.782 729.732 510.45 721.579 516.443V503.126Z" fill="#92E3A9"/>
<path d="M728.455 541.969C728.455 541.969 726.599 534.843 733.975 522.236C741.35 509.629 746.259 502.304 746.259 502.304C746.259 502.304 755.528 517.389 748.887 529.785C743.909 538.584 738.205 546.952 731.833 554.799L728.455 541.969Z" fill="#92E3A9"/>
<path d="M748.175 317.932C747.651 325.597 746.707 333.229 745.347 340.792C741.273 361.846 731.082 375.436 727.009 394.446C722.936 413.456 734.633 437.973 731.506 462.403C728.378 486.832 718.861 500.41 721.539 516.717C724.218 533.023 738.518 577.16 738.518 577.16" stroke="#263238" stroke-width="2.10537" stroke-linecap="round" stroke-linejoin="round"/>
<path d="M746.493 337.205L757.605 328.671" stroke="#263238" stroke-width="2.10537" stroke-linecap="round" stroke-linejoin="round"/>
<path d="M747.004 327.387L742.357 319.116" stroke="#263238" stroke-width="2.10537" stroke-linecap="round" stroke-linejoin="round"/>
<path d="M727.633 393.525C727.633 393.525 736.927 386.549 746.493 379.574" stroke="#263238" stroke-width="2.10537" stroke-linecap="round" stroke-linejoin="round"/>
<path d="M732.28 378.975C732.28 378.975 724.531 363.777 715.748 353.698" stroke="#263238" stroke-width="2.10537" stroke-linecap="round" stroke-linejoin="round"/>
<path d="M732.28 456.311C737.605 446.525 744.319 437.562 752.213 429.702" stroke="#263238" stroke-width="2.10537" stroke-linecap="round" stroke-linejoin="round"/>
<path d="M730.472 466.651C727.647 459.998 724.277 453.59 720.393 447.491C714.961 439.481 714.164 438.447 714.164 438.447" stroke="#263238" stroke-width="2.10537" stroke-linecap="round" stroke-linejoin="round"/>
<path d="M721.579 516.668C723.932 510.816 726.732 505.152 729.95 499.725C733.17 494.697 736.8 489.943 740.8 485.511" stroke="#263238" stroke-width="2.10537" stroke-linecap="round" stroke-linejoin="round"/>
<path d="M731.819 554.789C731.819 554.789 730.735 545.968 734.61 538.482C738.484 530.996 742.869 521.165 744.689 517.305" stroke="#263238" stroke-width="2.10537" stroke-linecap="round" stroke-linejoin="round"/>
<path d="M679.734 418.141C679.734 418.141 678.924 413.531 684.281 405.945C689.638 398.358 693.139 393.924 693.139 393.924C693.139 393.924 698.21 403.978 693.325 411.489C689.697 416.803 685.629 421.804 681.166 426.439L679.734 418.141Z" fill="#92E3A9"/>
<path d="M694.11 445.361C694.11 445.361 693.3 440.739 698.644 433.153C703.989 425.566 707.514 421.155 707.514 421.155C707.514 421.155 712.585 431.222 707.702 438.721C704.076 444.036 700.008 449.037 695.544 453.67L694.11 445.361Z" fill="#92E3A9"/>
<path d="M681.503 425.94C681.503 425.94 680.256 421.43 672.11 416.921C663.962 412.412 658.918 409.944 658.918 409.944C658.918 409.944 658.718 421.155 666.392 425.865C671.969 429.072 677.803 431.81 683.832 434.048L681.503 425.94Z" fill="#92E3A9"/>
<path d="M698.732 458.031C698.732 458.031 696.976 453.683 688.442 450.046C679.908 446.409 674.589 444.516 674.589 444.516C674.589 444.516 675.572 455.728 683.67 459.553C689.551 462.159 695.639 464.273 701.87 465.868L698.732 458.031Z" fill="#92E3A9"/>
<path d="M703.028 495.54C703.028 495.54 702.231 490.918 694.644 485.573C687.058 480.229 682.262 477.252 682.262 477.252C682.262 477.252 680.868 488.465 687.993 493.857C693.194 497.633 698.703 500.968 704.462 503.823L703.028 495.54Z" fill="#92E3A9"/>
<path d="M704.698 504.583C704.698 504.583 703.254 500.124 707.464 491.863C711.675 483.605 714.539 478.722 714.539 478.722C714.539 478.722 720.98 487.966 717.218 496.087C714.362 501.86 711.028 507.387 707.252 512.606L704.698 504.583Z" fill="#92E3A9"/>
<path d="M717.642 541.833C717.642 541.833 718.178 537.173 725.441 531.405C732.704 525.637 737.326 522.399 737.326 522.399C737.326 522.399 739.357 533.474 732.555 539.304C727.578 543.376 722.269 547.027 716.685 550.217L717.642 541.833Z" fill="#92E3A9"/>
<path d="M715.723 530.347C715.723 530.347 714.925 525.725 707.339 520.38C699.752 515.036 694.97 512.059 694.97 512.059C694.97 512.059 693.575 523.272 700.688 528.664C705.892 532.442 711.405 535.775 717.169 538.631L715.723 530.347Z" fill="#92E3A9"/>
<path d="M715.623 555.448C715.623 555.448 716.022 550.776 710.042 543.689C704.063 536.601 700.176 532.476 700.176 532.476C700.176 532.476 695.991 542.941 701.51 549.991C705.585 554.978 710.069 559.616 714.915 563.857L715.623 555.448Z" fill="#92E3A9"/>
<path d="M678.937 417.057C680.097 421.811 681.519 426.5 683.198 431.097C688.031 443.854 695.893 451.265 700.515 462.751C705.137 474.237 700.515 490.868 705.074 505.842C709.633 520.817 717.132 528.265 717.195 538.831C717.257 549.394 713.109 578.583 713.109 578.583" stroke="#263238" stroke-width="2.10537" stroke-linecap="round" stroke-linejoin="round"/>
<path d="M682.087 428.992L674.202 424.856" stroke="#263238" stroke-width="2.10537" stroke-linecap="round" stroke-linejoin="round"/>
<path d="M680.705 422.9L682.724 417.207" stroke="#263238" stroke-width="2.10537" stroke-linecap="round" stroke-linejoin="round"/>
<path d="M700.039 462.265C700.039 462.265 693.448 458.902 686.697 455.564" stroke="#263238" stroke-width="2.10537" stroke-linecap="round" stroke-linejoin="round"/>
<path d="M695.542 453.72C697.478 447.596 700.033 441.687 703.166 436.08" stroke="#263238" stroke-width="2.10537" stroke-linecap="round" stroke-linejoin="round"/>
<path d="M703.938 502.143C699.543 496.582 694.365 491.69 688.565 487.617" stroke="#263238" stroke-width="2.10537" stroke-linecap="round" stroke-linejoin="round"/>
<path d="M706.193 508.433C707.239 503.963 708.657 499.587 710.429 495.352C712.919 489.734 713.343 488.999 713.343 488.999" stroke="#263238" stroke-width="2.10537" stroke-linecap="round" stroke-linejoin="round"/>
<path d="M716.844 546.802C716.844 546.802 722.063 540.399 725.328 537.994C727.288 536.544 729.129 534.94 730.833 533.199" stroke="#263238" stroke-width="2.10537" stroke-linecap="round" stroke-linejoin="round"/>
<path d="M717.193 538.829C715.08 535.416 712.71 532.167 710.105 529.111C707.54 526.309 704.748 523.722 701.759 521.375" stroke="#263238" stroke-width="2.10537" stroke-linecap="round" stroke-linejoin="round"/>
<path d="M714.913 563.857C714.652 560.281 713.44 556.841 711.4 553.891C708.149 549.605 704.324 543.925 702.78 541.695" stroke="#263238" stroke-width="2.10537" stroke-linecap="round" stroke-linejoin="round"/>
<path d="M749.246 628.948H702.293C700.36 628.948 698.792 627.38 698.792 625.447L692.053 573.486H759.486L752.747 625.447C752.747 627.38 751.179 628.948 749.246 628.948Z" fill="#263238"/>
<path d="M758.889 582.281H692.054C689.155 582.281 686.799 579.946 686.772 577.049C686.772 574.138 689.13 571.78 692.041 571.78C692.045 571.78 692.05 571.78 692.054 571.78H758.889C761.8 571.773 764.164 574.128 764.171 577.037C764.171 577.04 764.171 577.046 764.171 577.049C764.144 579.948 761.786 582.281 758.889 582.281Z" fill="#263238"/>
<path d="M608.209 374.463C608.209 405.267 586.726 431.079 557.911 437.703C557.839 437.726 557.793 437.726 557.721 437.75C556.017 438.129 554.315 438.459 552.563 438.72C549.534 439.146 546.435 439.382 543.288 439.382C507.421 439.382 478.345 410.306 478.345 374.461C478.345 339.399 506.145 310.819 540.898 309.589C541.49 309.541 542.105 309.541 542.72 309.541C542.909 309.518 543.099 309.518 543.288 309.518C543.501 309.518 543.737 309.518 543.95 309.541C552.988 309.613 561.576 311.552 569.383 315.007C592.239 325.039 608.209 347.894 608.209 374.463Z" fill="#E5D64F"/>
<path opacity="0.4" d="M569.384 315.009C494.41 311.105 494.054 394.337 494.054 394.337C494.054 394.337 482.604 367.177 501.294 337.083C511.727 320.262 529.921 312.833 543.95 309.545C552.988 309.614 561.576 311.554 569.384 315.009Z" fill="white"/>
<path d="M608.209 374.463C608.209 405.338 586.631 431.197 557.721 437.75C553.085 438.815 548.257 439.382 543.29 439.382C507.423 439.382 478.347 410.306 478.347 374.461C478.347 339.399 506.146 310.819 540.9 309.589C541.681 309.543 542.486 309.518 543.289 309.518C579.131 309.52 608.209 338.596 608.209 374.463Z" stroke="#263238" stroke-width="1.788" stroke-miterlimit="10" stroke-linecap="round" stroke-linejoin="round"/>
<path d="M608.209 374.463C608.209 405.338 586.631 431.196 557.721 437.75C556.94 437.798 556.137 437.821 555.333 437.821C519.465 437.821 490.412 408.745 490.412 372.877C490.412 342.002 511.99 316.144 540.9 309.589C541.681 309.543 542.486 309.518 543.289 309.518C579.131 309.519 608.209 338.596 608.209 374.463Z" stroke="#263238" stroke-width="1.788" stroke-miterlimit="10" stroke-linecap="round" stroke-linejoin="round"/>
<path d="M565.658 415.095L567.34 421.952L556.119 424.704L554.436 417.847C544.379 417.803 536.313 411.321 533.744 400.849L532.98 397.732L545.361 393.241L546.154 396.482C547.714 402.842 551.903 405.912 557.14 404.627C562.375 403.341 564.823 399.306 563.57 394.194C562.069 388.088 555.052 384.256 546.941 380.297C537.341 375.647 527.436 369.748 524.715 358.654C522.056 347.806 525.394 338.791 533.948 334.315L532.265 327.458L543.485 324.707L545.167 331.564C554.914 331.419 562.17 337.836 564.891 348.931L565.442 351.174L553.061 355.664L552.45 353.172C550.798 346.438 547.324 343.59 542.711 344.722C538.099 345.853 536.181 349.361 537.529 354.849C539.026 360.955 546.14 364.631 554.154 368.745C563.661 373.555 573.661 379.296 576.382 390.391C578.984 400.986 574.707 410.495 565.658 415.095Z" stroke="#263238" stroke-width="1.788" stroke-miterlimit="10"/>
<path opacity="0.3" d="M565.658 415.095L567.34 421.952L556.119 424.704L554.436 417.847C544.379 417.803 536.313 411.321 533.744 400.849L532.98 397.732L545.361 393.241L546.154 396.482C547.714 402.842 551.903 405.912 557.14 404.627C562.375 403.341 564.823 399.306 563.57 394.194C562.069 388.088 555.052 384.256 546.941 380.297C537.341 375.647 527.436 369.748 524.715 358.654C522.056 347.806 525.394 338.791 533.948 334.315L532.265 327.458L543.485 324.707L545.167 331.564C554.914 331.419 562.17 337.836 564.891 348.931L565.442 351.174L553.061 355.664L552.45 353.172C550.798 346.438 547.324 343.59 542.711 344.722C538.099 345.853 536.181 349.361 537.529 354.849C539.026 360.955 546.14 364.631 554.154 368.745C563.661 373.555 573.661 379.296 576.382 390.391C578.984 400.986 574.707 410.495 565.658 415.095Z" fill="black"/>
<path d="M510.108 430.274L523.824 429.645" stroke="#263238" stroke-width="1.788" stroke-miterlimit="10" stroke-linecap="round" stroke-linejoin="round"/>
<path d="M503.507 425.72L515.478 424.704" stroke="#263238" stroke-width="1.788" stroke-miterlimit="10" stroke-linecap="round" stroke-linejoin="round"/>
<path d="M498.138 420.905L510.108 419.891" stroke="#263238" stroke-width="1.788" stroke-miterlimit="10" stroke-linecap="round" stroke-linejoin="round"/>
<path d="M496.502 329.432H506.751" stroke="#263238" stroke-width="1.788" stroke-miterlimit="10" stroke-linecap="round" stroke-linejoin="round"/>
<path d="M501.562 324.705L511.766 324.242" stroke="#263238" stroke-width="1.788" stroke-miterlimit="10" stroke-linecap="round" stroke-linejoin="round"/>
<path d="M507.953 319.978L518.722 318.964" stroke="#263238" stroke-width="1.788" stroke-miterlimit="10" stroke-linecap="round" stroke-linejoin="round"/>
<path opacity="0.3" d="M557.909 437.704C557.837 437.727 557.791 437.727 557.719 437.75C553.083 438.816 548.256 439.382 543.288 439.382C507.421 439.382 478.345 410.306 478.345 374.462C478.345 339.399 506.145 310.82 540.898 309.59C541.49 309.541 542.105 309.542 542.72 309.542C526.892 314.534 500.346 327.286 493.249 353.879C483.171 391.639 505.837 434.533 557.909 437.704Z" fill="black"/>
<path opacity="0.1" d="M608.209 374.463C608.209 405.267 586.726 431.079 557.911 437.703C557.839 437.726 557.793 437.726 557.721 437.75C556.017 438.129 554.315 438.46 552.563 438.721L569.384 315.009C592.238 325.04 608.209 347.894 608.209 374.463Z" fill="black"/>
<path d="M645.045 272.258C634.256 287.519 614.572 292.77 598.012 285.91C597.94 285.886 597.846 285.838 597.776 285.815C596.546 285.294 595.316 284.703 594.109 284.041C592.807 283.331 591.554 282.55 590.324 281.676C572.603 269.16 568.392 244.65 580.908 226.929C592.95 209.894 616.065 205.351 633.572 216.188C633.879 216.355 634.163 216.544 634.448 216.732C634.85 216.968 635.252 217.252 635.655 217.536C636.27 217.962 636.862 218.413 637.428 218.885C653.61 231.706 657.134 255.176 645.045 272.258Z" fill="#E5D64F"/>
<path opacity="0.4" d="M585.794 272.792C585.794 272.792 579.365 253.893 587.904 239.986C598.62 222.539 615.06 214.593 637.425 218.884C637.425 218.884 625.297 210.699 605.005 216.508C584.716 222.315 573.829 250.235 585.794 272.792Z" fill="white"/>
<path d="M645.04 272.267C634.262 287.517 614.576 292.757 598.008 285.902C595.346 284.81 592.764 283.404 590.309 281.67C572.593 269.149 568.381 244.635 580.893 226.932C593.134 209.613 616.843 205.201 634.439 216.726C634.841 216.975 635.247 217.245 635.644 217.525C653.35 230.038 657.561 254.551 645.04 272.267Z" stroke="#263238" stroke-width="1.788" stroke-miterlimit="10" stroke-linecap="round" stroke-linejoin="round"/>
<path d="M645.04 272.267C634.261 287.516 614.576 292.757 598.008 285.902C597.606 285.653 597.2 285.383 596.803 285.103C579.087 272.581 574.887 248.077 587.409 230.361C598.187 215.111 617.873 209.871 634.44 216.726C634.843 216.974 635.248 217.244 635.645 217.525C653.35 230.038 657.561 254.551 645.04 272.267Z" stroke="#263238" stroke-width="1.788" stroke-miterlimit="10" stroke-linecap="round" stroke-linejoin="round"/>
<path d="M609.838 277.482L608.275 281.457L601.772 278.898L603.335 274.924C598.382 271.391 596.662 265.374 599.049 259.304L599.76 257.498L607.443 259.6L606.705 261.48C605.255 265.167 606.253 268.144 609.289 269.338C612.323 270.531 614.941 269.392 616.106 266.429C617.497 262.889 615.368 258.546 612.745 253.759C609.627 248.111 606.793 241.74 609.323 235.309C611.795 229.022 616.593 225.734 622.379 226.51L623.941 222.535L630.444 225.092L628.882 229.067C633.745 232.398 635.091 238.1 632.561 244.531L632.05 245.831L624.367 243.728L624.935 242.284C626.47 238.382 625.747 235.761 623.074 234.711C620.401 233.66 618.229 234.724 616.979 237.905C615.586 241.443 617.817 245.743 620.34 250.573C623.358 256.268 626.293 262.595 623.763 269.025C621.347 275.167 615.915 278.371 609.838 277.482Z" stroke="#263238" stroke-width="1.788" stroke-miterlimit="10"/>
<path opacity="0.3" d="M609.838 277.482L608.275 281.457L601.772 278.898L603.335 274.924C598.382 271.391 596.662 265.374 599.049 259.304L599.76 257.498L607.443 259.6L606.705 261.48C605.255 265.167 606.253 268.144 609.289 269.338C612.323 270.531 614.941 269.392 616.106 266.429C617.497 262.889 615.368 258.546 612.745 253.759C609.627 248.111 606.793 241.74 609.323 235.309C611.795 229.022 616.593 225.734 622.379 226.51L623.941 222.535L630.444 225.092L628.882 229.067C633.745 232.398 635.091 238.1 632.561 244.531L632.05 245.831L624.367 243.728L624.935 242.284C626.47 238.382 625.747 235.761 623.074 234.711C620.401 233.66 618.229 234.724 616.979 237.905C615.586 241.443 617.817 245.743 620.34 250.573C623.358 256.268 626.293 262.595 623.763 269.025C621.347 275.167 615.915 278.371 609.838 277.482Z" fill="black"/>
<path opacity="0.3" d="M633.57 216.186C622.781 214.27 609.25 213.206 601.915 217.913C588.453 226.55 580.078 237.431 580.196 255.081C580.314 272.73 596.805 285.103 596.805 285.103L597.774 285.813C595.196 284.724 592.687 283.352 590.322 281.672C572.601 269.156 568.39 244.646 580.906 226.925C592.948 209.893 616.064 205.351 633.57 216.186Z" fill="black"/>
<path opacity="0.1" d="M645.045 272.258C634.256 287.518 614.572 292.77 598.012 285.909C597.94 285.886 597.845 285.838 597.776 285.814C596.545 285.294 595.315 284.702 594.108 284.041L637.428 218.884C653.609 231.706 657.134 255.175 645.045 272.258Z" fill="black"/>
<path d="M624.807 775.771C608.062 795.65 588.401 813.069 566.084 826.459C559.094 830.639 551.953 834.364 544.637 837.65C493.839 860.49 435.942 861.97 381.793 848.841C267.958 821.256 207.557 720.772 199.894 609.226C197.825 579.069 193.21 546.517 205.424 517.841C217.531 489.405 242.33 471.376 270.266 458.966C290.537 449.951 312.441 443.877 332.342 438.935C368.574 429.943 406.133 434.057 439.772 450.017C463.179 461.122 479.857 480.349 499.541 496.657C501.632 498.377 503.722 500.097 505.833 501.796C525.712 517.8 546.659 532.519 568.454 545.8C601.55 565.985 635.429 585.036 656.572 618.938C690.28 672.957 661.822 731.79 624.807 775.771Z" fill="#92E3A9"/>
<path opacity="0.4" d="M624.807 775.771C608.062 795.65 588.401 813.069 566.084 826.459C559.094 830.639 551.953 834.364 544.637 837.65C493.839 860.49 435.942 861.97 381.793 848.841C267.958 821.256 207.557 720.772 199.894 609.226C197.825 579.069 193.21 546.517 205.424 517.841C217.531 489.405 242.33 471.376 270.266 458.966C290.537 449.951 312.441 443.877 332.342 438.935C368.574 429.943 406.133 434.057 439.772 450.017C463.179 461.122 479.857 480.349 499.541 496.657C501.632 498.377 503.722 500.097 505.833 501.796C525.712 517.8 546.659 532.519 568.454 545.8C601.55 565.985 635.429 585.036 656.572 618.938C690.28 672.957 661.822 731.79 624.807 775.771Z" fill="white"/>
<path d="M505.835 501.789C503.725 500.092 501.628 498.379 499.543 496.652C479.854 480.351 463.175 461.121 439.775 450.017C406.132 434.052 368.563 429.947 332.342 438.937C285.019 450.682 226.311 468.766 205.422 517.845C193.216 546.525 197.827 579.07 199.899 609.219C207.566 720.772 267.95 821.258 381.789 848.849C443.738 863.862 510.564 859.755 566.091 826.457C588.396 813.081 608.069 795.643 624.796 775.771C661.813 731.792 690.287 672.954 656.583 618.935C635.436 585.04 601.559 565.991 568.452 545.806C546.653 532.514 525.725 517.797 505.835 501.789Z" stroke="#263238" stroke-width="1.788" stroke-miterlimit="10"/>
<path d="M333.309 700.711C323.919 703.611 314.457 707.239 305.833 711.762" stroke="#263238" stroke-width="1.788" stroke-miterlimit="10" stroke-linecap="round" stroke-linejoin="round"/>
<path d="M391.401 689.668C391.401 689.668 372.787 690.939 350.179 696.182" stroke="#263238" stroke-width="1.788" stroke-miterlimit="10" stroke-linecap="round" stroke-linejoin="round"/>
<path d="M379.261 686.795C379.261 686.795 325.83 655.717 261.351 680.626" stroke="#263238" stroke-width="1.788" stroke-miterlimit="10" stroke-linecap="round" stroke-linejoin="round"/>
<path opacity="0.1" d="M624.807 775.771C608.063 795.65 588.402 813.069 566.084 826.459C559.095 830.639 551.953 834.364 544.637 837.65C538.824 835.864 533.118 833.797 527.522 831.38C494.165 817.052 466.163 792.884 438.794 769.019C422.289 754.649 405.525 740.061 385.775 730.633C359.386 718.026 328.314 715.478 300.226 723.601C314.727 707.117 335.108 695.905 356.795 692.464C342.686 679.618 323.025 674.218 303.929 673.869C284.833 673.499 274.316 675.872 255.678 680.052C261.906 668.577 278.475 658.192 291.54 658.496C278.475 658.19 263.561 657.319 254.394 655.862C237.519 653.141 229.986 633.305 227.46 616.43C220.492 569.965 227.548 520.43 252.914 480.91C258.226 472.635 264.019 465.363 270.268 458.962C290.539 449.947 312.444 443.873 332.344 438.931C368.576 429.939 406.135 434.054 439.774 450.013C463.181 461.119 479.859 480.345 499.543 496.653C501.634 498.373 503.724 500.093 505.835 501.792C525.714 517.796 546.661 532.515 568.457 545.797C601.552 565.981 635.431 585.032 656.575 618.935C690.28 672.957 661.822 731.79 624.807 775.771Z" fill="black"/>
<path d="M643.367 774.453C643.367 774.453 658.389 787.098 674.771 797.599C696.036 799.028 686.5 824.734 686.5 824.734L668.298 836.433C668.298 836.433 637.209 811.722 620.241 803.694C603.272 795.666 643.367 774.453 643.367 774.453Z" fill="white"/>
<path opacity="0.3" d="M492.368 503.893C492.368 503.893 489.448 475.049 484.807 466.944L414.215 452.518V447.054C414.215 447.054 415.844 437.535 400.107 431.583C384.371 425.631 351.59 433.369 343.133 439.766C334.675 446.164 337.774 457.18 337.774 457.18C337.774 457.18 309.331 471.591 296.539 477.073C283.748 482.553 266.002 493.165 266.002 493.165C266.002 493.165 260.221 559.45 261.353 574.845C262.485 590.239 260.434 604.724 261.748 613.254C263.064 621.787 264.108 626.634 273.059 633.891C282.01 641.149 290.12 651.861 313.572 641.235L310.301 638.647L464.679 586.74L492.368 503.893Z" fill="black"/>
<path d="M492.368 503.893C492.368 503.893 489.448 475.049 484.807 466.944L414.215 452.518V447.054C414.215 447.054 415.844 437.535 400.107 431.583C384.371 425.631 351.59 433.369 343.133 439.766C334.675 446.164 337.774 457.18 337.774 457.18C337.774 457.18 309.331 471.591 296.539 477.073C283.748 482.553 266.002 493.165 266.002 493.165C266.002 493.165 260.221 559.45 261.353 574.845C262.485 590.239 260.434 604.724 261.748 613.254C263.064 621.787 264.108 626.634 273.059 633.891C282.01 641.149 290.12 651.861 313.572 641.235L310.301 638.647L464.679 586.74L492.368 503.893Z" fill="#92E3A9"/>
<path opacity="0.05" d="M492.368 503.893C492.368 503.893 489.448 475.049 484.807 466.944L414.215 452.518V447.054C414.215 447.054 415.844 437.535 400.107 431.583C384.371 425.631 351.59 433.369 343.133 439.766C334.675 446.164 337.774 457.18 337.774 457.18C337.774 457.18 309.331 471.591 296.539 477.073C283.748 482.553 266.002 493.165 266.002 493.165C266.002 493.165 260.221 559.45 261.353 574.845C262.485 590.239 260.434 604.724 261.748 613.254C263.064 621.787 264.108 626.634 273.059 633.891C282.01 641.149 290.12 651.861 313.572 641.235L310.301 638.647L464.679 586.74L492.368 503.893Z" fill="black"/>
<path opacity="0.1" d="M485.735 470.425H456.202C450.465 470.425 445.569 474.575 444.629 480.234L430.071 567.909C430.071 567.909 410.033 569.575 395.836 579.939C381.641 590.302 346.721 516.427 291.535 516.391C291.535 516.391 307.414 552.68 310.938 581.646C310.938 581.646 276.446 577.893 270.719 591.389C264.99 604.885 273.322 630.188 287.903 620.399C302.484 610.612 316.148 594.226 325.98 604.502C335.813 614.778 379.259 620.399 379.259 620.399L446.257 586.742L472.242 574.528L485.735 470.425Z" fill="black"/>
<path opacity="0.4" d="M391.952 427.025C391.952 427.025 408.729 431.679 411.445 437.302C414.161 442.926 413.882 457.183 413.882 457.183C413.882 457.183 409.312 469.844 395.837 482.002L383.314 457.183L384.435 485.337C384.435 485.337 360.694 481.386 350.619 473.79C340.544 466.196 340.544 466.196 340.544 466.196C340.544 466.196 336.208 451.943 336.823 447.056C337.438 442.168 355.609 432.364 355.609 432.364L391.952 427.025Z" fill="white"/>
<path d="M671.306 860.992C670.846 859.961 678.195 846.992 672.441 833.772C666.687 820.55 657.511 825.647 657.511 825.647C657.511 825.647 631.389 809.024 620.408 803.775C609.428 798.523 597.613 790.222 597.613 790.222L586.014 805.843L596.735 839.034L671.306 860.992Z" fill="#92E3A9"/>
<path d="M656.553 824.844L690.101 845.346C690.101 845.346 713.678 830.214 724.935 819.768C736.192 809.323 761.355 787.096 761.355 787.096L777.42 765.436C777.42 765.436 766.254 751.633 747.66 762.727C723.63 777.065 694.326 797.797 674.771 797.599C674.771 797.599 678.628 821.613 656.553 824.844Z" fill="#92E3A9"/>
<path d="M386.265 340.332C386.265 340.332 401.49 363.36 404.259 370.818C407.029 378.275 409.264 389.313 408.701 394.616C408.138 399.919 402.582 428.371 399.707 429.203L397.007 432.255L398.738 444.306C398.738 444.306 386.83 464.898 351.817 449.804C351.817 449.804 350.451 425.761 346.196 418.221C341.94 410.681 335.572 419.651 329.201 397.856C322.83 376.06 343.144 353.25 343.144 353.25L386.265 340.332Z" fill="white"/>
<path opacity="0.5" d="M762.919 758.719C762.919 758.719 745.683 761.71 740.08 771.92C734.478 782.129 723.741 801.109 720.074 810.285C716.405 819.459 686.073 841.614 686.073 841.614L690.101 845.348C690.101 845.348 714.783 830.089 729.666 815.59C744.551 801.091 777.413 764.616 777.413 764.616C777.413 764.616 775.067 762.268 762.919 758.719Z" fill="white"/>
<path opacity="0.5" d="M590.27 800.113L586.014 805.845L599.131 833.062L671.307 859.006L674.655 848.432C674.655 848.432 675.77 837.668 650.434 829.559C625.1 821.451 609.652 816.028 602.446 810.421C595.239 804.812 590.27 800.113 590.27 800.113Z" fill="white"/>
<path d="M351.983 597.983C351.983 597.983 329.882 594.666 319.563 612.743C309.245 630.821 310.3 638.647 310.3 638.647C310.3 638.647 324.899 651.916 344.976 651.237C365.054 650.557 394.32 627.417 403.848 619.931C413.376 612.444 437.411 591.004 453.808 595.43L455.616 579.926C455.616 579.926 454.023 572.976 439.994 574.844C425.967 576.713 420.467 584.719 415.956 584.719C411.445 584.719 407.159 580.367 398.016 595.896C398.016 595.896 366.135 601.555 351.983 597.983Z" fill="white"/>
<path d="M380.714 373.459C381.174 376.355 381.844 379.218 382.717 382.016C383.139 383.368 383.632 384.744 384.587 385.79C386.277 387.641 388.984 388.05 391.462 388.426C391.87 388.489 392.315 388.573 392.58 388.889C392.819 389.177 392.844 389.583 392.844 389.958C392.839 392.753 391.984 395.54 390.421 397.856" stroke="#263238" stroke-width="1.788" stroke-miterlimit="10" stroke-linecap="round" stroke-linejoin="round"/>
<path opacity="0.1" d="M605.107 781.637L590.27 800.113C590.27 800.113 606.548 815.145 623.396 820.716C640.245 826.287 669.718 836.849 674.653 844.918L672.756 835.204C672.756 835.204 626.652 806.918 616.055 800.166C605.459 793.415 605.107 781.637 605.107 781.637Z" fill="black"/>
<path opacity="0.1" d="M656.553 824.844L686.073 841.614C686.073 841.614 700.607 831.676 707.793 824.274C714.981 816.872 723.748 808.786 729.167 792.312C736.657 769.543 758.118 758.719 758.118 758.719C758.118 758.719 728.275 772.764 712.739 783.797C697.203 794.833 682.061 799.417 673.267 798.67C673.267 798.67 680.33 821.031 656.553 824.844Z" fill="black"/>
<path d="M370.296 401.916C370.296 401.916 381.898 411.015 393.957 407.604C393.957 407.604 382.581 430.125 370.296 401.916Z" fill="white" stroke="#263238" stroke-width="1.788" stroke-miterlimit="10" stroke-linecap="round" stroke-linejoin="round"/>
<path d="M369.94 382.247C370.276 384.752 369.522 386.921 368.258 387.09C366.994 387.258 365.697 385.365 365.361 382.86C365.025 380.355 365.78 378.186 367.044 378.016C368.308 377.846 369.606 379.742 369.94 382.247Z" fill="#263238"/>
<path d="M395.131 377.7C395.468 380.205 394.715 382.373 393.449 382.543C392.185 382.713 390.889 380.818 390.552 378.313C390.216 375.808 390.971 373.639 392.235 373.469C393.501 373.299 394.797 375.193 395.131 377.7Z" fill="#263238"/>
<path d="M368.109 371.631C368.109 371.631 361.345 368.146 356.532 375.615" stroke="#263238" stroke-width="1.788" stroke-miterlimit="10" stroke-linecap="round" stroke-linejoin="round"/>
<path d="M385.41 366.984C385.41 366.984 392.546 360.844 396.696 366.984" stroke="#263238" stroke-width="1.788" stroke-miterlimit="10" stroke-linecap="round" stroke-linejoin="round"/>
<path d="M345.128 394.639C345.128 394.639 340.778 388.217 336.22 388.424C331.663 388.631 329.798 395.054 331.455 401.269C333.113 407.484 339.95 416.186 345.128 415.357C350.308 414.527 352.586 411.212 352.586 411.212" stroke="#263238" stroke-width="1.788" stroke-miterlimit="10" stroke-linecap="round" stroke-linejoin="round"/>
<path d="M386.78 345.532C391.67 349.578 396.83 354.009 399.387 359.973C401.565 365.051 402.06 370.671 404.055 375.826C406.181 381.319 408.52 387.065 408.695 393.055C408.856 398.508 407.617 404.176 406.532 409.485C405.593 414.08 404.867 418.818 403.217 423.226C400.814 429.645 396.353 433.593 390.377 436.643C386.03 438.862 378.791 442.046 374.095 439.042C371.358 437.29 367.253 432.144 363.831 427.436" stroke="#263238" stroke-width="1.788" stroke-miterlimit="10" stroke-linecap="round" stroke-linejoin="round"/>
<path d="M345.128 415.357C345.128 415.357 352.813 434.206 350.948 447.466" stroke="#263238" stroke-width="1.788" stroke-miterlimit="10" stroke-linecap="round" stroke-linejoin="round"/>
<path d="M343.154 391.473C345.21 389.985 346.387 387.366 346.135 384.843C345.845 381.943 343.834 379.266 344.234 376.378C344.431 374.962 345.193 373.7 345.77 372.393C347.887 367.619 347.531 361.826 344.846 357.349C344.846 357.349 369.266 358.491 380.713 351.211C392.162 343.932 400.871 325.327 393.955 316.43C387.039 307.533 373.557 319.667 363.582 321.013C353.607 322.361 318.019 328.024 312.356 341.773C306.693 355.523 315.322 360.388 315.59 373.459C315.86 386.529 315.846 411.286 335.4 409.018C335.4 409.018 328.089 399.56 333.163 389.81C336.623 385.658 343.154 391.473 343.154 391.473Z" fill="#263238"/>
<path d="M391.053 331.88C391.053 331.88 401.107 338.589 402.748 353.351C403.837 363.153 421.227 382.191 408.695 393.051C408.695 393.051 405.772 381.512 404.055 375.822C402.339 370.135 400.15 359.757 397.268 356.131C394.384 352.505 379.113 340.111 379.113 340.111L391.053 331.88Z" fill="#263238"/>
<path d="M347.384 447.054C347.384 447.054 359.436 454.98 381.82 455.313L384.435 485.335C384.435 485.335 359.276 483.413 340.544 466.195C340.544 466.195 335.487 452.804 336.823 447.054C338.157 441.304 350.149 435.59 350.149 435.59" stroke="#263238" stroke-width="1.788" stroke-miterlimit="10" stroke-linecap="round" stroke-linejoin="round"/>
<path d="M398.017 433.621L398.738 444.308C390.602 452.647 381.82 455.317 381.82 455.317L395.838 482.003C395.838 482.003 412.545 468.993 414.213 455.317C414.213 455.317 414.351 441.306 411.447 437.304C408.543 433.301 397.912 431.415 397.912 431.415" stroke="#263238" stroke-width="1.788" stroke-miterlimit="10" stroke-linecap="round" stroke-linejoin="round"/>
<path opacity="0.8" d="M330.182 350.647C331.995 346.154 336.862 343.574 341.64 342.771C346.417 341.967 351.306 342.564 356.149 342.435C362.786 342.262 369.484 340.661 375.095 337.11C380.706 333.559 385.14 327.938 386.545 321.449" stroke="white" stroke-width="1.788" stroke-miterlimit="10" stroke-linecap="round" stroke-linejoin="round"/>
<path opacity="0.8" d="M318.641 349.784C321.673 340.602 331.468 334.943 341.103 334.126C345.875 333.72 350.701 334.283 355.457 333.724C360.213 333.164 365.164 331.201 367.65 327.106" stroke="white" stroke-width="1.788" stroke-miterlimit="10" stroke-linecap="round" stroke-linejoin="round"/>
<path d="M313.569 641.236C290.363 653.287 282.065 640.891 269.123 630.626C256.18 620.361 264.66 602.063 261.982 572.608C259.304 543.152 265.998 493.167 265.998 493.167C265.998 493.167 271.8 491.828 287.867 482.001C303.934 472.174 337.772 457.181 337.772 457.181" stroke="#263238" stroke-width="1.788" stroke-miterlimit="10" stroke-linecap="round" stroke-linejoin="round"/>
<path d="M336.599 596.728C336.599 596.728 332.912 585.052 322.499 584.736C312.086 584.421 295.681 589.118 283.998 611.245" stroke="#263238" stroke-width="1.788" stroke-miterlimit="10" stroke-linecap="round" stroke-linejoin="round"/>
<path d="M320.128 584.042C319.481 584.053 318.859 583.815 318.251 583.595C309.742 580.512 300.29 580.085 291.536 582.388" stroke="#263238" stroke-width="1.788" stroke-miterlimit="10" stroke-linecap="round" stroke-linejoin="round"/>
<path d="M285.557 509.126C304.476 530.044 313.709 557.723 322.454 584.537" stroke="#263238" stroke-width="1.788" stroke-miterlimit="10" stroke-linecap="round" stroke-linejoin="round"/>
<path d="M414.215 452.518C414.215 452.518 448.55 460.706 465.314 462.655C482.078 464.604 484.807 466.942 484.807 466.942L487.925 478.639" stroke="#263238" stroke-width="1.788" stroke-miterlimit="10" stroke-linecap="round" stroke-linejoin="round"/>
<path d="M574.196 472.913L457.273 477.409L447.72 597.656H467.751L569.268 574.918L582.042 475.806L574.196 472.913Z" fill="white"/>
<path d="M453.808 601.218L581.675 478.639L569.268 574.918L453.808 601.218Z" fill="#92E3A9"/>
<path opacity="0.7" d="M453.808 601.218L581.675 478.639L569.268 574.918L453.808 601.218Z" fill="white"/>
<path d="M453.808 597.983L464.027 482.001L582.042 475.805L569.268 574.918L453.808 597.983Z" stroke="#263238" stroke-width="1.788" stroke-miterlimit="10" stroke-linecap="round" stroke-linejoin="round"/>
<path d="M532.296 531.988C531.498 539.051 527.726 544.422 523.871 543.986C520.016 543.549 517.538 537.472 518.335 530.411C519.133 523.348 522.905 517.977 526.76 518.414C530.615 518.85 533.095 524.927 532.296 531.988Z" fill="#263238"/>
<path d="M569.268 574.918C569.268 574.918 623.302 573.382 640.202 584.537C657.104 595.693 667.011 651.643 664.68 681.365C662.348 711.088 641.95 779.276 641.95 779.276L602.902 734.983C602.902 734.983 583.671 665.047 594.161 637.655C594.161 637.655 542.291 640.57 521.893 634.158C521.893 634.158 503.599 604.214 472.242 594.3L569.268 574.918Z" fill="#263238"/>
<path d="M650.195 780.431C633.694 765.487 617.773 744.917 613.049 737.603C594.15 708.405 568.022 680.317 541.154 658.521C519.489 640.951 514.59 612.339 487.873 597.99C443.629 574.256 405.373 621.418 391.067 630.956C376.762 640.493 351.983 651.249 351.983 651.249C351.983 651.249 361.02 685.152 387.582 689.244C414.147 693.337 441.037 674.939 453.817 683.802C466.598 692.642 475.938 732.16 517.919 755.327C552.234 774.248 598.981 792.712 623.107 805.144C628.507 807.932 632.478 810.868 635.517 812.525C643.849 817.069 652.754 822.427 661.152 827.714L690.1 845.346C690.1 845.346 719.149 828.163 730.306 812.318C731.807 810.188 734.889 804.517 737.786 799.044C744.106 787.096 752.056 776.367 763.159 770.4C770.819 766.284 777.633 765.02 777.415 764.614C776.676 763.25 762.81 756.159 753.379 760.04C733.426 768.272 693.543 799.943 674.773 797.599C674.773 797.599 661.096 790.306 650.195 780.431Z" stroke="#263238" stroke-width="1.788" stroke-miterlimit="10"/>
<path d="M650.195 780.43C632.798 787.463 625.787 798.285 623.108 805.144C598.983 792.712 552.236 774.247 517.92 755.327C475.942 732.16 466.599 692.641 453.819 683.801C441.038 674.94 414.147 693.339 387.584 689.244C361.018 685.15 351.992 651.238 351.992 651.238C351.992 651.238 376.769 640.498 391.074 630.961C405.38 621.424 438.363 574.247 487.871 597.988C515.219 611.103 519.487 640.949 541.152 658.519C568.02 680.315 594.148 708.403 613.047 737.601C617.773 744.919 633.647 765.538 650.195 780.43Z" fill="#263238"/>
<path d="M519.46 628.856C519.46 628.856 506.07 601.639 484.587 596.359" stroke="white" stroke-width="1.788" stroke-miterlimit="10" stroke-linecap="round" stroke-linejoin="round"/>
<path d="M449.267 574.673C434.492 571.449 418.274 587.777 411.447 584.721C406.367 582.449 398.017 595.898 398.017 595.898C398.017 595.898 376.393 599.238 356.496 597.983C336.599 596.728 327.168 600.592 320.128 611.245L310.3 637.281C310.3 637.281 336.231 660.554 363.947 646.996C391.661 633.435 428.454 592.635 453.808 592.776" stroke="#263238" stroke-width="1.788" stroke-miterlimit="10" stroke-linecap="round" stroke-linejoin="round"/>
<path d="M655.427 824.149C655.427 824.149 679.688 826.143 673.992 797.172" stroke="#263238" stroke-width="1.788" stroke-miterlimit="10"/>
<path d="M769.691 779.276C767.852 782.927 745.667 801.769 726.517 818.308C726.575 818.05 731.813 807.957 734.113 803.648C739.194 794.132 752.354 768.043 777.415 764.614C780.969 766.754 769.691 779.276 769.691 779.276Z" fill="#263238"/>
<path d="M760.155 758.903C734.823 763.961 729.071 796.417 720.074 810.285C711.076 824.152 686.073 842.893 686.073 842.893" stroke="#263238" stroke-width="1.788" stroke-miterlimit="10"/>
<path d="M672.441 834.589C676.559 842.143 674.612 850.899 672.441 856.385C670.619 861 668.466 864.198 668.466 864.198C632.601 858.305 596.734 839.034 596.734 839.034L587.486 810.419L586.013 805.843L599.932 787.096" stroke="#263238" stroke-width="1.788" stroke-miterlimit="10"/>
<path d="M672.441 856.386C670.619 861.001 668.466 864.2 668.466 864.2C632.601 858.307 596.733 839.036 596.733 839.036L587.486 810.421C592.119 816.469 600.708 825.309 613.58 828.955C631.051 833.897 663.292 839.694 672.441 856.386Z" fill="#263238"/>
<path d="M447.72 593.472L457.273 477.409L574.196 472.913L582.042 475.806" stroke="#263238" stroke-width="1.788" stroke-miterlimit="10" stroke-linecap="round" stroke-linejoin="round"/>
<path d="M673.741 810.285C673.741 810.285 689.733 813.137 702.009 803.115C714.284 793.093 734.088 770.45 734.088 770.45" stroke="#263238" stroke-width="1.788" stroke-miterlimit="10"/>
<path d="M690.101 795.825C690.101 795.825 686.246 801.638 690.101 813.308" stroke="#263238" stroke-width="1.788" stroke-miterlimit="10" stroke-linecap="round" stroke-linejoin="round"/>
<path d="M701.437 790.306C701.437 790.306 698.346 798.997 702.882 807.783" stroke="#263238" stroke-width="1.788" stroke-miterlimit="10" stroke-linecap="round" stroke-linejoin="round"/>
<path d="M714.944 782.472C714.944 782.472 711.706 792.187 714.944 800.755" stroke="#263238" stroke-width="1.788" stroke-miterlimit="10" stroke-linecap="round" stroke-linejoin="round"/>
<path d="M603.103 784.679L590.27 800.113C590.27 800.113 603.197 814.213 621.401 820.076C639.605 825.939 672.175 835.9 674.866 846.501" stroke="#263238" stroke-width="1.788" stroke-miterlimit="10"/>
</g>
<defs>
<filter id="filter0_f_27_34" x="-566" y="-528" width="2072" height="2072" filterUnits="userSpaceOnUse" color-interpolation-filters="sRGB">
<feFlood flood-opacity="0" result="BackgroundImageFix"/>
<feBlend mode="normal" in="SourceGraphic" in2="BackgroundImageFix" result="shape"/>
<feGaussianBlur stdDeviation="294.5" result="effect1_foregroundBlur_27_34"/>
</filter>
</defs>
</svg>
