<svg width="14" height="16" viewBox="0 0 14 16" fill="none" xmlns="http://www.w3.org/2000/svg">
<path d="M5.92176 10.5833C5.51376 12.7849 5.01776 14.8969 3.53936 16.0009C3.08496 12.6729 4.20976 10.1705 4.73136 7.51613C3.84176 5.97373 4.83856 2.86653 6.71536 3.63293C9.02736 4.57373 4.71536 9.37053 7.61136 9.96893C10.6322 10.5961 11.8674 4.57053 9.99216 2.60893C7.28496 -0.219867 2.10896 2.54493 2.74576 6.59613C2.90096 7.58813 3.89456 7.88733 3.14256 9.25373C1.40976 8.85853 0.892958 7.45053 0.958558 5.57373C1.06576 2.50173 3.63856 0.352933 6.22096 0.0537332C9.48496 -0.322267 12.5474 1.28893 12.9714 4.45053C13.4466 8.01853 11.4978 11.8841 8.00656 11.6057C7.06256 11.5305 6.66256 11.0457 5.92176 10.5817V10.5833Z" fill="#9197B5"/>
</svg>
