<svg width="15" height="14" viewBox="0 0 15 14" fill="none" xmlns="http://www.w3.org/2000/svg">
<path d="M1.02963 13.6172H3.87407V4.37456H1.02963V13.6172Z" fill="#9197B5"/>
<path d="M0.912294 1.76656C0.912294 2.71411 1.42607 3.18878 2.45185 3.18878C3.4794 3.18878 3.99141 2.71589 3.99141 1.76833C3.99141 0.820779 3.47763 0.344334 2.45185 0.344334C2.04657 0.333184 1.65318 0.481981 1.35674 0.758557C1.2142 0.884463 1.10065 1.03978 1.02393 1.21379C0.947197 1.38781 0.909111 1.5764 0.912294 1.76656Z" fill="#9197B5"/>
<path d="M11.5203 13.6172H14.4234H14.4252V8.16656C14.4252 6.86167 14.1194 5.86433 13.5043 5.17278C12.8927 4.48122 12.0945 4.13633 11.1043 4.13633C9.80118 4.13633 8.85363 4.62878 8.20118 5.61722L8.0234 4.37456H5.53452C5.57185 4.92744 5.59318 5.91411 5.59318 7.33633V13.6172H8.49629V8.28389C8.49629 7.93011 8.53718 7.69189 8.61363 7.57278C8.85363 6.82256 9.34607 6.44745 10.0963 6.44745C11.0438 6.44745 11.5203 7.11944 11.5203 8.46167V13.6172Z" fill="#9197B5"/>
</svg>
