<svg width="17" height="14" viewBox="0 0 17 14" fill="none" xmlns="http://www.w3.org/2000/svg">
<path d="M16.332 2.10115C15.7432 2.35715 15.1112 2.53315 14.4472 2.60995C15.1256 2.20995 15.644 1.57635 15.8904 0.822754C15.244 1.1995 14.5386 1.46455 13.804 1.60675C13.495 1.28287 13.1233 1.02533 12.7115 0.849823C12.2997 0.67432 11.8565 0.584538 11.4088 0.585954C9.59603 0.585954 8.12723 2.03395 8.12723 3.81795C8.12723 4.07075 8.15603 4.31715 8.21203 4.55395C6.91175 4.49221 5.63862 4.1601 4.47387 3.57883C3.30911 2.99755 2.27831 2.17987 1.44723 1.17795C1.15533 1.66931 1.00165 2.23043 1.00243 2.80195C1.00243 3.92195 1.58323 4.91395 2.46323 5.49155C1.94234 5.47522 1.43261 5.33655 0.975231 5.08675V5.12675C0.980174 5.87789 1.24531 6.60409 1.7255 7.18172C2.20569 7.75934 2.87124 8.15268 3.60883 8.29475C3.1246 8.42279 2.61794 8.44138 2.12563 8.34915C2.34023 8.99534 2.75071 9.55868 3.30007 9.96095C3.84943 10.3632 4.5104 10.5845 5.19123 10.594C4.02317 11.494 2.58905 11.9803 1.11443 11.9764C0.850431 11.9764 0.589631 11.9604 0.332031 11.9316C1.83679 12.884 3.58157 13.3885 5.36243 13.386C11.4008 13.386 14.7016 8.46115 14.7016 4.18915L14.6904 3.76995C15.3341 3.3176 15.8903 2.75217 16.332 2.10115Z" fill="#9197B5"/>
</svg>
